<svg width="48" height="61" viewBox="0 0 48 61" fill="none" xmlns="http://www.w3.org/2000/svg">
    <path d="M6.90509 9.19629C5.61311 9.19629 4.52808 10.2701 4.52808 11.562V52.8872C4.52808 54.1794 5.61311 55.255 6.90509 55.255H41.0859C42.3777 55.255 43.4604 54.1794 43.4604 52.8872V11.562C43.4604 10.2701 42.3777 9.19629 41.0859 9.19629H6.90509ZM6.95701 11.6139H41.0341V52.8374H6.95701V11.6139ZM19.1166 20.7679V23.1876H20.3266H38.166H39.3827V20.7679H38.166H20.3266H19.1166ZM19.1166 28.6015V31.0303H20.3266H38.166H39.3827V28.6015H38.166H20.3266H19.1166ZM19.1166 36.4445V38.8708H20.3266H38.166H39.3827V36.4445H38.166H20.3266H19.1166ZM19.1166 44.2872V46.7071H20.3266H38.166H39.3827V44.2872H38.166H20.3266H19.1166Z" fill="black"/>
    <path d="M23.9947 0C21.3856 0 19.1913 1.80608 18.6618 4.24918H11.7765H2.36559C1.07373 4.24918 0 5.32503 0 6.61726V57.8285C0 59.1204 1.07373 60.2033 2.36559 60.2033H45.6238C46.9158 60.2033 47.9918 59.1204 47.9918 57.8285V6.61726C47.9918 5.32503 46.9158 4.24918 45.6238 4.24918H36.2062H29.3299C28.8012 1.8049 26.6047 0 23.9947 0ZM23.9947 2.42662C25.2778 2.42662 26.3614 3.15882 26.8111 4.24918H21.1807C21.6303 3.15882 22.7117 2.42662 23.9947 2.42662ZM2.4175 6.6758H9.4086V14.1784C9.4086 15.4707 10.4847 16.5462 11.7765 16.5462H36.2062C37.498 16.5462 38.5831 15.4707 38.5831 14.1784V6.6758H45.5743V57.7767H2.4175V6.6758ZM11.8351 6.6758H36.1566V14.1175H11.8351V6.6758Z" fill="#2D2D2D"/>
    <path d="M16.3997 18.2742L15.5391 19.1348L12.4141 22.2599L11.2133 21.059L10.3616 20.1984L8.64258 21.9174L9.50313 22.769L12.4141 25.6823L17.2513 20.845L18.112 19.9866L16.3997 18.2742ZM16.3997 26.1168L15.5391 26.9687L12.4141 30.0935L11.2133 28.9016L10.3616 28.0411L8.64258 29.7534L9.50313 30.6116L12.4141 33.525L17.2513 28.6786L18.112 27.8271L16.3997 26.1168ZM16.3997 33.9507L15.5391 34.8116L12.4141 37.9365L11.2133 36.7355L10.3616 35.884L8.64258 37.594L9.50313 38.4546L12.4141 41.3589L17.2513 36.5216L18.112 35.6698L16.3997 33.9507ZM16.3997 41.7937L15.5391 42.6543L12.4141 45.7792L11.2133 44.5785L10.3616 43.7267L8.64258 45.4391L9.50313 46.2885L12.4141 49.2015L17.2513 44.3643L18.112 43.5061L16.3997 41.7937Z" fill="#C79217"/>
</svg>
