<svg width="58" height="58" viewBox="0 0 58 58" fill="none" xmlns="http://www.w3.org/2000/svg">
    <path d="M51.7966 26.0673V7.67195C51.7935 5.02507 49.648 2.88015 47.0007 2.87698H41.2455C41.2455 1.28807 39.9572 0 38.3679 0C36.7786 0 35.4903 1.28807 35.4903 2.87698H16.3063C16.3063 1.28807 15.018 5.75396e-08 13.4287 5.75396e-08C11.8396 5.75396e-08 10.5511 1.28807 10.5511 2.87698H4.79598C2.14854 2.88015 0.00317122 5.02507 0 7.67195V46.0317C0.00317122 48.6785 2.14854 50.8235 4.79598 50.8266H25.2125C29.5002 56.102 36.3705 58.5494 43.0287 57.1733C49.6869 55.7973 55.0235 50.827 56.8677 44.2844C58.7118 37.7417 56.7563 30.7168 51.7966 26.0673ZM35.4903 5.62834V6.71296C35.4903 8.30187 36.7786 9.58994 38.3679 9.58994C39.9572 9.58994 41.2455 8.30187 41.2455 6.71296V5.62834C41.8544 6.25552 42.1979 7.0933 42.2046 7.96732C42.0434 9.96624 40.3737 11.5062 38.3679 11.5062C36.3621 11.5062 34.6924 9.96624 34.5311 7.96732C34.5378 7.0933 34.8814 6.25552 35.4903 5.62834ZM37.4087 2.87698C37.4087 2.34734 37.8381 1.91798 38.3679 1.91798C38.8976 1.91798 39.327 2.34734 39.327 2.87698V6.71296C39.327 7.24259 38.8976 7.67195 38.3679 7.67195C37.8381 7.67195 37.4087 7.24259 37.4087 6.71296V2.87698ZM10.5511 5.62834V6.71296C10.5511 8.30187 11.8396 9.58994 13.4287 9.58994C15.018 9.58994 16.3063 8.30187 16.3063 6.71296V5.62834C16.9152 6.25552 17.2588 7.0933 17.2655 7.96732C17.1788 10.0019 15.4642 11.5842 13.4287 11.5079C11.3933 11.5842 9.67868 10.0019 9.59197 7.96732C9.5987 7.0933 9.94226 6.25552 10.5511 5.62834ZM12.4696 2.87698C12.4696 2.34734 12.899 1.91798 13.4287 1.91798C13.9585 1.91798 14.3879 2.34734 14.3879 2.87698V6.71296C14.3879 7.24259 13.9585 7.67195 13.4287 7.67195C12.899 7.67195 12.4696 7.24259 12.4696 6.71296V2.87698ZM4.79598 4.79496H8.7613C8.06231 5.70548 7.68032 6.81955 7.67357 7.96732C7.76088 11.061 10.3341 13.5016 13.4287 13.4259C16.5234 13.5016 19.0966 11.061 19.1839 7.96732C19.1772 6.81955 18.7952 5.70548 18.0962 4.79496H33.7004C33.0015 5.70548 32.6194 6.81955 32.6127 7.96732C32.7709 11.0298 35.3007 13.4317 38.3679 13.4317C41.4351 13.4317 43.9649 11.0298 44.1231 7.96732C44.1163 6.81955 43.7343 5.70548 43.0354 4.79496H47.0007C48.5899 4.79496 49.8783 6.08304 49.8783 7.67195V15.3439H1.91839V7.67195C1.91839 6.08304 3.20673 4.79496 4.79598 4.79496ZM4.79598 48.9087C3.20673 48.9087 1.91839 47.6206 1.91839 46.0317V17.2619H49.8783V24.4898C44.8596 20.8867 38.3476 20.0967 32.6127 22.3954V21.0979C32.6127 20.0385 31.7538 19.1798 30.6943 19.1798H26.8575C25.798 19.1798 24.9391 20.0385 24.9391 21.0979V23.9749C24.9391 25.0341 25.798 25.8928 26.8575 25.8928H27.0493C20.5517 31.7804 19.2082 41.4769 23.86 48.9087H4.79598ZM29.5375 23.9749H26.8575V21.0979H30.6943V23.2777C30.2971 23.4953 29.9164 23.7323 29.5375 23.9749ZM39.327 55.6217C30.3213 55.6217 23.0207 48.3226 23.0207 39.3187C23.0207 30.3149 30.3213 23.0158 39.327 23.0158C48.3328 23.0158 55.6334 30.3149 55.6334 39.3187C55.6234 48.3184 48.3287 55.6116 39.327 55.6217Z" fill="black"/>
    <path d="M39.3274 24.9338C31.3812 24.9338 24.9395 31.3741 24.9395 39.3187C24.9395 47.2633 31.3812 53.7036 39.3274 53.7036C47.2736 53.7036 53.7153 47.2633 53.7153 39.3187C53.6853 31.3865 47.2612 24.9638 39.3274 24.9338ZM46.3708 49.5972L45.9132 48.805C45.7431 48.5059 45.4257 48.3208 45.0815 48.32C44.7373 48.3193 44.4191 48.503 44.2477 48.8014C44.0762 49.0998 44.0778 49.4672 44.2519 49.7641L44.7046 50.5494C43.3189 51.2172 41.8204 51.6198 40.2866 51.7367V50.8267C40.2866 50.297 39.8572 49.8676 39.3274 49.8676C38.7976 49.8676 38.3682 50.297 38.3682 50.8267V51.7367C36.8344 51.6198 35.3359 51.2172 33.9502 50.5494L34.4029 49.7641C34.577 49.4672 34.5785 49.0998 34.4071 48.8014C34.2357 48.503 33.9175 48.3193 33.5733 48.32C33.2291 48.3208 32.9116 48.5059 32.7416 48.805L32.284 49.5972C31.0164 48.7249 29.9191 47.628 29.0468 46.3605L29.839 45.9032C30.2939 45.6366 30.4482 45.0528 30.1846 44.5964C29.9209 44.1398 29.3382 43.9816 28.8799 44.2421L28.0942 44.6948C27.4264 43.3094 27.0237 41.8113 26.9068 40.2777H27.817C28.3468 40.2777 28.7763 39.8483 28.7763 39.3187C28.7763 38.7891 28.3468 38.3597 27.817 38.3597H26.9068C27.0237 36.8262 27.4264 35.328 28.0942 33.9426L28.8799 34.3952C29.1767 34.5692 29.5442 34.5709 29.8427 34.3995C30.1412 34.2281 30.3248 33.9099 30.3241 33.5658C30.3234 33.2216 30.1383 32.9043 29.839 32.7342L29.0468 32.2768C29.9191 31.0094 31.0164 29.9125 32.284 29.0402L32.7416 29.8323C33.0082 30.2871 33.592 30.4414 34.0486 30.1778C34.5053 29.9143 34.6635 29.3316 34.4029 28.8733L33.9502 28.0879C35.3359 27.4203 36.8344 27.0176 38.3682 26.9006V27.8108C38.3682 28.3404 38.7976 28.7697 39.3274 28.7697C39.8572 28.7697 40.2866 28.3404 40.2866 27.8108V26.9006C41.8204 27.0176 43.3189 27.4203 44.7046 28.0879L44.2519 28.8733C44.0778 29.1702 44.0762 29.5375 44.2477 29.836C44.4191 30.1344 44.7373 30.3181 45.0815 30.3173C45.4257 30.3166 45.7431 30.1314 45.9132 29.8323L46.3708 29.0402C47.6384 29.9125 48.7357 31.0094 49.608 32.2768L48.8158 32.7342C48.5165 32.9043 48.3314 33.2216 48.3307 33.5658C48.3299 33.9099 48.5136 34.2281 48.8121 34.3995C49.1106 34.5709 49.4781 34.5692 49.7749 34.3952L50.5606 33.9426C51.2284 35.328 51.6311 36.8262 51.748 38.3597H50.8378C50.308 38.3597 49.8785 38.7891 49.8785 39.3187C49.8785 39.8483 50.308 40.2777 50.8378 40.2777H51.748C51.6311 41.8113 51.2284 43.3094 50.5606 44.6948L49.7749 44.2421C49.4781 44.0682 49.1106 44.0665 48.8121 44.2379C48.5136 44.4093 48.3299 44.7275 48.3307 45.0715C48.3314 45.4157 48.5165 45.733 48.8158 45.9032L49.608 46.3605C48.7357 47.628 47.6384 48.7249 46.3708 49.5972Z" fill="#C79217"/>
    <path d="M40.4648 39.099L43.0863 32.9835C43.2861 32.4987 43.0594 31.9434 42.5773 31.7368C42.0954 31.5301 41.5368 31.7489 41.3233 32.2277L38.4457 38.9407C38.2916 39.3009 38.3722 39.7185 38.6491 39.9956L42.4859 43.8316C42.8622 44.195 43.4605 44.1898 43.8305 43.8199C44.2004 43.4499 44.2056 42.8518 43.8421 42.4755L40.4648 39.099Z" fill="#2D2D2D"/>
    <path d="M9.59209 19.1799H5.75531C4.69582 19.1799 3.83691 20.0386 3.83691 21.0979V23.9749C3.83691 25.0341 4.69582 25.8928 5.75531 25.8928H9.59209C10.6516 25.8928 11.5104 25.0341 11.5104 23.9749V21.0979C11.5104 20.0386 10.6516 19.1799 9.59209 19.1799ZM5.75531 23.9749V21.0979H9.59209V23.9749H5.75531Z" fill="#2D2D2D"/>
    <path d="M16.3065 25.8928H20.1434C21.2028 25.8928 22.0617 25.0341 22.0617 23.9749V21.0979C22.0617 20.0386 21.2028 19.1799 20.1434 19.1799H16.3065C15.2471 19.1799 14.3882 20.0386 14.3882 21.0979V23.9749C14.3882 25.0341 15.2471 25.8928 16.3065 25.8928ZM16.3065 21.0979H20.1434V23.9749H16.3065V21.0979Z" fill="#2D2D2D"/>
    <path d="M9.59209 28.7698H5.75531C4.69582 28.7698 3.83691 29.6285 3.83691 30.6877V33.5647C3.83691 34.6241 4.69582 35.4828 5.75531 35.4828H9.59209C10.6516 35.4828 11.5104 34.6241 11.5104 33.5647V30.6877C11.5104 29.6285 10.6516 28.7698 9.59209 28.7698ZM5.75531 33.5647V30.6877H9.59209V33.5647H5.75531Z" fill="#2D2D2D"/>
    <path d="M20.1434 28.7698H16.3065C15.2471 28.7698 14.3882 29.6285 14.3882 30.6877V33.5647C14.3882 34.6241 15.2471 35.4828 16.3065 35.4828H18.225C18.7547 35.4828 19.1841 35.0534 19.1841 34.5237C19.1841 33.9941 18.7547 33.5647 18.225 33.5647H16.3065V30.6877H20.1434C20.6732 30.6877 21.1026 30.2584 21.1026 29.7288C21.1026 29.1991 20.6732 28.7698 20.1434 28.7698Z" fill="#2D2D2D"/>
    <path d="M9.59209 38.3599H5.75531C4.69582 38.3599 3.83691 39.2187 3.83691 40.2779V43.1549C3.83691 44.2142 4.69582 45.0729 5.75531 45.0729H9.59209C10.6516 45.0729 11.5104 44.2142 11.5104 43.1549V40.2779C11.5104 39.2187 10.6516 38.3599 9.59209 38.3599ZM5.75531 43.1549V40.2779H9.59209V43.1549H5.75531Z" fill="#2D2D2D"/>
    <path d="M19.1841 43.1549H16.3065V40.2779H18.225C18.7547 40.2779 19.1841 39.8486 19.1841 39.3189C19.1841 38.7893 18.7547 38.3599 18.225 38.3599H16.3065C15.2471 38.3599 14.3882 39.2187 14.3882 40.2779V43.1549C14.3882 44.2142 15.2471 45.0729 16.3065 45.0729H19.1841C19.7139 45.0729 20.1434 44.6435 20.1434 44.1138C20.1434 43.5843 19.7139 43.1549 19.1841 43.1549Z" fill="#2D2D2D"/>
</svg>
