<svg width="57" height="57" viewBox="0 0 57 57" fill="none" xmlns="http://www.w3.org/2000/svg">
    <path d="M28.4998 0C23.9607 0.000459261 19.4881 1.08452 15.4526 3.16292C14.2012 3.77437 15.6474 5.69545 16.5207 5.2255C20.2277 3.31664 24.3301 2.32352 28.4998 2.32352C32.668 2.32352 36.7815 3.3179 40.4875 5.2255C41.347 5.42883 42.9062 3.75416 41.5469 3.16292C37.5125 1.08619 33.0373 0.000459261 28.4998 0ZM28.4998 4.69699C25.2542 4.69732 22.0441 5.35888 19.0645 6.64514C17.6425 7.16202 18.9898 9.09051 19.9858 8.7727C22.6751 7.61156 25.5705 7.01243 28.4998 7.0121C31.4311 7.01243 34.3316 7.61834 37.0224 8.78111C37.8615 8.88048 39.3219 7.14102 37.9437 6.64514C34.9624 5.35713 31.7475 4.69732 28.4998 4.69699ZM28.5065 20.4362C24.7322 20.4362 21.4829 23.0663 20.6463 26.6845L7.2388 31.3792C7.1095 30.424 7.02092 29.4642 7.02092 28.4989C7.02084 27.7445 7.05474 26.9904 7.13528 26.2401C7.21791 25.544 6.66896 24.934 5.968 24.9433C5.3741 24.9558 4.88144 25.4048 4.82661 25.9963C4.73893 26.8275 4.69671 27.6631 4.69712 28.4989C4.69704 30.0143 4.84765 31.5268 5.13513 33.0147C5.1354 33.0147 5.13486 33.0147 5.13513 33.0147C5.18702 33.7802 5.95349 34.2861 6.67784 34.033L22.0487 28.6521C22.5253 28.4976 22.849 28.055 22.8514 27.554C23.3129 24.7861 25.6839 22.7576 28.5065 22.7576C31.3491 22.7576 33.731 24.812 34.1681 27.6101C34.1935 28.0419 34.4573 28.4236 34.8521 28.6003C34.8784 28.6129 34.9048 28.6254 34.9319 28.6337C34.9406 28.6337 34.949 28.6462 34.9577 28.6462C34.9657 28.6462 34.9736 28.6587 34.9815 28.6587L50.3287 34.0419C51.0484 34.2924 51.8103 33.794 51.8692 33.0343C52.1589 31.5415 52.3094 30.0245 52.3094 28.5035C52.3095 27.6735 52.2665 26.8434 52.1799 26.0179C52.1238 25.4108 51.6072 24.9509 50.9976 24.9652C50.313 24.9819 49.7905 25.5819 49.8713 26.2618C49.9494 27.0068 49.9857 27.7543 49.9856 28.5035C49.9856 29.4688 49.897 30.4289 49.7677 31.3838L36.3581 26.6868C35.5229 23.0681 32.2814 20.4385 28.5065 20.4385L28.5065 20.4362ZM1.90733 20.7858C1.3749 20.8108 0.927232 21.1932 0.82204 21.7157C0.277425 23.9368 0 26.2118 0 28.4989C8.3505e-05 44.2253 12.7729 57.0001 28.5 57.0001C44.227 57.0001 56.9999 44.2253 57 28.4989C57 26.211 56.7293 23.9376 56.1844 21.7157C56.07 21.2033 55.6258 20.8317 55.1013 20.8095C54.321 20.7761 53.7302 21.5058 53.9276 22.2615C54.4283 24.3028 54.6849 26.3972 54.6849 28.4989C54.6848 42.9719 42.9733 54.683 28.5 54.683C14.0267 54.683 2.32384 42.9719 2.32376 28.4989C2.32376 26.3981 2.5723 24.3083 3.07244 22.2679C3.29381 21.5052 2.70068 20.7509 1.90733 20.7858ZM28.5065 24.4729C26.2971 24.4729 24.4782 26.2917 24.4782 28.501C24.4782 30.7103 26.2971 32.5293 28.5065 32.5293C30.7158 32.5293 32.5261 30.7103 32.5261 28.501C32.5261 26.2917 30.7158 24.4729 28.5065 24.4729ZM28.5065 26.7967C29.4621 26.7967 30.211 27.5454 30.211 28.501C30.211 29.4565 29.4621 30.2055 28.5065 30.2055C27.5509 30.2055 26.7933 29.4565 26.7933 28.501C26.7933 27.5454 27.5509 26.7967 28.5065 26.7967ZM33.1842 32.3351C32.8948 32.3351 32.6179 32.4543 32.4118 32.6585C32.029 33.0242 31.591 33.3331 31.1215 33.5753C30.7061 33.7787 30.4576 34.2174 30.4958 34.68V50.9266C30.4513 51.6763 31.1202 52.2698 31.8594 52.1367H31.8616C39.4724 51.0651 46.1158 46.348 49.6685 39.5368C49.6856 39.5076 49.7014 39.4818 49.7159 39.4529C49.7167 39.4529 49.7174 39.4529 49.7181 39.4529C49.7621 39.3678 49.7954 39.2782 49.8174 39.1851C49.8228 39.1642 49.8261 39.1411 49.8303 39.1181C49.8307 39.1181 49.8321 39.1179 49.8326 39.1054C49.8459 39.0294 49.8517 38.9521 49.8497 38.8745C49.8489 38.8494 49.8459 38.8215 49.843 38.7952C49.8359 38.728 49.823 38.6617 49.8042 38.597C49.7983 38.5761 49.7941 38.5547 49.787 38.5338C49.7856 38.5338 49.7842 38.5213 49.7829 38.5213C49.7582 38.4528 49.7272 38.3861 49.6901 38.323C49.6742 38.298 49.6563 38.27 49.6383 38.2458C49.6116 38.2082 49.5829 38.172 49.552 38.1378C49.5491 38.1378 49.5462 38.125 49.5432 38.125C49.5019 38.0795 49.4577 38.0392 49.4095 37.9999C49.3886 37.9832 49.3669 37.9665 49.3448 37.9523C49.2932 37.9189 49.2406 37.885 49.1829 37.8575C49.1637 37.8449 49.1445 37.8408 49.1247 37.8325C49.1084 37.82 49.0917 37.8199 49.0751 37.8116C49.0715 37.8116 49.068 37.8116 49.0642 37.8116C49.0254 37.7991 48.9885 37.7825 48.9477 37.7741L33.6439 32.4126C33.546 32.375 33.4437 32.3528 33.3397 32.344C33.2882 32.3315 33.2363 32.3315 33.1843 32.3315L33.1842 32.3351ZM23.7015 32.3351C23.6798 32.3351 23.6582 32.3348 23.6367 32.3476C23.5021 32.3601 23.3707 32.3964 23.2484 32.4536L8.18387 37.7331C7.50013 37.8475 7.06864 38.5317 7.2604 39.1979C7.26917 39.2271 7.27917 39.2585 7.29044 39.2886C7.29545 39.3011 7.30005 39.3135 7.30548 39.326C7.3109 39.3386 7.31677 39.3553 7.32261 39.3691C7.34516 39.42 7.37092 39.4685 7.40028 39.5156H7.40247C10.9475 46.3083 17.5445 50.981 25.1316 52.0662C25.1425 52.0662 25.1533 52.0658 25.1642 52.0786C25.1692 52.0794 25.1742 52.0786 25.1792 52.0786C25.211 52.0786 25.2424 52.0914 25.2742 52.0914H25.3368C25.3606 52.0914 25.3842 52.0907 25.408 52.0914H25.4101H25.4124C25.5668 52.0789 25.7179 52.0427 25.8568 51.9747C26.255 51.7801 26.5077 51.3759 26.5084 50.9327V34.8852C26.5084 34.4948 26.4644 34.107 26.187 33.8325C26.1807 33.8199 26.174 33.8199 26.1677 33.8116C26.1627 33.8116 26.1577 33.7991 26.1527 33.7991C26.0556 33.7064 25.9432 33.6311 25.8204 33.5769C25.3857 33.3468 24.9829 33.0656 24.6208 32.7331C24.4078 32.4964 24.1065 32.3575 23.788 32.3491L23.7858 32.3366C23.7611 32.3365 23.7368 32.3373 23.7124 32.3366L23.7015 32.3351ZM33.3654 34.7667L47.0124 39.5498C43.9092 44.7413 38.741 48.4081 32.8131 49.6127V35.1634C33.0032 35.039 33.1868 34.9071 33.3654 34.7664V34.7667ZM23.5202 34.8095C23.734 34.9777 23.9551 35.1343 24.1848 35.2799V49.539C18.2842 48.3284 13.1616 44.6976 10.0696 39.5281L23.5202 34.8095Z" fill="#2D2D2D"/>
    <path d="M13.559 1.78127C12.5467 1.78127 11.5351 2.16522 10.7691 2.93105C10.2102 3.4901 9.85856 4.17966 9.70766 4.9052C8.37804 4.5378 6.89386 4.85637 5.85621 5.89343C4.89081 6.85867 4.5348 8.21604 4.78612 9.4707C3.99548 9.59595 3.23522 9.95574 2.63061 10.5603C1.09873 12.0922 1.10149 14.6104 2.63061 16.1418L2.6847 16.1961C2.17179 16.3882 1.68973 16.6777 1.2801 17.0872C-0.251896 18.6195 -0.251896 21.1369 1.2801 22.6687L5.15085 26.5373C6.68285 28.0691 9.19848 28.0691 10.7305 26.5373C11.3204 25.9472 11.6782 25.21 11.8136 24.44C13.0892 24.7198 14.4796 24.3828 15.4643 23.3958C16.3439 22.5161 16.7039 21.3117 16.5733 20.1551C18.0625 20.9342 19.9519 20.719 21.1971 19.4734L25.0592 15.6113C26.5911 14.0794 26.5913 11.5616 25.0592 10.0298C24.301 9.27167 23.3019 8.89206 22.2997 8.88408L16.3468 2.93156C15.5808 2.16573 14.5692 1.78153 13.557 1.78153L13.559 1.78127ZM43.4464 1.78127C42.4341 1.78127 41.4225 2.16522 40.6565 2.93105L34.7015 8.88383C33.6992 8.89635 32.7001 9.27134 31.9419 10.0295C30.4099 11.5614 30.4101 14.0792 31.9419 15.611L35.8062 19.4729C37.0514 20.7185 38.9409 20.934 40.43 20.1549C40.2994 21.3114 40.6572 22.5159 41.5369 23.3955C42.5215 24.3821 43.9119 24.7193 45.1876 24.4395C45.323 25.2095 45.6807 25.9468 46.2706 26.5368C47.8026 28.0686 50.3204 28.0686 51.8524 26.5368L55.721 22.6682C57.253 21.1364 57.253 18.619 55.721 17.0867C55.3114 16.6772 54.8315 16.3877 54.3186 16.1956L54.3727 16.1413C55.9041 14.6099 55.9068 12.0916 54.3727 10.5598C53.7681 9.95523 53.0057 9.59561 52.215 9.47044C52.4664 8.21578 52.1123 6.85841 51.147 5.89317C50.1095 4.85599 48.6253 4.53754 47.2957 4.90495C47.1448 4.1794 46.7932 3.48984 46.2342 2.9308C45.4682 2.16492 44.4566 1.78076 43.4444 1.78076L43.4464 1.78127ZM13.5633 4.08338C13.9757 4.08259 14.3876 4.24654 14.7133 4.5752L19.8635 9.72527C19.7342 9.82589 19.5998 9.91696 19.4816 10.0339L17.5268 11.9884L12.4133 6.87298C11.7619 6.22167 11.7618 5.22881 12.4133 4.5775C12.7391 4.25184 13.1532 4.08617 13.5655 4.08542L13.5633 4.08338ZM43.442 4.08338C43.8543 4.08414 44.2663 4.24946 44.592 4.5752C45.2435 5.22652 45.2434 6.21937 44.592 6.87069L39.4763 11.9864L37.5215 10.0316C37.4033 9.91467 37.2712 9.82318 37.1418 9.72298L42.292 4.57291C42.6176 4.24433 43.0296 4.0803 43.442 4.08109V4.08338ZM8.64394 7.0455C9.0562 7.04625 9.46814 7.2083 9.79392 7.53095L15.8849 13.6218L15.6195 13.8894C14.8268 14.6818 14.4527 15.7376 14.4803 16.7848C14.3379 16.6679 14.1851 16.5258 14.0164 16.3554L8.21454 10.5537L7.49395 9.83332C6.8424 9.18158 6.84229 8.17819 7.49395 7.52687C7.81962 7.2008 8.23166 7.04042 8.64394 7.04117V7.0455ZM48.3614 7.0455C48.7736 7.04471 49.1857 7.20496 49.5114 7.53095C50.1631 8.18226 50.1629 9.18566 49.5114 9.83739L48.7886 10.558L42.9889 16.3597C42.8202 16.5301 42.6674 16.6721 42.525 16.7891C42.5526 15.742 42.1785 14.6861 41.3858 13.8937L41.1204 13.6262L47.2114 7.53528C47.5372 7.21255 47.9491 7.05059 48.3614 7.04983V7.0455ZM22.2757 11.1816C22.688 11.1808 23.0999 11.3443 23.4257 11.6734C24.0773 12.3247 24.0773 13.3286 23.4257 13.9799L19.5636 17.842C18.9121 18.4934 17.9087 18.4934 17.2572 17.842C16.6055 17.1903 16.6097 16.1937 17.2572 15.542V15.5295L21.1214 11.6676C21.4472 11.3415 21.8592 11.1762 22.2714 11.1755L22.2757 11.1816ZM34.7296 11.1816C35.1419 11.1824 35.5538 11.3477 35.8796 11.6734L39.7417 15.5356V15.5481C40.3914 16.1998 40.3977 17.1964 39.7417 17.8482C39.0902 18.4994 38.0868 18.4994 37.4352 17.8482L33.5731 13.986C32.9216 13.3347 32.9216 12.3309 33.5731 11.6795C33.899 11.3505 34.3108 11.1869 34.7232 11.1877L34.7296 11.1816ZM5.42694 11.7122C5.8392 11.7115 6.25125 11.8754 6.57692 12.2042L12.3766 18.0039L13.8286 19.4559C14.48 20.1072 14.474 21.1062 13.8286 21.758C13.1772 22.4093 12.1865 22.4093 11.5352 21.758L10.739 20.9616L6.87034 17.0934L4.28125 14.5043C3.62981 13.853 3.6297 12.8624 4.28125 12.2106V12.1981C4.60705 11.8725 5.02108 11.7071 5.43347 11.7063L5.42694 11.7122ZM51.5784 11.7122C51.9908 11.713 52.4026 11.8788 52.7284 12.2042V12.217C53.3798 12.8687 53.3797 13.8591 52.7284 14.5104L50.1392 17.0992L46.2706 20.9678L45.4766 21.7641C44.8253 22.4154 43.8323 22.4154 43.1809 21.7641C42.5312 21.1123 42.5252 20.1133 43.1809 19.462L44.6351 18.01L50.4348 12.2103C50.7605 11.8818 51.1725 11.7179 51.5848 11.7185L51.5784 11.7122ZM4.07414 18.2411C4.48486 18.2411 4.89614 18.4051 5.22192 18.7309L9.09057 22.5994C9.74223 23.2512 9.74201 24.2433 9.09057 24.8949C8.43901 25.5463 7.44214 25.5525 6.79048 24.8949L2.92192 21.0243C2.27037 20.373 2.27457 19.3756 2.92192 18.7243V18.737C3.24772 18.4113 3.65896 18.247 4.0698 18.247L4.07414 18.2411ZM52.9312 18.2411C53.3419 18.2411 53.7512 18.4051 54.0769 18.7309V18.7184C54.7264 19.3697 54.7327 20.3669 54.0769 21.0182L50.2082 24.8888C49.5567 25.5464 48.5598 25.5402 47.9082 24.8888C47.2568 24.2371 47.2566 23.245 47.9082 22.5933L51.7769 18.725C52.1027 18.3994 52.5139 18.235 52.9247 18.235L52.9312 18.2411Z" fill="#C79217"/>
</svg>
