<svg width="60" height="59" viewBox="0 0 60 59" fill="none" xmlns="http://www.w3.org/2000/svg">
    <path d="M52.12 14.7498V4.91644C52.12 4.37339 51.6797 3.93311 51.1368 3.93311H47.2034V5.89978H50.1534V14.7498H52.12Z" fill="#2D2D2D"/>
    <path d="M6.88696 29.5002V54.0836C6.88696 54.6267 7.32726 55.0669 7.8703 55.0669H47.2037C47.7468 55.0669 48.187 54.6267 48.187 54.0836V47.2003H46.2204V53.1002H8.85363V29.5002H6.88696Z" fill="black"/>
    <path d="M38.7609 0.0984295C38.7302 0.0845053 38.7008 0.076823 38.6691 0.0657797C38.587 0.0374513 38.5016 0.0206462 38.4147 0.0148844C38.393 0.0110433 38.3744 0 38.3536 0H7.8703C7.32726 0 6.88696 0.440293 6.88696 0.983335V2.95001H8.85363V1.96667H37.3704V9.83335C37.3704 10.3764 37.8107 10.8167 38.3536 10.8167H46.2204V15.7333H48.187V9.83335C48.187 9.8127 48.1765 9.79398 48.1751 9.77238C48.1698 9.68546 48.1524 9.60001 48.1241 9.5179C48.1131 9.48621 48.1055 9.45692 48.0915 9.42619C48.044 9.31912 47.9772 9.22165 47.8951 9.13811L39.0451 0.288087C38.9621 0.208862 38.866 0.144524 38.7609 0.0984295ZM44.8299 8.85002H39.3371V3.35717L44.8299 8.85002Z" fill="black"/>
    <path d="M23.6924 41.2997V49.1664C23.6924 49.7094 24.1327 50.1498 24.6757 50.1498H37.4591V48.1831H25.6591V42.2831H30.5758V40.3164H24.6757C24.1327 40.3164 23.6924 40.7566 23.6924 41.2997Z" fill="#C79217"/>
    <path d="M27.6262 44.25H33.5262V46.2167H27.6262V44.25Z" fill="#C79217"/>
    <path d="M52.12 16.7166C48.3206 16.7214 45.2415 19.8006 45.2366 23.5999V23.6983L40.2215 28.9925L37.0818 25.8527C36.6977 25.4686 36.0754 25.4686 35.6913 25.8527L26.8414 34.7028C26.4577 35.0869 26.4577 35.7092 26.8414 36.0933L40.608 49.8599C40.9921 50.2436 41.6144 50.2436 41.9985 49.8599L44.9485 46.9099L50.1533 41.7072V57.0334H11.8032V58.9999H51.1366C51.6797 58.9999 52.12 58.5597 52.12 58.0167V34.4166H50.1533V38.9261L46.7255 35.4983L52.0215 30.4833H52.12C55.9218 30.4833 59.0033 27.4017 59.0033 23.5999C59.0033 19.7981 55.9218 16.7166 52.12 16.7166ZM41.3032 47.7762L28.927 35.4L30.4866 33.8404L42.8628 46.2166L41.3032 47.7762ZM48.7628 40.3166L44.2532 44.8261L31.8771 32.45L36.3866 27.9404L38.8685 30.4222L36.6559 32.7568C36.2863 33.1443 36.2949 33.756 36.6747 34.1334L41.5914 39.05C41.9678 39.4264 42.5756 39.4346 42.9622 39.0687L45.2976 36.8562L48.7628 40.3166ZM52.12 28.5166H51.6282C51.3767 28.5166 51.1347 28.6131 50.9518 28.786L42.3053 36.9734L38.7465 33.4145L46.9378 24.7682C47.1096 24.5847 47.2043 24.3427 47.2033 24.0916V23.5999C47.2033 20.8847 49.4047 18.6832 52.12 18.6832C54.8352 18.6832 57.0367 20.8847 57.0367 23.5999C57.0367 26.3151 54.8352 28.5166 52.12 28.5166Z" fill="#2D2D2D"/>
    <path d="M12.8748 35.3992H24.6748V37.3659H12.8748V35.3992Z" fill="#2D2D2D"/>
    <path d="M12.8748 39.6902H20.3842V41.8357H12.8748V39.6902Z" fill="#2D2D2D"/>
    <path d="M12.8748 31.1082H26.8207V33.2537H12.8748V31.1082Z" fill="#2D2D2D"/>
    <path d="M12.8748 43.9812H20.7414V45.9479H12.8748V43.9812Z" fill="#2D2D2D"/>
    <path d="M12.8748 48.2722H20.7414V50.2389H12.8748V48.2722Z" fill="#2D2D2D"/>
    <path d="M24.6753 22.5259H34.5086V24.4926H24.6753V22.5259Z" fill="#2D2D2D"/>
    <path d="M17.1658 26.8171H26.9991V28.7838H17.1658V26.8171Z" fill="#2D2D2D"/>
    <path d="M11.8032 27.5334C18.1541 27.5261 23.3603 22.4933 23.5825 16.1463C24.1136 16.5909 24.7998 16.8056 25.4893 16.7421C25.9957 17.349 26.7458 17.7 27.5365 17.7C28.3274 17.7 29.0773 17.349 29.5839 16.7421C30.3714 16.8127 31.1491 16.5304 31.7081 15.9715C32.2669 15.4127 32.5493 14.6348 32.4787 13.8474C33.0861 13.3408 33.4366 12.5908 33.4366 11.8C33.4366 11.0092 33.0861 10.2593 32.4787 9.7527C32.5493 8.96527 32.2669 8.18743 31.7081 7.62854C31.1491 7.06965 30.3714 6.78733 29.5839 6.85792C29.0773 6.25101 28.3274 5.90002 27.5365 5.90002C26.7458 5.90002 25.9957 6.25101 25.4893 6.85792C24.7018 6.78733 23.9239 7.06965 23.3651 7.62854C22.8061 8.18743 22.5239 8.96527 22.5944 9.7527C22.449 9.87274 22.3169 10.0086 22.2012 10.1579C19.473 5.06937 13.4641 2.70227 7.99854 4.56282C2.53305 6.42387 -0.783785 11.9657 0.159699 17.6616C1.10318 23.3576 6.02994 27.5343 11.8032 27.5334ZM24.0613 11.1509C24.3234 11.0577 24.5338 10.858 24.6404 10.6011C24.7464 10.3442 24.7392 10.0542 24.6201 9.80312C24.4925 9.53904 24.5457 9.22359 24.7527 9.01616C24.9601 8.80922 25.2755 8.75592 25.5396 8.88364C25.7908 9.00271 26.0807 9.00991 26.3377 8.90381C26.5945 8.79722 26.7943 8.58691 26.8874 8.32476C26.9849 8.04963 27.2446 7.86573 27.5365 7.86573C27.8285 7.86573 28.0883 8.04963 28.1857 8.32476C28.2789 8.58691 28.4786 8.79722 28.7355 8.90381C28.9923 9.00991 29.2824 9.00271 29.5339 8.88364C29.7975 8.75592 30.113 8.80922 30.3205 9.01616C30.5273 9.22359 30.5807 9.53904 30.4529 9.80312C30.3339 10.0542 30.3267 10.3442 30.4328 10.6011C30.5394 10.858 30.7497 11.0577 31.0119 11.1509C31.287 11.2484 31.4709 11.5081 31.4709 11.8C31.4709 12.0919 31.287 12.3518 31.0119 12.4492C30.7497 12.5424 30.5394 12.742 30.4328 12.999C30.3267 13.2558 30.3339 13.5458 30.4529 13.7974C30.5889 14.0601 30.5336 14.3813 30.3176 14.5839C30.114 14.7981 29.7943 14.8527 29.5306 14.7198C29.2795 14.6002 28.9895 14.593 28.7326 14.6996C28.4757 14.8058 28.276 15.016 28.1829 15.2782C28.0854 15.5533 27.8252 15.7372 27.5336 15.7372C27.2418 15.7372 26.982 15.5533 26.8845 15.2782C26.7914 15.0155 26.5912 14.8053 26.3338 14.6991C26.2143 14.6502 26.0865 14.6247 25.9573 14.6242C25.8114 14.6247 25.6674 14.6583 25.5362 14.7227C25.2727 14.8499 24.9573 14.7966 24.7498 14.5896C24.5428 14.3823 24.4896 14.0668 24.6172 13.8032C24.7363 13.552 24.7436 13.2621 24.6375 13.0053C24.5309 12.7478 24.3205 12.548 24.0584 12.455C23.7833 12.3579 23.5994 12.0977 23.5994 11.8058C23.5994 11.5143 23.7833 11.2541 24.0584 11.1571L24.0613 11.1509ZM11.8032 5.90002C17.2342 5.90002 21.6366 10.3025 21.6366 15.7333C21.6366 21.1643 17.2342 25.5667 11.8032 25.5667C6.37228 25.5667 1.96984 21.1643 1.96984 15.7333C1.97561 10.3049 6.37469 5.90578 11.8032 5.90002Z" fill="#C79217"/>
    <path d="M7.17462 21.3449C7.55873 21.7286 8.18101 21.7286 8.56513 21.3449L18.3984 11.5116L17.0079 10.1211L7.86988 19.2591L5.61511 17.0044L4.22461 18.3949L7.17462 21.3449Z" fill="#C79217"/>
</svg>
