<svg width="60" height="60" viewBox="0 0 60 60" fill="none" xmlns="http://www.w3.org/2000/svg">
    <path d="M10.9999 55.9999C11.3031 55.9999 11.5903 55.8617 11.7797 55.6249C12.2001 55.1049 22 42.808 22 36.9999C22 30.9247 17.0751 26 10.9999 26C4.92479 26 0 30.9247 0 36.9999C0 42.808 9.79977 55.1 10.2202 55.6249C10.4097 55.8617 10.6967 55.9999 10.9999 55.9999ZM10.9999 28C15.9682 28.0053 19.9945 32.0317 19.9999 36.9999C19.9999 40.8799 14.0888 49.3637 10.9999 53.3789C7.91111 49.3652 1.99999 40.8818 1.99999 36.9999C2.00537 32.0317 6.03172 28.0053 10.9999 28Z" fill="#C79217"/>
    <path d="M14.9999 35.9998C14.9999 33.7909 13.209 31.9998 11 31.9998C8.79102 31.9998 7 33.7909 7 35.9998C7 38.2088 8.79102 39.9998 11 39.9998C13.209 39.9998 14.9999 38.2088 14.9999 35.9998ZM8.99999 35.9998C8.99999 34.8953 9.8955 33.9998 11 33.9998C12.1044 33.9998 13 34.8953 13 35.9998C13 37.1043 12.1044 37.9997 11 37.9997C9.8955 37.9997 8.99999 37.1043 8.99999 35.9998Z" fill="#2D2D2D"/>
    <path d="M52 20.9999C52.2916 20.9999 52.5679 20.873 52.7578 20.6518C53.5 19.7909 60 12.1181 60 7.99998C60 3.58154 56.4185 0 52 0C47.5816 0 44 3.58154 44 7.99998C44 12.1181 50.5 19.7909 51.2422 20.6518C51.4321 20.873 51.7085 20.9999 52 20.9999ZM52 1.99999C55.3126 2.00342 57.9966 4.68749 58 7.99998C58 10.5341 54.1822 15.7559 52 18.4389C49.8169 15.7559 46.0001 10.5391 46.0001 7.99998C46.0035 4.68749 48.6875 2.00342 52 1.99999Z" fill="#C79217"/>
    <path d="M54.9997 6.99999C54.9997 5.34326 53.6565 4 51.9997 4C50.343 4 48.9998 5.34326 48.9998 6.99999C48.9998 8.65672 50.343 9.99998 51.9997 9.99998C53.6565 9.99998 54.9997 8.65672 54.9997 6.99999ZM50.9997 6.99999C50.9997 6.44775 51.4475 5.99999 51.9997 5.99999C52.552 5.99999 52.9998 6.44775 52.9998 6.99999C52.9998 7.55224 52.552 7.99999 51.9997 7.99999C51.4475 7.99999 50.9997 7.55224 50.9997 6.99999Z" fill="#2D2D2D"/>
    <path d="M38.7728 23.0007C38.2206 23.0007 37.7727 23.4486 37.7727 24.0009C37.7727 24.5531 38.2206 24.999 38.7728 24.999H40.8115C41.3637 24.999 41.8116 24.5531 41.8116 24.0009C41.8116 23.4486 41.3637 23.0007 40.8115 23.0007H38.7728Z" fill="black"/>
    <path d="M44.8866 23.0007C44.3339 23.0007 43.8865 23.4486 43.8865 24.0009C43.8865 24.5531 44.3339 24.999 44.8866 24.999H46.9253C47.4775 24.999 47.9254 24.5531 47.9254 24.0009C47.9254 23.4486 47.4775 23.0007 46.9253 23.0007H44.8866Z" fill="black"/>
    <path d="M51.0006 23.0007C50.4483 23.0007 50.0005 23.4486 50.0005 24.0009C50.0005 24.5531 50.4483 24.999 51.0006 24.999H52.0008C52.5531 24.999 53.0009 24.5531 53.0009 24.0009C53.0009 23.4486 52.5531 23.0007 52.0008 23.0007H51.0006Z" fill="black"/>
    <path d="M35.3966 24.6395C35.0078 24.6116 34.6226 24.8135 34.4348 25.183C34.0202 25.997 33.8968 26.9298 34.0853 27.8238C34.1815 28.2867 34.59 28.6189 35.0632 28.6198C35.133 28.6198 35.2014 28.6095 35.2693 28.5981C35.8093 28.4843 36.1559 27.9563 36.0431 27.4162C36.0148 27.2795 36.0012 27.1393 36.0007 26.9997C36.0003 26.6833 36.0734 26.3727 36.2169 26.0905C36.4674 25.5983 36.2731 24.9955 35.7805 24.7451C35.6574 24.682 35.5262 24.6489 35.3966 24.64L35.3966 24.6395Z" fill="black"/>
    <path d="M37.9827 28.9998C37.7185 29.0003 37.4657 29.1072 37.2796 29.2947C37.0936 29.4822 36.9907 29.7358 36.9927 29.9999C36.9958 30.5536 37.4451 31.0005 37.9989 31H40.0214C40.5737 31 41.0215 30.5522 41.0215 29.9999C41.0215 29.4477 40.5737 28.9998 40.0214 28.9998H37.9827Z" fill="black"/>
    <path d="M44.1007 28.9998C43.5485 28.9998 43.1006 29.4477 43.1006 29.9999C43.1006 30.5522 43.5485 31 44.1007 31H46.1373C46.6897 31 47.1375 30.5522 47.1375 29.9999C47.1375 29.4477 46.6897 28.9998 46.1373 28.9998H44.1007Z" fill="black"/>
    <path d="M50.2106 28.9998C49.6584 28.9998 49.2104 29.4477 49.2104 29.9999C49.2104 30.5522 49.6584 31 50.2106 31H52.2472C52.7995 31 53.2474 30.5522 53.2474 29.9999C53.2474 29.4477 52.7995 28.9998 52.2472 28.9998H50.2106Z" fill="black"/>
    <path d="M56.2317 29.2179C55.8429 29.2448 55.4876 29.4987 55.3528 29.8907C55.1731 30.4131 55.4526 30.9819 55.9751 31.1616C56.4595 31.3281 56.8921 31.6162 57.2339 31.998C57.4238 32.2095 57.6953 32.3294 57.9794 32.3294C58.3745 32.3299 58.7316 32.0977 58.8927 31.7374C59.0533 31.3771 58.9887 30.9564 58.725 30.6625C58.1543 30.0278 57.4304 29.5487 56.6237 29.2704C56.4931 29.2259 56.3613 29.2094 56.2317 29.2176V29.2179Z" fill="black"/>
    <path d="M58.733 34.1398C58.6035 34.1532 58.4759 34.1936 58.3592 34.257C58.1264 34.384 57.9535 34.5986 57.8783 34.853C57.7313 35.3432 57.4616 35.7877 57.0964 36.1461C56.7014 36.5328 56.6956 37.1654 57.0822 37.5604C57.469 37.9554 58.1016 37.9627 58.4966 37.5769C59.106 36.9797 59.5545 36.2369 59.7978 35.419C59.8735 35.1646 59.8434 34.8907 59.717 34.6573C59.59 34.4243 59.3754 34.2515 59.1209 34.1764C58.9937 34.1392 58.8625 34.1268 58.733 34.1403V34.1398Z" fill="black"/>
    <path d="M39.7567 37.0005C39.2044 37.0005 38.7566 37.4483 38.7566 38.0006C38.7566 38.5528 39.2044 38.9986 39.7567 38.9987H41.7994C42.3517 38.9987 42.7996 38.5528 42.7996 38.0006C42.7996 37.4483 42.3517 37.0005 41.7994 37.0005H39.7567Z" fill="black"/>
    <path d="M45.8705 37.0005C45.3182 37.0005 44.8704 37.4483 44.8704 38.0006C44.8704 38.5528 45.3182 38.9986 45.8705 38.9987H47.9071C48.4593 38.9987 48.9073 38.5528 48.9073 38.0006C48.9073 37.4483 48.4593 37.0005 47.9071 37.0005H45.8705Z" fill="black"/>
    <path d="M51.9826 37.0005C51.4303 37.0005 50.9824 37.4483 50.9824 38.0006C50.9824 38.5528 51.4303 38.9986 51.9826 38.9987H54.0212C54.5734 38.9987 55.0213 38.5528 55.0213 38.0006C55.0213 37.4483 54.5734 37.0005 54.0212 37.0005H51.9826Z" fill="black"/>
    <path d="M29.9654 38.5927C29.702 38.6196 29.4564 38.75 29.2865 38.9625C28.7509 39.6016 28.3658 40.3537 28.1631 41.1628C28.0982 41.4202 28.1396 41.6929 28.2763 41.9204C28.4125 42.1484 28.6346 42.3131 28.8925 42.3771C28.9716 42.3978 29.0535 42.4071 29.135 42.4071C29.594 42.4062 29.9939 42.0943 30.1048 41.6495C30.2342 41.1354 30.4762 40.6565 30.816 40.2493C31.0562 39.9769 31.131 39.595 31.01 39.2532C30.8888 38.9109 30.59 38.6611 30.2321 38.6006C30.1427 38.5861 30.0532 38.584 29.9654 38.5902V38.5927Z" fill="black"/>
    <path d="M30.0705 44.2663C29.8166 44.2342 29.5491 44.3014 29.331 44.4704C28.8945 44.8087 28.8169 45.436 29.1553 45.8726C29.6675 46.5298 30.32 47.0643 31.0666 47.4344C31.5594 47.6644 32.1453 47.4571 32.386 46.9697C32.6267 46.4825 32.4335 45.8912 31.9516 45.6402C31.4765 45.4034 31.0619 45.0646 30.7353 44.6462C30.5658 44.4279 30.3245 44.2982 30.0705 44.2663Z" fill="black"/>
    <path d="M35.5138 45.9998C34.9615 45.9998 34.5137 46.4477 34.5137 46.9999C34.5137 47.5522 34.9615 48 35.5138 48H37.5504C38.1032 48 38.5506 47.5522 38.5506 46.9999C38.5506 46.4477 38.1032 45.9998 37.5504 45.9998H35.5138Z" fill="black"/>
    <path d="M41.6254 45.9998C41.0732 45.9998 40.6252 46.4477 40.6252 46.9999C40.6252 47.5522 41.0732 48 41.6254 48H43.662C44.2142 48 44.6621 47.5522 44.6621 46.9999C44.6621 46.4477 44.2142 45.9998 43.662 45.9998H41.6254Z" fill="black"/>
    <path d="M47.7377 45.9998C47.1855 45.9998 46.7375 46.4477 46.7375 46.9999C46.7375 47.5522 47.1855 48 47.7377 48H48.0003C48.4944 48 48.9859 48.0735 49.4591 48.2162C49.5534 48.2452 49.6515 48.2586 49.7501 48.2586C50.2457 48.2592 50.6669 47.8962 50.7401 47.406C50.8128 46.9152 50.5155 46.4464 50.041 46.3028C49.3794 46.1027 48.6917 46.0023 48.0003 46.0038L47.7377 45.9998Z" fill="black"/>
    <path d="M53.1503 48.6507C52.8984 48.6031 52.6292 48.6506 52.4007 48.8083C51.9442 49.1203 51.8259 49.7434 52.138 50.2004C52.4573 50.6681 52.6957 51.1861 52.8392 51.7339C52.9174 52.0918 53.1842 52.379 53.5362 52.4815C53.8878 52.5839 54.2679 52.4815 54.5262 52.2249C54.784 51.9651 54.8777 51.586 54.7727 51.2349C54.5726 50.4624 54.2421 49.729 53.7928 49.0689C53.6368 48.8407 53.4022 48.6981 53.1503 48.6507Z" fill="black"/>
    <path d="M53.496 54.4598C53.1068 54.4495 52.7329 54.6725 52.5626 55.0498C52.3296 55.5668 52.0091 56.0403 51.617 56.45C51.3601 56.7063 51.2633 57.0813 51.3624 57.4299C51.4615 57.779 51.7413 58.046 52.0938 58.129C52.4469 58.2128 52.817 58.1 53.0616 57.832C53.6115 57.2588 54.0589 56.5942 54.385 55.8701C54.6107 55.3666 54.3871 54.7753 53.884 54.5487C53.7582 54.4918 53.6258 54.4629 53.496 54.4598Z" fill="black"/>
    <path d="M48.6449 57.957C48.4313 57.985 48.2157 58.0005 48.0003 57.9995H46.7416C46.1889 57.9995 45.7415 58.4474 45.7415 58.9996C45.7415 59.5519 46.1889 59.9997 46.7416 59.9997H48.0003C48.3011 59.9997 48.6011 59.9799 48.8994 59.9406C49.4473 59.8703 49.8346 59.3694 49.7642 58.8216C49.6937 58.275 49.1951 57.8883 48.6489 57.9565H48.6468L48.6449 57.957Z" fill="black"/>
    <path d="M10.9994 57.9995C10.4471 57.9995 9.99927 58.4474 9.99927 58.9996C9.99927 59.5519 10.4471 59.9998 10.9994 59.9998H11.9995C12.5518 59.9998 12.9997 59.5519 12.9997 58.9996C12.9997 58.4474 12.5518 57.9995 11.9995 57.9995H10.9994Z" fill="black"/>
    <path d="M16.1759 57.9995C15.6237 57.9995 15.1758 58.4474 15.1758 58.9996C15.1758 59.5519 15.6237 59.9998 16.1759 59.9998H18.2146C18.7668 59.9998 19.2147 59.5519 19.2147 58.9996C19.2147 58.4474 18.7668 57.9995 18.2146 57.9995H16.1759Z" fill="black"/>
    <path d="M22.2897 57.9995C21.7375 57.9995 21.2896 58.4474 21.2896 58.9996C21.2896 59.5519 21.7375 59.9998 22.2897 59.9998H24.3263C24.8785 59.9998 25.3264 59.5519 25.3264 58.9996C25.3264 58.4474 24.8785 57.9995 24.3263 57.9995H22.2897Z" fill="black"/>
    <path d="M28.3998 57.9995C27.8476 57.9995 27.3997 58.4474 27.3997 58.9996C27.3997 59.5519 27.8476 59.9998 28.3998 59.9998H30.4405C30.9927 59.9998 31.4406 59.5519 31.4406 58.9996C31.4406 58.4474 30.9927 57.9995 30.4405 57.9995H28.3998Z" fill="black"/>
    <path d="M34.5158 57.9995C33.9636 57.9995 33.5156 58.4474 33.5156 58.9996C33.5156 59.5519 33.9636 59.9998 34.5158 59.9998H36.5544C37.1067 59.9998 37.5545 59.5519 37.5545 58.9996C37.5545 58.4474 37.1067 57.9995 36.5544 57.9995H34.5158Z" fill="black"/>
    <path d="M40.6293 57.9995C40.077 57.9995 39.6292 58.4474 39.6292 58.9996C39.6292 59.5519 40.077 59.9998 40.6293 59.9998H42.6659C43.2181 59.9998 43.666 59.5519 43.666 58.9996C43.666 58.4474 43.2181 57.9995 42.6659 57.9995H40.6293Z" fill="black"/>
    <path d="M35.6829 39C36.2351 39 36.6829 38.5522 36.6829 38C36.6829 37.4477 36.2351 37 35.6829 37H33.6458C33.0935 37 32.6458 37.4477 32.6458 38C32.6458 38.5522 33.0935 39 33.6458 39H35.6829Z" fill="black"/>
</svg>
