<svg width="190" height="88" viewBox="0 0 190 88" fill="none" xmlns="http://www.w3.org/2000/svg">
    <rect x="1.10331" y="20.9464" width="181.549" height="65.4986" transform="rotate(-6.27488 1.10331 20.9464)" stroke="#0A327A" stroke-width="2"/>
    <path d="M20.5917 29.9168L19.9889 29.983L20.303 32.8398L19.5036 32.9277L18.8043 26.5677L19.6036 26.4798L19.912 29.2841L20.4012 29.2303L21.8838 26.2291L22.8797 26.1196L21.1998 29.4166L23.7276 32.4632L22.7491 32.5708L20.5917 29.9168Z" fill="#0B2C67"/>
    <path d="M28.0981 29.3301C28.1935 30.1979 28.0821 30.8866 27.7638 31.3961C27.4455 31.9056 26.9457 32.1978 26.2642 32.2727C25.609 32.3448 25.0657 32.1746 24.6343 31.7623C24.2054 31.3467 23.9379 30.7233 23.8318 29.8921L23.7002 28.6952C23.6067 27.8449 23.7213 27.1588 24.0442 26.637C24.3667 26.1123 24.8643 25.813 25.537 25.739C26.2067 25.6653 26.7534 25.8395 27.1771 26.2616C27.6034 26.6804 27.8679 27.3174 27.9708 28.1726L28.0981 29.3301ZM27.1762 28.3041C27.1023 27.6314 26.9367 27.1442 26.6795 26.8424C26.4249 26.5373 26.0705 26.4098 25.6162 26.4597C25.1765 26.5081 24.8613 26.7107 24.6707 27.0677C24.4829 27.4243 24.4232 27.926 24.4913 28.5728L24.6167 29.7129C24.6881 30.3623 24.8546 30.845 25.1163 31.1611C25.3809 31.4768 25.7375 31.61 26.1859 31.5607C26.6344 31.5114 26.9491 31.3177 27.13 30.9795C27.3109 30.6413 27.37 30.147 27.3074 29.4966L27.1762 28.3041Z" fill="#0B2C67"/>
    <path d="M33.6958 31.3672L32.8921 31.4555L32.5688 28.5158L30.0091 28.7972L30.3323 31.737L29.533 31.8249L28.8337 25.4649L29.633 25.377L29.9337 28.1115L32.4934 27.83L32.1927 25.0956L32.9965 25.0072L33.6958 31.3672Z" fill="#0B2C67"/>
    <path d="M37.9538 25.1606L36.2808 25.3445L36.9043 31.0144L36.1049 31.1023L35.4815 25.4324L33.8128 25.6159L33.737 24.9258L37.8779 24.4704L37.9538 25.1606Z" fill="#0B2C67"/>
    <path d="M39.9525 28.1592L40.2263 30.6491L39.4269 30.737L38.7276 24.377L40.7544 24.1541C41.3456 24.0891 41.8296 24.2157 42.2064 24.5338C42.583 24.849 42.8036 25.3008 42.8683 25.889C42.9355 26.5005 42.8258 26.9901 42.539 27.3576C42.2549 27.7219 41.8208 27.942 41.2368 28.018L39.9525 28.1592ZM39.8771 27.4735L41.1046 27.3385C41.4598 27.2994 41.7204 27.1632 41.8863 26.9298C42.0522 26.6964 42.1134 26.3817 42.0699 25.9856C42.0279 25.6042 41.8968 25.3091 41.6764 25.1005C41.4559 24.8919 41.1754 24.8064 40.8347 24.8438L39.6029 24.9793L39.8771 27.4735Z" fill="#0B2C67"/>
    <path d="M48.1481 27.1255C48.2435 27.9933 48.1321 28.6819 47.8138 29.1914C47.4955 29.7009 46.9957 29.9932 46.3142 30.0681C45.659 30.1401 45.1157 29.97 44.6843 29.5576C44.2554 29.1421 43.9879 28.5187 43.8818 27.6874L43.7502 26.4905C43.6567 25.6402 43.7713 24.9542 44.0942 24.4324C44.4167 23.9076 44.9143 23.6083 45.587 23.5343C46.2567 23.4607 46.8035 23.6349 47.2271 24.0569C47.6534 24.4757 47.9179 25.1127 48.0208 25.9679L48.1481 27.1255ZM47.2262 26.0995C47.1523 25.4268 46.9867 24.9395 46.7295 24.6377C46.4749 24.3327 46.1205 24.2051 45.6662 24.2551C45.2265 24.3034 44.9113 24.5061 44.7207 24.863C44.5329 25.2197 44.4732 25.7214 44.5413 26.3682L44.6667 27.5083C44.7381 28.1577 44.9046 28.6404 45.1663 28.9564C45.4309 29.2722 45.7875 29.4054 46.2359 29.3561C46.6844 29.3068 46.9991 29.113 47.18 28.7748C47.3609 28.4366 47.42 27.9423 47.3574 27.292L47.2262 26.0995Z" fill="#0B2C67"/>
    <path d="M52.8324 22.8261L53.5318 29.186L52.728 29.2744L52.1046 23.6046L50.3268 23.8001L50.5246 26.4839C50.5755 27.2682 50.5667 27.8719 50.4983 28.295C50.4299 28.7181 50.2972 29.0392 50.1002 29.2583C49.9033 29.4774 49.6275 29.6095 49.2728 29.6543L49.0282 29.6812L48.9528 28.9954L49.1004 28.9704C49.311 28.9295 49.4681 28.8297 49.5715 28.671C49.6745 28.5094 49.739 28.265 49.7649 27.938C49.7909 27.6109 49.7808 27.1169 49.7346 26.4559L49.4821 23.1945L52.8324 22.8261Z" fill="#0B2C67"/>
    <path d="M55.2298 25.1885L56.514 25.0473C57.0851 24.9874 57.5505 25.1057 57.9103 25.4022C58.2697 25.6957 58.4813 26.1322 58.545 26.7117C58.609 27.2941 58.4954 27.7752 58.2041 28.155C57.9155 28.5316 57.4814 28.7518 56.9019 28.8155L54.8445 29.0417L54.1451 22.6817L54.9445 22.5938L55.2298 25.1885ZM55.3057 25.8787L55.5684 28.268L56.8439 28.1278C57.1701 28.0919 57.4111 27.9519 57.567 27.7078C57.7229 27.4638 57.7807 27.1583 57.7403 26.7913C57.7006 26.4302 57.5791 26.1562 57.3758 25.9693C57.1751 25.7792 56.9117 25.7021 56.5856 25.7379L55.3057 25.8787Z" fill="#0B2C67"/>
    <path d="M64.5955 22.2311L62.9225 22.4151L63.5459 28.0849L62.7466 28.1728L62.1231 22.503L60.4545 22.6865L60.3786 21.9963L64.5196 21.541L64.5955 22.2311Z" fill="#0B2C67"/>
    <path d="M68.7943 24.5325L66.5447 24.7799L66.7926 27.0338L69.4134 26.7457L69.4888 27.4314L66.0686 27.8075L65.3693 21.4476L68.7458 21.0763L68.8217 21.7664L66.2445 22.0498L66.4693 24.0941L68.7189 23.8467L68.7943 24.5325Z" fill="#0B2C67"/>
    <path d="M71.7811 23.2094L72.71 20.6404L73.6491 20.5371L72.3404 23.8729L74.3834 26.8933L73.4355 26.9975L71.9396 24.6509L70.985 27.2669L70.0371 27.3712L71.3838 23.9781L69.3727 21.0073L70.3075 20.9046L71.7811 23.2094Z" fill="#0B2C67"/>
    <path d="M79.4265 26.3387L78.6227 26.4271L78.2995 23.4874L75.7398 23.7688L76.063 26.7086L75.2637 26.7965L74.5643 20.4365L75.3637 20.3486L75.6644 23.083L78.2241 22.8016L77.9234 20.0671L78.7272 19.9788L79.4265 26.3387Z" fill="#0B2C67"/>
    <path d="M83.3378 19.4718L84.1372 19.3839L84.8365 25.7439L84.0371 25.8318L83.4982 20.9307L81.5604 26.1041L80.7567 26.1925L80.0573 19.8325L80.8611 19.7441L81.4 24.6451L83.3378 19.4718Z" fill="#0B2C67"/>
    <path d="M89.3069 18.8154L90.0062 25.1754L89.2025 25.2638L88.9134 22.6342C88.4874 22.8343 88.0254 22.9617 87.5274 23.0165C86.9188 23.0834 86.4488 22.9774 86.1176 22.6985C85.7863 22.4195 85.5797 21.9618 85.498 21.3254L85.2708 19.2592L86.0745 19.1709L86.2969 21.1933C86.3488 21.6385 86.4625 21.9488 86.6379 22.124C86.8134 22.2992 87.0846 22.3666 87.4515 22.3263C87.9087 22.276 88.3706 22.1471 88.837 21.9397L88.5032 18.9038L89.3069 18.8154Z" fill="#0B2C67"/>
    <path d="M94.0577 21.7546L91.8082 22.002L92.056 24.2559L94.6769 23.9678L94.7523 24.6536L91.332 25.0296L90.6327 18.6697L94.0093 18.2984L94.0852 18.9885L91.508 19.2719L91.7328 21.3162L93.9823 21.0688L94.0577 21.7546Z" fill="#0B2C67"/>
    <path d="M99.4555 22.0939C99.4955 22.7792 99.3606 23.3216 99.0509 23.7211C98.744 24.1203 98.2732 24.3548 97.6384 24.4246C97.0006 24.4947 96.4674 24.3088 96.0385 23.8667C95.6094 23.4217 95.3492 22.7842 95.258 21.9542L95.1312 20.801C95.0402 19.974 95.1605 19.2991 95.4921 18.7764C95.8266 18.2533 96.3272 17.9551 96.9941 17.8818C97.6085 17.8142 98.1036 17.9469 98.4791 18.2799C98.8573 18.6097 99.0985 19.1152 99.2029 19.7963L98.3948 19.8852C98.3028 19.3706 98.153 19.0128 97.9452 18.8117C97.7374 18.6105 97.4457 18.5306 97.07 18.5719C96.6361 18.6196 96.3214 18.8266 96.1259 19.193C95.9301 19.5564 95.8682 20.0657 95.9402 20.7209L96.0685 21.8872C96.1392 22.5308 96.3013 23.0125 96.5545 23.3325C96.8107 23.6521 97.147 23.789 97.5635 23.7432C97.9799 23.6974 98.2685 23.561 98.4292 23.3341C98.5899 23.1072 98.6627 22.7234 98.6474 22.1828L99.4555 22.0939Z" fill="#0B2C67"/>
    <path d="M101.803 20.987L101.2 21.0533L101.514 23.91L100.715 23.9979L100.016 17.6379L100.815 17.55L101.123 20.3544L101.613 20.3006L103.095 17.2993L104.091 17.1898L102.411 20.4869L104.939 23.5335L103.96 23.641L101.803 20.987Z" fill="#0B2C67"/>
    <path d="M109.309 20.4003C109.405 21.2681 109.293 21.9568 108.975 22.4663C108.657 22.9758 108.157 23.268 107.476 23.343C106.82 23.415 106.277 23.2449 105.846 22.8325C105.417 22.4169 105.149 21.7935 105.043 20.9623L104.912 19.7654C104.818 18.9151 104.933 18.229 105.255 17.7072C105.578 17.1825 106.076 16.8832 106.748 16.8092C107.418 16.7356 107.965 16.9098 108.388 17.3318C108.815 17.7506 109.079 18.3876 109.182 19.2428L109.309 20.4003ZM108.388 19.3744C108.314 18.7017 108.148 18.2144 107.891 17.9126C107.636 17.6075 107.282 17.48 106.828 17.53C106.388 17.5783 106.073 17.781 105.882 18.1379C105.694 18.4945 105.634 18.9963 105.703 19.6431L105.828 20.7831C105.899 21.4325 106.066 21.9153 106.328 22.2313C106.592 22.547 106.949 22.6803 107.397 22.631C107.846 22.5816 108.16 22.3879 108.341 22.0497C108.522 21.7115 108.581 21.2172 108.519 20.5669L108.388 19.3744Z" fill="#0B2C67"/>
    <path d="M113.467 16.8574L110.964 17.1326L111.587 22.8024L110.784 22.8908L110.084 16.5308L113.391 16.1672L113.467 16.8574Z" fill="#0B2C67"/>
    <path d="M118.574 19.3816C118.67 20.2494 118.558 20.938 118.24 21.4475C117.922 21.9571 117.422 22.2493 116.741 22.3242C116.085 22.3963 115.542 22.2261 115.111 21.8138C114.682 21.3982 114.414 20.7748 114.308 19.9435L114.176 18.7467C114.083 17.8963 114.198 17.2103 114.52 16.6885C114.843 16.1638 115.341 15.8644 116.013 15.7905C116.683 15.7168 117.23 15.891 117.653 16.313C118.08 16.7318 118.344 17.3688 118.447 18.224L118.574 19.3816ZM117.653 18.3556C117.579 17.6829 117.413 17.1957 117.156 16.8939C116.901 16.5888 116.547 16.4613 116.092 16.5112C115.653 16.5596 115.338 16.7622 115.147 17.1192C114.959 17.4758 114.899 17.9775 114.968 18.6243L115.093 19.7644C115.164 20.4138 115.331 20.8965 115.593 21.2126C115.857 21.5283 116.214 21.6615 116.662 21.6122C117.111 21.5629 117.425 21.3691 117.606 21.0309C117.787 20.6927 117.846 20.1985 117.784 19.5481L117.653 18.3556Z" fill="#0B2C67"/>
    <path d="M125.739 19.2039C125.779 19.8891 125.644 20.4315 125.334 20.8311C125.028 21.2303 124.557 21.4648 123.922 21.5346C123.284 21.6047 122.751 21.4187 122.322 20.9766C121.893 20.5316 121.633 19.8941 121.541 19.0642L121.415 17.911C121.324 17.084 121.444 16.4091 121.776 15.8863C122.11 15.3632 122.611 15.065 123.278 14.9917C123.892 14.9241 124.387 15.0569 124.763 15.3899C125.141 15.7196 125.382 16.2251 125.486 16.9062L124.678 16.9951C124.586 16.4806 124.436 16.1228 124.229 15.9216C124.021 15.7205 123.729 15.6406 123.353 15.6819C122.92 15.7296 122.605 15.9366 122.409 16.3029C122.214 16.6663 122.152 17.1757 122.224 17.8309L122.352 18.9972C122.423 19.6407 122.585 20.1225 122.838 20.4424C123.094 20.762 123.431 20.8989 123.847 20.8531C124.263 20.8073 124.552 20.671 124.713 20.4441C124.873 20.2171 124.946 19.8333 124.931 19.2927L125.739 19.2039Z" fill="#0B2C67"/>
    <path d="M130.808 18.0365C130.903 18.9043 130.792 19.5929 130.473 20.1024C130.155 20.6119 129.655 20.9042 128.974 20.9791C128.318 21.0511 127.775 20.881 127.344 20.4686C126.915 20.0531 126.647 19.4297 126.541 18.5984L126.41 17.4015C126.316 16.5512 126.431 15.8652 126.754 15.3434C127.076 14.8186 127.574 14.5193 128.246 14.4453C128.916 14.3717 129.463 14.5459 129.887 14.9679C130.313 15.3867 130.577 16.0237 130.68 16.8789L130.808 18.0365ZM129.886 17.0105C129.812 16.3378 129.646 15.8505 129.389 15.5487C129.134 15.2437 128.78 15.1161 128.326 15.1661C127.886 15.2144 127.571 15.4171 127.38 15.774C127.192 16.1307 127.133 16.6324 127.201 17.2792L127.326 18.4193C127.398 19.0687 127.564 19.5514 127.826 19.8674C128.09 20.1832 128.447 20.3164 128.895 20.2671C129.344 20.2178 129.659 20.024 129.839 19.6858C130.02 19.3476 130.079 18.8533 130.017 18.203L129.886 17.0105Z" fill="#0B2C67"/>
    <path d="M136.009 18.0746C136.049 18.7599 135.914 19.3023 135.604 19.7018C135.297 20.101 134.826 20.3355 134.191 20.4053C133.554 20.4755 133.02 20.2895 132.592 19.8474C132.163 19.4024 131.902 18.7649 131.811 17.935L131.684 16.7818C131.593 15.9547 131.714 15.2798 132.045 14.7571C132.38 14.234 132.88 13.9358 133.547 13.8625C134.162 13.7949 134.657 13.9276 135.032 14.2606C135.41 14.5904 135.652 15.0959 135.756 15.777L134.948 15.8659C134.856 15.3514 134.706 14.9935 134.498 14.7924C134.29 14.5913 133.999 14.5113 133.623 14.5526C133.189 14.6004 132.874 14.8074 132.679 15.1737C132.483 15.5371 132.421 16.0464 132.493 16.7017L132.622 17.8679C132.692 18.5115 132.854 18.9933 133.108 19.3132C133.364 19.6328 133.7 19.7697 134.117 19.7239C134.533 19.6781 134.822 19.5418 134.982 19.3148C135.143 19.0879 135.216 18.7041 135.201 18.1635L136.009 18.0746Z" fill="#0B2C67"/>
    <path d="M140.192 13.9188L138.519 14.1028L139.142 19.7726L138.343 19.8605L137.719 14.1907L136.051 14.3741L135.975 13.684L140.116 13.2287L140.192 13.9188Z" fill="#0B2C67"/>
    <path d="M145.391 16.4329C145.486 17.3007 145.375 17.9894 145.056 18.4989C144.738 19.0084 144.238 19.3006 143.557 19.3755C142.902 19.4476 142.358 19.2774 141.927 18.8651C141.498 18.4495 141.231 17.8261 141.124 16.9949L140.993 15.798C140.899 14.9477 141.014 14.2616 141.337 13.7398C141.659 13.2151 142.157 12.9158 142.83 12.8418C143.499 12.7682 144.046 12.9424 144.47 13.3644C144.896 13.7832 145.161 14.4202 145.263 15.2754L145.391 16.4329ZM144.469 15.407C144.395 14.7343 144.229 14.247 143.972 13.9452C143.718 13.6401 143.363 13.5126 142.909 13.5625C142.469 13.6109 142.154 13.8135 141.963 14.1705C141.776 14.5271 141.716 15.0289 141.784 15.6757L141.909 16.8157C141.981 17.4651 142.147 17.9479 142.409 18.2639C142.674 18.5796 143.03 18.7129 143.479 18.6635C143.927 18.6142 144.242 18.4205 144.423 18.0823C144.604 17.7441 144.663 17.2498 144.6 16.5995L144.469 15.407Z" fill="#0B2C67"/>
    <path d="M149.599 18.6227L149.327 16.146L148.226 16.267L147.402 18.8643L146.55 18.958L147.496 16.0997C146.768 15.8527 146.358 15.3171 146.267 14.493C146.202 13.896 146.316 13.4104 146.611 13.0361C146.909 12.6586 147.357 12.4354 147.957 12.3665L149.704 12.1744L150.403 18.5343L149.599 18.6227ZM147.071 14.4046C147.113 14.789 147.243 15.0871 147.461 15.299C147.679 15.5079 147.961 15.5962 148.308 15.5639L149.252 15.4602L148.976 12.9529L148.041 13.0557C147.68 13.0954 147.417 13.2349 147.252 13.4741C147.089 13.713 147.029 14.0232 147.071 14.4046Z" fill="#0B2C67"/>
    <path d="M155.931 17.9265L155.127 18.0149L154.804 15.0751L152.244 15.3566L152.568 18.2963L151.768 18.3842L151.069 12.0243L151.868 11.9364L152.169 14.6708L154.729 14.3893L154.428 11.6549L155.232 11.5665L155.931 17.9265Z" fill="#0B2C67"/>
    <path d="M159.842 11.0596L160.642 10.9717L161.341 17.3316L160.542 17.4195L160.003 12.5185L158.065 17.6919L157.261 17.7802L156.562 11.4203L157.366 11.3319L157.905 16.2329L159.842 11.0596Z" fill="#0B2C67"/>
    <path d="M165.449 16.8799L165.177 14.4032L164.076 14.5242L163.252 17.1215L162.4 17.2151L163.346 14.3569C162.617 14.1099 162.208 13.5743 162.117 12.7502C162.052 12.1532 162.166 11.6676 162.461 11.2933C162.758 10.9157 163.207 10.6925 163.807 10.6237L165.554 10.4315L166.253 16.7915L165.449 16.8799ZM162.921 12.6618C162.963 13.0462 163.093 13.3443 163.311 13.5562C163.529 13.7651 163.811 13.8534 164.158 13.8211L165.102 13.7174L164.826 11.2101L163.891 11.3129C163.53 11.3526 163.267 11.492 163.102 11.7313C162.939 11.9702 162.879 12.2803 162.921 12.6618Z" fill="#0B2C67"/>
    <path d="M25.5125 36.774L23.8395 36.9579L24.4629 42.6278L23.6636 42.7157L23.0401 37.0458L21.3715 37.2293L21.2956 36.5392L25.4366 36.0838L25.5125 36.774Z" fill="#0B2C67"/>
    <path d="M27.5112 39.7727L27.785 42.2625L26.9856 42.3504L26.2863 35.9904L28.3131 35.7675C28.9042 35.7025 29.3882 35.8291 29.7651 36.1472C30.1416 36.4624 30.3623 36.9142 30.4269 37.5024C30.4942 38.114 30.3844 38.6035 30.0977 38.971C29.8136 39.3353 29.3795 39.5554 28.7954 39.6314L27.5112 39.7727ZM27.4358 39.0869L28.6632 38.9519C29.0185 38.9128 29.2791 38.7766 29.445 38.5432C29.6109 38.3098 29.6721 37.9951 29.6285 37.599C29.5866 37.2176 29.4554 36.9225 29.235 36.7139C29.0146 36.5053 28.734 36.4198 28.3933 36.4572L27.1615 36.5927L27.4358 39.0869Z" fill="#0B2C67"/>
    <path d="M34.039 39.8949L31.8898 40.1312L31.5788 41.8453L30.7575 41.9356L32.1069 35.3504L32.7927 35.275L35.545 41.4092L34.7238 41.4995L34.039 39.8949ZM32.0236 39.4179L33.7578 39.2273L32.5705 36.4312L32.0236 39.4179Z" fill="#0B2C67"/>
    <path d="M40.4832 40.8662L39.6795 40.9546L39.3563 38.0148L36.7966 38.2963L37.1198 41.236L36.3204 41.3239L35.6211 34.964L36.4205 34.8761L36.7211 37.6105L39.2809 37.3291L38.9802 34.5946L39.7839 34.5062L40.4832 40.8662Z" fill="#0B2C67"/>
    <path d="M45.5447 38.2672C45.5847 38.9525 45.4498 39.4949 45.14 39.8944C44.8332 40.2936 44.3624 40.5281 43.7275 40.5979C43.0898 40.668 42.5565 40.482 42.1277 40.0399C41.6986 39.5949 41.4384 38.9574 41.3471 38.1275L41.2203 36.9743C41.1294 36.1473 41.2497 35.4724 41.5812 34.9496C41.9157 34.4266 42.4164 34.1284 43.0833 34.055C43.6977 33.9875 44.1927 34.1202 44.5683 34.4532C44.9464 34.783 45.1877 35.2884 45.292 35.9696L44.4839 36.0584C44.392 35.5439 44.2421 35.1861 44.0343 34.985C43.8265 34.7838 43.5348 34.7039 43.1591 34.7452C42.7252 34.7929 42.4105 34.9999 42.215 35.3663C42.0192 35.7297 41.9573 36.239 42.0294 36.8942L42.1576 38.0605C42.2284 38.7041 42.3904 39.1858 42.6437 39.5057C42.8999 39.8253 43.2362 39.9623 43.6526 39.9165C44.069 39.8707 44.3576 39.7343 44.5183 39.5074C44.6791 39.2805 44.7518 38.8967 44.7366 38.3561L45.5447 38.2672Z" fill="#0B2C67"/>
    <path d="M50.897 39.7211L50.0933 39.8095L49.4698 34.1397L46.98 34.4135L47.6035 40.0833L46.8041 40.1712L46.1048 33.8112L50.1977 33.3612L50.897 39.7211Z" fill="#0B2C67"/>
    <path d="M56.08 36.4987C56.1754 37.3665 56.064 38.0551 55.7457 38.5646C55.4274 39.0742 54.9276 39.3664 54.2461 39.4413C53.5909 39.5133 53.0476 39.3432 52.6162 38.9309C52.1873 38.5153 51.9198 37.8919 51.8137 37.0606L51.6821 35.8638C51.5886 35.0134 51.7032 34.3274 52.0261 33.8056C52.3486 33.2809 52.8462 32.9815 53.5189 32.9076C54.1886 32.8339 54.7354 33.0081 55.159 33.4301C55.5853 33.8489 55.8498 34.4859 55.9527 35.3411L56.08 36.4987ZM55.1581 35.4727C55.0842 34.8 54.9186 34.3128 54.6614 34.0109C54.4068 33.7059 54.0524 33.5783 53.5981 33.6283C53.1584 33.6766 52.8432 33.8793 52.6526 34.2363C52.4648 34.5929 52.4051 35.0946 52.4732 35.7414L52.5986 36.8815C52.67 37.5309 52.8365 38.0136 53.0982 38.3297C53.3628 38.6454 53.7194 38.7786 54.1678 38.7293C54.6163 38.68 54.931 38.4862 55.1119 38.148C55.2928 37.8098 55.3519 37.3156 55.2893 36.6652L55.1581 35.4727Z" fill="#0B2C67"/>
    <path d="M58.0405 36.4157L58.3142 38.9056L57.5149 38.9935L56.8156 32.6335L58.8424 32.4106C59.4335 32.3456 59.9175 32.4722 60.2944 32.7903C60.6709 33.1055 60.8916 33.5573 60.9562 34.1455C61.0235 34.757 60.9137 35.2466 60.627 35.6141C60.3428 35.9784 59.9087 36.1985 59.3247 36.2745L58.0405 36.4157ZM57.9651 35.7299L59.1925 35.595C59.5478 35.5559 59.8084 35.4197 59.9743 35.1863C60.1402 34.9529 60.2014 34.6382 60.1578 34.2421C60.1159 33.8606 59.9847 33.5656 59.7643 33.357C59.5439 33.1484 59.2633 33.0628 58.9226 33.1003L57.6908 33.2357L57.9651 35.7299Z" fill="#0B2C67"/>
    <path d="M65.4814 32.3791L63.8084 32.5631L64.4319 38.2329L63.6325 38.3208L63.0091 32.651L61.3405 32.8344L61.2646 32.1443L65.4055 31.6889L65.4814 32.3791Z" fill="#0B2C67"/>
    <path d="M71.1174 37.4978L70.3136 37.5861L69.9904 34.6464L67.4307 34.9279L67.7539 37.8676L66.9546 37.9555L66.2552 31.5955L67.0546 31.5076L67.3553 34.2421L69.915 33.9606L69.6143 31.2262L70.4181 31.1378L71.1174 37.4978Z" fill="#0B2C67"/>
    <path d="M76.261 34.2796C76.3565 35.1474 76.245 35.8361 75.9267 36.3456C75.6085 36.8551 75.1086 37.1473 74.4272 37.2222C73.772 37.2943 73.2286 37.1241 72.7972 36.7118C72.3684 36.2962 72.1009 35.6728 71.9947 34.8416L71.8631 33.6447C71.7696 32.7944 71.8843 32.1083 72.2071 31.5865C72.5296 31.0618 73.0272 30.7625 73.6999 30.6885C74.3697 30.6149 74.9164 30.7891 75.3401 31.2111C75.7663 31.6299 76.0309 32.2669 76.1338 33.1221L76.261 34.2796ZM75.3392 33.2537C75.2652 32.581 75.0996 32.0937 74.8425 31.7919C74.5879 31.4868 74.2334 31.3593 73.7792 31.4092C73.3394 31.4576 73.0243 31.6602 72.8336 32.0172C72.6459 32.3738 72.5861 32.8756 72.6543 33.5224L72.7796 34.6624C72.851 35.3118 73.0176 35.7945 73.2793 36.1106C73.5439 36.4263 73.9004 36.5596 74.3489 36.5102C74.7974 36.4609 75.112 36.2672 75.2929 35.929C75.4739 35.5908 75.533 35.0965 75.4703 34.4461L75.3392 33.2537Z" fill="#0B2C67"/>
    <path d="M80.4185 30.7367L77.9155 31.0119L78.539 36.6817L77.7352 36.7701L77.0359 30.4101L80.3426 30.0465L80.4185 30.7367Z" fill="#0B2C67"/>
    <path d="M85.526 33.2609C85.6214 34.1287 85.51 34.8173 85.1917 35.3268C84.8734 35.8364 84.3736 36.1286 83.6921 36.2035C83.0369 36.2755 82.4936 36.1054 82.0622 35.6931C81.6333 35.2775 81.3658 34.6541 81.2597 33.8228L81.1281 32.626C81.0346 31.7756 81.1492 31.0896 81.4721 30.5678C81.7946 30.0431 82.2922 29.7437 82.9649 29.6698C83.6346 29.5961 84.1814 29.7703 84.605 30.1923C85.0313 30.6111 85.2958 31.2481 85.3987 32.1033L85.526 33.2609ZM84.6041 32.2349C84.5302 31.5622 84.3646 31.075 84.1074 30.7731C83.8528 30.4681 83.4984 30.3405 83.0441 30.3905C82.6044 30.4388 82.2892 30.6415 82.0986 30.9985C81.9108 31.3551 81.8511 31.8568 81.9192 32.5036L82.0446 33.6437C82.116 34.2931 82.2826 34.7758 82.5442 35.0919C82.8088 35.4076 83.1654 35.5408 83.6138 35.4915C84.0623 35.4422 84.377 35.2484 84.5579 34.9102C84.7388 34.572 84.7979 34.0778 84.7353 33.4274L84.6041 32.2349Z" fill="#0B2C67"/>
    <path d="M92.6906 33.0832C92.7306 33.7684 92.5957 34.3108 92.286 34.7103C91.9792 35.1096 91.5083 35.3441 90.8735 35.4139C90.2357 35.484 89.7025 35.298 89.2736 34.8559C88.8445 34.4109 88.5843 33.7734 88.4931 32.9435L88.3663 31.7903C88.2753 30.9633 88.3956 30.2884 88.7272 29.7656C89.0617 29.2425 89.5623 28.9443 90.2292 28.871C90.8437 28.8034 91.3387 28.9362 91.7142 29.2692C92.0924 29.5989 92.3336 30.1044 92.438 30.7855L91.6299 30.8744C91.5379 30.3599 91.3881 30.0021 91.1803 29.8009C90.9725 29.5998 90.6808 29.5198 90.3051 29.5612C89.8712 29.6089 89.5565 29.8159 89.361 30.1822C89.1652 30.5456 89.1033 31.0549 89.1753 31.7102L89.3036 32.8765C89.3743 33.52 89.5364 34.0018 89.7896 34.3217C90.0458 34.6413 90.3821 34.7782 90.7986 34.7324C91.215 34.6866 91.5036 34.5503 91.6643 34.3234C91.825 34.0964 91.8978 33.7126 91.8825 33.172L92.6906 33.0832Z" fill="#0B2C67"/>
    <path d="M94.4363 32.4138L94.7101 34.9036L93.9107 34.9915L93.2114 28.6315L95.2382 28.4086C95.8294 28.3436 96.3134 28.4702 96.6902 28.7883C97.0668 29.1035 97.2874 29.5553 97.3521 30.1435C97.4193 30.755 97.3096 31.2446 97.0228 31.6121C96.7387 31.9764 96.3046 32.1965 95.7205 32.2725L94.4363 32.4138ZM94.3609 31.728L95.5884 31.593C95.9436 31.5539 96.2042 31.4177 96.3701 31.1843C96.536 30.9509 96.5972 30.6362 96.5537 30.2401C96.5117 29.8587 96.3805 29.5636 96.1601 29.355C95.9397 29.1464 95.6592 29.0609 95.3185 29.0983L94.0867 29.2338L94.3609 31.728Z" fill="#0B2C67"/>
    <path d="M101.509 31.1807L99.2596 31.428L99.5074 33.682L102.128 33.3938L102.204 34.0796L98.7835 34.4557L98.0841 28.0957L101.461 27.7244L101.537 28.4146L98.9594 28.698L99.1842 30.7422L101.434 30.4949L101.509 31.1807Z" fill="#0B2C67"/>
    <path d="M107.246 32.8311L107.993 32.749L108.231 34.9952L107.431 35.0831L107.26 33.5236L103.503 33.9367L103.675 35.5005L102.872 35.5889L102.62 33.3398L103.087 33.2884C103.263 33.0068 103.386 32.5983 103.456 32.063C103.53 31.5273 103.549 30.9357 103.513 30.2883L103.333 27.5186L106.622 27.1569L107.246 32.8311ZM103.939 33.1947L106.442 32.9195L105.894 27.9355L104.186 28.1233L104.32 30.1864C104.359 30.8629 104.343 31.4527 104.271 31.9557C104.2 32.4558 104.089 32.8688 103.939 33.1947Z" fill="#0B2C67"/>
    <path d="M112.618 30.892C112.658 31.5772 112.523 32.1196 112.214 32.5192C111.907 32.9184 111.436 33.1529 110.801 33.2227C110.163 33.2928 109.63 33.1068 109.201 32.6647C108.772 32.2197 108.512 31.5822 108.421 30.7523L108.294 29.5991C108.203 28.7721 108.323 28.0972 108.655 27.5744C108.989 27.0513 109.49 26.7531 110.157 26.6798C110.771 26.6122 111.266 26.745 111.642 27.078C112.02 27.4077 112.261 27.9132 112.366 28.5943L111.558 28.6832C111.466 28.1687 111.316 27.8109 111.108 27.6097C110.9 27.4086 110.608 27.3287 110.233 27.37C109.799 27.4177 109.484 27.6247 109.289 27.991C109.093 28.3544 109.031 28.8638 109.103 29.519L109.231 30.6853C109.302 31.3288 109.464 31.8106 109.717 32.1305C109.974 32.4501 110.31 32.587 110.726 32.5412C111.143 32.4954 111.431 32.3591 111.592 32.1322C111.753 31.9052 111.825 31.5214 111.81 30.9808L112.618 30.892Z" fill="#0B2C67"/>
    <path d="M116.801 26.7361L115.128 26.9201L115.752 32.5899L114.952 32.6778L114.329 27.008L112.66 27.1915L112.584 26.5013L116.725 26.046L116.801 26.7361Z" fill="#0B2C67"/>
    <path d="M118.274 32.3125L117.575 25.9525L119.388 25.7532C119.967 25.6895 120.418 25.7829 120.74 26.0333C121.066 26.2834 121.259 26.691 121.321 27.2559C121.354 27.553 121.309 27.8232 121.185 28.0667C121.062 28.3101 120.88 28.5084 120.64 28.6615C120.941 28.7168 121.191 28.8706 121.39 29.1229C121.591 29.3748 121.713 29.6915 121.755 30.073C121.818 30.6438 121.71 31.1095 121.431 31.4703C121.155 31.8307 120.728 32.0427 120.148 32.1065L118.274 32.3125ZM118.747 29.2499L118.998 31.5388L120.09 31.4188C120.393 31.3855 120.623 31.26 120.778 31.0425C120.934 30.822 120.992 30.5312 120.952 30.1701C120.868 29.4042 120.503 29.0569 119.856 29.1279L118.747 29.2499ZM118.673 28.5772L119.699 28.4644C119.976 28.434 120.188 28.3163 120.337 28.1113C120.488 27.9061 120.547 27.6491 120.513 27.3404C120.474 26.991 120.369 26.7461 120.198 26.6058C120.026 26.4626 119.781 26.4085 119.464 26.4434L118.45 26.5548L118.673 28.5772Z" fill="#0B2C67"/>
    <path d="M125.852 29.7994L123.703 30.0357L123.392 31.7498L122.57 31.8401L123.92 25.2549L124.606 25.1795L127.358 31.3137L126.537 31.404L125.852 29.7994ZM123.837 29.3225L125.571 29.1318L124.383 26.3357L123.837 29.3225Z" fill="#0B2C67"/>
    <path d="M134.229 30.5582L133.425 30.6465L132.802 24.9767L130.312 25.2505L130.936 30.9203L130.136 31.0082L129.437 24.6482L133.53 24.1982L134.229 30.5582Z" fill="#0B2C67"/>
    <path d="M136.089 27.8337L136.363 30.3235L135.564 30.4114L134.864 24.0515L136.891 23.8286C137.482 23.7636 137.966 23.8902 138.343 24.2083C138.72 24.5235 138.94 24.9752 139.005 25.5635C139.072 26.175 138.963 26.6645 138.676 27.0321C138.392 27.3963 137.958 27.6165 137.374 27.6925L136.089 27.8337ZM136.014 27.1479L137.241 27.0129C137.597 26.9739 137.857 26.8377 138.023 26.6043C138.189 26.3709 138.25 26.0561 138.207 25.6601C138.165 25.2786 138.034 24.9836 137.813 24.775C137.593 24.5664 137.312 24.4808 136.971 24.5183L135.74 24.6537L136.014 27.1479Z" fill="#0B2C67"/>
    <path d="M144.285 26.7999C144.38 27.6677 144.269 28.3564 143.951 28.8659C143.632 29.3754 143.132 29.6676 142.451 29.7425C141.796 29.8146 141.252 29.6444 140.821 29.2321C140.392 28.8165 140.125 28.1931 140.019 27.3619L139.887 26.165C139.793 25.3147 139.908 24.6286 140.231 24.1068C140.553 23.5821 141.051 23.2828 141.724 23.2088C142.393 23.1352 142.94 23.3093 143.364 23.7314C143.79 24.1502 144.055 24.7872 144.158 25.6424L144.285 26.7999ZM143.363 25.7739C143.289 25.1013 143.123 24.614 142.866 24.3122C142.612 24.0071 142.257 23.8796 141.803 23.9295C141.363 23.9779 141.048 24.1805 140.857 24.5375C140.67 24.8941 140.61 25.3958 140.678 26.0426L140.803 27.1827C140.875 27.8321 141.041 28.3148 141.303 28.6309C141.568 28.9466 141.924 29.0798 142.373 29.0305C142.821 28.9812 143.136 28.7875 143.317 28.4493C143.498 28.1111 143.557 27.6168 143.494 26.9664L143.363 25.7739Z" fill="#0B2C67"/>
    <path d="M148.336 22.5702L149.135 22.4823L149.835 28.8423L149.035 28.9301L148.496 24.0291L146.558 29.2025L145.755 29.2909L145.055 22.9309L145.859 22.8425L146.398 27.7435L148.336 22.5702ZM148.245 20.9798C148.284 21.3321 148.194 21.6294 147.976 21.8714C147.761 22.1103 147.458 22.2511 147.068 22.2941C146.677 22.337 146.35 22.264 146.084 22.075C145.819 21.8861 145.667 21.6169 145.628 21.2675L146.288 21.195C146.31 21.3988 146.383 21.5529 146.507 21.6572C146.63 21.7586 146.798 21.7976 147.01 21.7742C147.214 21.7518 147.367 21.6776 147.468 21.5515C147.572 21.4252 147.612 21.2586 147.59 21.0518L148.245 20.9798Z" fill="#0B2C67"/>
    <path d="M155.274 27.5501L156.021 27.4679L156.259 29.7141L155.46 29.802L155.288 28.2426L151.532 28.6556L151.704 30.2194L150.9 30.3078L150.648 28.0587L151.115 28.0073C151.291 27.7257 151.414 27.3173 151.485 26.7819C151.558 26.2462 151.577 25.6547 151.542 25.0073L151.361 22.2375L154.65 21.8759L155.274 27.5501ZM151.967 27.9137L154.47 27.6384L153.922 22.6544L152.214 22.8422L152.348 24.9053C152.387 25.5818 152.371 26.1716 152.3 26.6746C152.228 27.1747 152.117 27.5877 151.967 27.9137Z" fill="#0B2C67"/>
    <path d="M159.711 24.781L157.461 25.0283L157.709 27.2823L160.33 26.9941L160.406 27.6799L156.985 28.056L156.286 21.696L159.663 21.3247L159.738 22.0149L157.161 22.2983L157.386 24.3425L159.636 24.0952L159.711 24.781Z" fill="#0B2C67"/>
    <path d="M165.505 27.1191L164.702 27.2075L164.378 24.2678L161.819 24.5492L162.142 27.489L161.343 27.5769L160.643 21.2169L161.443 21.129L161.743 23.8634L164.303 23.582L164.002 20.8475L164.806 20.7591L165.505 27.1191Z" fill="#0B2C67"/>
    <path d="M14.9588 57.81L16.179 59.6464L15.5639 59.7141L14.1721 57.9411L14.1618 57.848L15.1346 55.8101L15.7497 55.7424L14.9588 57.81ZM16.313 57.6611L17.5332 59.4975L16.9181 59.5652L15.5263 57.7922L15.516 57.6991L16.4888 55.6612L17.1039 55.5935L16.313 57.6611Z" fill="#0A327A"/>
    <path d="M30.8639 54.0706L32.2562 55.8484L32.2665 55.9416L31.2937 57.9795L30.669 58.0482L31.4605 55.9856L30.2392 54.1393L30.8639 54.0706ZM32.3087 53.9117L33.701 55.6896L33.7113 55.7827L32.7385 57.8206L32.1139 57.8893L32.9053 55.8267L31.684 53.9804L32.3087 53.9117Z" fill="#0A327A"/>
    <path d="M88.7387 52.4175L84.8573 52.8443L84.7855 52.192L86.4678 49.2769C86.721 48.8288 86.8902 48.466 86.9755 48.1886C87.0637 47.9076 87.0914 47.6183 87.0587 47.3207C87.017 46.9414 86.8973 46.6435 86.6998 46.427C86.5022 46.2104 86.2636 46.1175 85.9838 46.1483C85.631 46.1871 85.3715 46.343 85.2052 46.6161C85.0418 46.8856 84.986 47.2558 85.0378 47.7266L84.1937 47.8194C84.1215 47.1622 84.2379 46.6116 84.543 46.1677C84.8481 45.7238 85.3011 45.4689 85.9019 45.4028C86.455 45.342 86.9098 45.469 87.2661 45.7839C87.6221 46.0956 87.8319 46.5407 87.8956 47.1195C87.9732 47.8257 87.7075 48.7005 87.0983 49.7437L85.782 51.9931L88.6573 51.6769L88.7387 52.4175Z" fill="#0A327A"/>
    <path d="M93.0578 48.8601C93.1736 49.9129 93.1108 50.7173 92.8695 51.2733C92.6278 51.8261 92.1875 52.1376 91.5486 52.2078C90.9287 52.276 90.4386 52.0767 90.0785 51.61C89.7183 51.1433 89.4766 50.4088 89.3536 49.4063L89.2187 48.1802C89.104 47.1372 89.1679 46.3426 89.4103 45.7964C89.6558 45.2498 90.0965 44.9416 90.7323 44.8717C91.3585 44.8028 91.8478 44.9955 92.2002 45.4499C92.5558 45.9039 92.7958 46.6237 92.9203 47.6094L93.0578 48.8601ZM92.0773 47.712C91.9943 46.9567 91.8521 46.4098 91.6508 46.0712C91.4491 45.7294 91.1703 45.578 90.8142 45.6172C90.4677 45.6553 90.2328 45.8598 90.1095 46.2307C89.9859 46.5984 89.9599 47.1374 90.0315 47.8476L90.1933 49.319C90.276 50.071 90.4225 50.6274 90.6326 50.9882C90.8425 51.3457 91.1206 51.5053 91.4671 51.4672C91.8105 51.4295 92.0436 51.2235 92.1665 50.8493C92.2895 50.4751 92.3138 49.9214 92.2397 49.1883L92.0773 47.712Z" fill="#0A327A"/>
    <path d="M111.603 45.292L109.681 45.5033L110.182 50.0596L109.334 50.153L108.75 44.8462L111.52 44.5416L111.603 45.292Z" fill="#0A327A"/>
    <path d="M112.896 49.2798C112.878 49.1228 112.909 48.9872 112.986 48.8727C113.067 48.758 113.198 48.6906 113.379 48.6707C113.56 48.6508 113.703 48.6881 113.806 48.7826C113.913 48.8767 113.975 49.0023 113.992 49.1592C114.009 49.3096 113.975 49.4407 113.891 49.5526C113.81 49.6641 113.679 49.7298 113.498 49.7497C113.316 49.7696 113.174 49.734 113.071 49.6428C112.971 49.5512 112.912 49.4302 112.896 49.2798Z" fill="#0A327A"/>
    <path d="M18.1803 61.1687L30.3725 59.8281L30.4264 60.3185L18.2342 61.6592L18.1803 61.1687ZM34.459 59.3787L84.4025 53.8871L84.4564 54.3775L34.5129 59.8692L34.459 59.3787ZM94.0584 52.8253L106.499 51.4574L106.553 51.9478L94.1124 53.3158L94.0584 52.8253Z" fill="#0A327A"/>
    <path d="M136.73 47.1235L135.924 47.2122L135.712 45.2876C135.429 45.4124 135.134 45.4917 134.826 45.5256C134.324 45.5807 133.916 45.4549 133.601 45.1482C133.286 44.8381 133.089 44.3694 133.011 43.7421L132.832 42.1151L133.634 42.0269L133.816 43.6787C133.92 44.4638 134.229 44.8281 134.743 44.7716C135.045 44.7384 135.34 44.6557 135.628 44.5237L135.333 41.845L136.14 41.7564L136.73 47.1235Z" fill="#0A327A"/>
    <path d="M140.522 46.7065C140.461 46.5961 140.405 46.4048 140.354 46.1327C140.12 46.6202 139.783 46.8883 139.342 46.9368C138.898 46.9856 138.535 46.8882 138.255 46.6446C137.977 46.3974 137.811 46.0257 137.756 45.5297C137.696 44.984 137.818 44.5322 138.121 44.1743C138.424 43.8163 138.869 43.6016 139.458 43.5302L140.047 43.4655L139.984 42.895C139.949 42.5742 139.859 42.3532 139.714 42.2319C139.569 42.1106 139.364 42.0646 139.098 42.0938C138.856 42.1204 138.669 42.2213 138.535 42.3967C138.401 42.5687 138.348 42.7754 138.374 43.0168L137.572 43.105C137.542 42.8305 137.587 42.5611 137.708 42.2968C137.828 42.0292 138.006 41.8105 138.241 41.6408C138.476 41.471 138.748 41.3692 139.056 41.3353C139.557 41.2802 139.953 41.3756 140.243 41.6215C140.536 41.8638 140.714 42.2458 140.777 42.7677L141.075 45.476C141.123 45.8891 141.214 46.2422 141.347 46.5355L141.356 46.6149L140.522 46.7065ZM139.376 46.1247C139.573 46.1031 139.753 46.023 139.918 45.8843C140.083 45.7457 140.197 45.5826 140.259 45.3951L140.118 44.1153L139.665 44.1651C139.285 44.2136 138.995 44.3409 138.795 44.547C138.594 44.7498 138.511 45.0133 138.547 45.3373C138.58 45.6416 138.66 45.857 138.787 45.9836C138.914 46.1069 139.11 46.1539 139.376 46.1247Z" fill="#0A327A"/>
    <path d="M144.08 45.6577C144.346 45.6285 144.549 45.5158 144.689 45.3196C144.829 45.1201 144.889 44.8525 144.867 44.5169L145.624 44.4337C145.662 44.9515 145.542 45.3982 145.262 45.7737C144.985 46.1456 144.618 46.3566 144.162 46.4067C143.555 46.4735 143.069 46.3161 142.703 45.9346C142.339 45.5495 142.112 44.9436 142.021 44.1169L141.956 43.5266C141.867 42.7164 141.958 42.0839 142.229 41.629C142.5 41.1708 142.939 40.9084 143.546 40.8416C144.047 40.7865 144.464 40.9164 144.795 41.2314C145.129 41.5461 145.338 42.0034 145.422 42.6033L144.666 42.6865C144.604 42.2916 144.484 42.0036 144.305 41.8225C144.129 41.641 143.904 41.5654 143.629 41.5956C143.272 41.6348 143.022 41.7928 142.878 42.0697C142.734 42.3433 142.691 42.773 142.75 43.359L142.825 44.0436C142.894 44.6752 143.028 45.1123 143.226 45.355C143.427 45.5973 143.712 45.6982 144.08 45.6577Z" fill="#0A327A"/>
    <path d="M147.024 46.6192L146.345 46.6939L147.797 38.5969L148.473 38.5227L147.024 46.6192Z" fill="#0A327A"/>
    <path d="M163.097 42.9943L163.954 38.698L164.951 38.5884L165.541 43.9556L164.744 44.0432L164.337 40.3428L163.507 44.1792L162.959 44.2395L161.278 40.5888L161.694 44.3785L160.897 44.4662L160.307 39.099L161.34 38.9854L163.097 42.9943Z" fill="#0A327A"/>
    <path d="M168.884 38.156L169.681 38.0683L170.271 43.4354L169.474 43.5231L169.043 39.6094L167.698 43.7184L166.896 43.8066L166.306 38.4394L167.108 38.3513L167.538 42.27L168.884 38.156Z" fill="#0A327A"/>
    <path d="M174.997 42.9158L174.199 43.0035L173.947 40.7118L172.18 40.9061L172.432 43.1978L171.626 43.2865L171.036 37.9193L171.842 37.8306L172.098 40.1571L173.865 39.9628L173.609 37.6364L174.407 37.5487L174.997 42.9158Z" fill="#0A327A"/>
    <path d="M176.276 42.2882C176.258 42.1295 176.286 41.9925 176.359 41.8774C176.435 41.762 176.559 41.6948 176.731 41.6759C176.903 41.6569 177.039 41.6955 177.138 41.7917C177.241 41.8876 177.3 42.0149 177.318 42.1736C177.335 42.3257 177.303 42.458 177.224 42.5705C177.148 42.6827 177.023 42.7482 176.851 42.7671C176.679 42.7861 176.544 42.7491 176.445 42.6562C176.349 42.563 176.293 42.4403 176.276 42.2882Z" fill="#0A327A"/>
    <path d="M118.154 50.1701L133.056 48.5316L133.111 49.0276L118.209 50.6662L118.154 50.1701ZM149.688 46.7027L160.331 45.5325L160.386 46.0285L149.743 47.1988L149.688 46.7027Z" fill="#0A327A"/>
    <line x1="15.6328" y1="73.8479" x2="72.6119" y2="67.5827" stroke="#0A327A" stroke-width="0.75"/>
    <line x1="76.8491" y1="67.1167" x2="178.877" y2="55.8981" stroke="#0A327A" stroke-width="0.75"/>
    <path d="M34.1508 76.5364C34.0956 76.0344 34.1117 75.5547 34.199 75.0972C34.2864 74.6397 34.4363 74.2305 34.6487 73.8698C34.7779 73.652 34.9073 73.4885 35.0368 73.3792L35.176 73.7187C34.9703 73.9643 34.8181 74.3175 34.7195 74.7782C34.6206 75.237 34.5943 75.7382 34.6405 76.2818L34.6632 76.5149C34.7374 77.1893 34.8977 77.7747 35.1443 78.2711C35.3307 78.6442 35.5391 78.9258 35.7694 79.1157L35.7045 79.4515C35.5152 79.3521 35.3146 79.1763 35.1027 78.9243C34.5734 78.2903 34.2561 77.4943 34.1508 76.5364Z" fill="#0A327A"/>
    <path d="M38.7224 77.7526L38.1937 77.8108L37.7835 74.0806L36.1455 74.2607L36.5556 77.9909L36.0297 78.0487L35.5696 73.8645L38.2623 73.5684L38.7224 77.7526Z" fill="#0A327A"/>
    <path d="M39.0295 75.9999C38.9798 75.5478 39.0497 75.1785 39.2393 74.892C39.4305 74.6034 39.7062 74.4393 40.0664 74.3997C40.4266 74.3601 40.73 74.4566 40.9766 74.6893C41.2252 74.9218 41.3766 75.259 41.4311 75.701L41.4671 76.0286C41.5166 76.4788 41.4466 76.8471 41.257 77.1336C41.0675 77.4201 40.7907 77.5834 40.4267 77.6234C40.0665 77.663 39.7632 77.5674 39.5168 77.3366C39.2723 77.1056 39.1223 76.7731 39.0668 76.339L39.0295 75.9999ZM39.5704 76.2371C39.6056 76.5571 39.6955 76.8022 39.8403 76.9724C39.9868 77.1405 40.1663 77.2128 40.379 77.1895C40.8273 77.1402 41.0225 76.791 40.9647 76.142L40.9262 75.7914C40.8912 75.4733 40.8004 75.2293 40.6537 75.0593C40.5069 74.8874 40.3271 74.8131 40.1144 74.8365C39.9056 74.8594 39.7482 74.9708 39.6422 75.1705C39.5379 75.3681 39.5031 75.625 39.5378 75.9411L39.5704 76.2371Z" fill="#0A327A"/>
    <path d="M41.7516 76.9804L41.8799 76.7452C42.0168 76.4742 42.0707 76.0911 42.0415 75.596L41.9373 74.2521L43.6731 74.0613L43.9673 76.7367L44.3294 76.6969L44.4776 78.0447L43.9689 78.1006L43.8684 77.1868L42.1011 77.3811L42.2015 78.295L41.69 78.3512L41.5447 77.0031L41.7516 76.9804ZM42.3177 76.9181L43.4615 76.7923L43.2213 74.6083L42.4856 74.6892L42.5432 75.4507C42.5829 76.0591 42.5078 76.5482 42.3177 76.9181Z" fill="#0A327A"/>
    <path d="M46.8825 76.8554L46.3767 76.911L46.0832 74.2412L44.9596 74.3648L45.2531 77.0345L44.7416 77.0908L44.3997 73.9814L46.5406 73.7459L46.8825 76.8554Z" fill="#0A327A"/>
    <path d="M48.7702 73.5008L49.276 73.4452L49.6179 76.5546L49.1121 76.6102L48.8628 74.3428L47.9856 76.7341L47.4769 76.79L47.135 73.6806L47.6437 73.6247L47.8933 75.8949L48.7702 73.5008Z" fill="#0A327A"/>
    <path d="M51.2055 75.999C51.374 75.9805 51.5034 75.9139 51.5936 75.7993C51.6835 75.6827 51.7227 75.5272 51.711 75.3326L52.1909 75.2799C52.2123 75.58 52.1332 75.8398 51.9537 76.0592C51.776 76.2766 51.5425 76.4011 51.2532 76.4329C50.8681 76.4753 50.5607 76.3869 50.3311 76.1679C50.1032 75.9467 49.9629 75.5966 49.9102 75.1176L49.8726 74.7757C49.821 74.3063 49.8824 73.9389 50.0568 73.6734C50.231 73.4061 50.5107 73.2512 50.8958 73.2089C51.2138 73.1739 51.4768 73.2468 51.6847 73.4275C51.8946 73.6081 52.0245 73.872 52.0743 74.2194L51.5944 74.2722C51.5576 74.0436 51.4831 73.8773 51.3708 73.7733C51.2605 73.6691 51.1181 73.6265 50.9438 73.6457C50.7177 73.6706 50.5583 73.7637 50.4655 73.9252C50.3725 74.0847 50.3428 74.3342 50.3762 74.6737L50.4198 75.0703C50.4601 75.4362 50.5422 75.689 50.6661 75.8285C50.7919 75.9679 50.9717 76.0247 51.2055 75.999Z" fill="#0A327A"/>
    <path d="M52.9478 74.1263L53.5886 74.0558C53.8858 74.0251 54.1324 74.0901 54.3285 74.2508C54.5245 74.4115 54.6396 74.647 54.6737 74.9574C54.7079 75.2678 54.6462 75.5266 54.4886 75.734C54.3309 75.9394 54.1056 76.0592 53.8127 76.0933L52.666 76.2194L52.3241 73.11L52.8299 73.0544L52.9478 74.1263ZM52.9955 74.5602L53.1241 75.7299L53.7563 75.6604C53.9058 75.6439 54.0161 75.5804 54.0873 75.4698C54.1604 75.359 54.1871 75.2135 54.1673 75.0335C54.1479 74.8572 54.091 74.719 53.9966 74.6189C53.9023 74.5187 53.7831 74.4756 53.6392 74.4895L52.9955 74.5602Z" fill="#0A327A"/>
    <path d="M56.0828 74.1539C56.1768 75.0083 56.0683 75.7852 55.7574 76.4845C55.5892 76.8597 55.4022 77.1343 55.1964 77.3082L55.0601 76.9945C55.276 76.7361 55.4316 76.3613 55.5269 75.8699C55.622 75.3767 55.6403 74.8463 55.5817 74.2788L55.5704 74.1753C55.4903 73.4473 55.2989 72.8091 54.9963 72.2607C54.8295 71.961 54.6521 71.7314 54.4639 71.5717L54.5287 71.2359C54.7551 71.3545 54.9847 71.5649 55.2176 71.8669C55.6952 72.4892 55.9836 73.2515 56.0828 74.1539Z" fill="#0A327A"/>
    <path d="M106.171 68.6173C106.115 68.1154 106.131 67.6356 106.219 67.1781C106.306 66.7206 106.456 66.3115 106.668 65.9507C106.798 65.7329 106.927 65.5694 107.057 65.4601L107.196 65.7997C106.99 66.0453 106.838 66.3984 106.739 66.8591C106.64 67.3179 106.614 67.8191 106.66 68.3628L106.683 68.5959C106.757 69.2702 106.918 69.8556 107.164 70.3521C107.351 70.7252 107.559 71.0067 107.789 71.1966L107.724 71.5324C107.535 71.433 107.334 71.2573 107.122 71.0052C106.593 70.3712 106.276 69.5752 106.171 68.6173Z" fill="#0A327A"/>
    <path d="M109.42 66.1688L109.492 66.1609C109.751 66.1344 109.997 66.1819 110.232 66.3035C110.468 66.4249 110.662 66.6072 110.813 66.8504C110.963 67.0917 111.056 67.3704 111.091 67.6866C111.126 68.0046 111.096 68.2997 111.002 68.5718C110.908 68.842 110.759 69.0629 110.557 69.2344C110.355 69.404 110.122 69.5042 109.86 69.535L109.791 69.5426L109.853 70.1058L109.344 70.1618L109.282 69.5985L109.213 69.6061C108.949 69.6352 108.7 69.5889 108.465 69.4673C108.231 69.3457 108.038 69.1624 107.887 68.9172C107.736 68.672 107.643 68.3914 107.608 68.0753C107.573 67.7573 107.603 67.4622 107.697 67.1901C107.793 66.9177 107.942 66.6978 108.142 66.5303C108.345 66.3607 108.579 66.2613 108.845 66.232L108.911 66.2247L108.846 65.6327L109.355 65.5768L109.42 66.1688ZM108.89 66.6662C108.607 66.6974 108.395 66.8322 108.254 67.0707C108.115 67.3089 108.068 67.6253 108.111 68.02C108.154 68.4127 108.269 68.7104 108.454 68.9131C108.639 69.1138 108.874 69.1994 109.16 69.1699L109.234 69.1617L108.959 66.6586L108.89 66.6662ZM109.468 66.6027L109.743 69.1058L109.809 69.0985C110.095 69.0671 110.306 68.9305 110.442 68.6886C110.58 68.4466 110.628 68.1311 110.585 67.7422C110.543 67.3628 110.431 67.0708 110.247 66.866C110.065 66.6592 109.834 66.5682 109.554 66.5932L109.468 66.6027Z" fill="#0A327A"/>
    <path d="M111.674 69.449C111.664 69.357 111.682 69.2774 111.729 69.2102C111.778 69.1428 111.857 69.1031 111.966 69.0911C112.075 69.0791 112.161 69.1007 112.223 69.1559C112.287 69.2109 112.325 69.2844 112.335 69.3763C112.344 69.4644 112.324 69.5414 112.273 69.6071C112.224 69.6726 112.145 69.7113 112.036 69.7233C111.926 69.7353 111.841 69.7147 111.779 69.6614C111.718 69.6079 111.683 69.5371 111.674 69.449Z" fill="#0A327A"/>
    <path d="M114.75 65.1581L115.276 65.1003L115.736 69.2845L115.21 69.3423L114.855 66.1179L113.581 69.5215L113.052 69.5796L112.592 65.3954L113.12 65.3373L113.475 68.5616L114.75 65.1581Z" fill="#0A327A"/>
    <path d="M116.34 68.9359C116.33 68.844 116.348 68.7644 116.395 68.6972C116.444 68.6298 116.523 68.59 116.632 68.578C116.741 68.566 116.827 68.5876 116.889 68.6428C116.954 68.6978 116.991 68.7713 117.001 68.8632C117.011 68.9514 116.99 69.0283 116.939 69.094C116.89 69.1595 116.811 69.1983 116.702 69.2103C116.592 69.2223 116.507 69.2016 116.445 69.1484C116.384 69.0949 116.35 69.0241 116.34 68.9359Z" fill="#0A327A"/>
    <path d="M120.227 67.0456C120.29 67.6165 120.216 68.0695 120.007 68.4047C119.797 68.7399 119.469 68.9322 119.02 68.9815C118.589 69.0289 118.232 68.917 117.948 68.6457C117.666 68.3723 117.49 67.9621 117.42 67.4153L117.333 66.6279C117.272 66.0684 117.347 65.6171 117.56 65.2738C117.772 64.9286 118.099 64.7316 118.542 64.683C118.982 64.6345 119.342 64.7491 119.621 65.0268C119.901 65.3023 120.075 65.7214 120.143 66.284L120.227 67.0456ZM119.62 66.3706C119.572 65.928 119.463 65.6075 119.293 65.4089C119.126 65.2082 118.893 65.1243 118.594 65.1572C118.305 65.189 118.097 65.3223 117.972 65.5571C117.848 65.7917 117.809 66.1218 117.854 66.5474L117.936 67.2974C117.983 67.7246 118.093 68.0422 118.265 68.2502C118.439 68.4579 118.674 68.5455 118.969 68.5131C119.264 68.4806 119.471 68.3532 119.59 68.1307C119.709 67.9082 119.748 67.583 119.707 67.1551L119.62 66.3706Z" fill="#0A327A"/>
    <path d="M120.604 68.4671C120.594 68.3751 120.612 68.2956 120.659 68.2283C120.708 68.1609 120.787 68.1212 120.896 68.1092C121.005 68.0972 121.091 68.1188 121.153 68.174C121.217 68.229 121.254 68.3025 121.265 68.3944C121.274 68.4825 121.254 68.5595 121.203 68.6252C121.154 68.6907 121.075 68.7294 120.965 68.7414C120.856 68.7534 120.77 68.7328 120.708 68.6795C120.648 68.626 120.613 68.5552 120.604 68.4671Z" fill="#0A327A"/>
    <path d="M124.758 66.9516L124.47 66.9832L124.616 68.308L124.107 68.364L123.765 65.2546L124.274 65.1986L124.419 66.5148L124.672 66.487L125.375 65.0776L125.981 65.0109L125.106 66.605L126.398 68.1121L125.76 68.1823L124.758 66.9516Z" fill="#0A327A"/>
    <path d="M126.265 66.4078C126.215 65.9556 126.285 65.5863 126.475 65.2998C126.666 65.0112 126.942 64.8471 127.302 64.8075C127.662 64.7679 127.966 64.8645 128.212 65.0972C128.461 65.3297 128.612 65.6669 128.667 66.1088L128.703 66.4364C128.752 66.8866 128.682 67.255 128.493 67.5415C128.303 67.828 128.026 67.9912 127.662 68.0312C127.302 68.0709 126.999 67.9753 126.752 67.7445C126.508 67.5135 126.358 67.1809 126.302 66.7469L126.265 66.4078ZM126.806 66.645C126.841 66.9649 126.931 67.21 127.076 67.3802C127.222 67.5483 127.402 67.6207 127.615 67.5973C128.063 67.548 128.258 67.1989 128.2 66.5498L128.162 66.1992C128.127 65.8812 128.036 65.6372 127.889 65.4672C127.742 65.2952 127.563 65.2209 127.35 65.2443C127.141 65.2673 126.984 65.3786 126.878 65.5784C126.773 65.776 126.739 66.0329 126.773 66.349L126.806 66.645Z" fill="#0A327A"/>
    <path d="M131.432 67.5586L130.926 67.6142L130.78 66.2865L129.659 66.4098L129.805 67.7375L129.293 67.7937L128.952 64.6843L129.463 64.6281L129.611 65.9758L130.732 65.8526L130.584 64.5048L131.09 64.4492L131.432 67.5586Z" fill="#0A327A"/>
    <path d="M133.648 64.6041L132.801 64.6974L133.095 67.3757L132.589 67.4313L132.295 64.753L131.458 64.8449L131.411 64.4139L133.601 64.1731L133.648 64.6041Z" fill="#0A327A"/>
    <path d="M136.305 65.6005C136.359 66.0928 136.311 66.4695 136.159 66.7305C136.009 66.9913 135.773 67.1395 135.449 67.1751C135.136 67.2094 134.883 67.118 134.689 66.9009L134.853 68.3924L134.347 68.448L133.873 64.1431L134.333 64.0925L134.397 64.4346C134.538 64.1476 134.768 63.9866 135.086 63.9517C135.427 63.9142 135.694 64.0049 135.889 64.2239C136.084 64.443 136.21 64.7888 136.268 65.2614L136.305 65.6005ZM135.768 65.3658C135.729 65.0171 135.647 64.7663 135.522 64.6134C135.396 64.4585 135.215 64.3941 134.977 64.4202C134.734 64.447 134.562 64.5889 134.463 64.8462L134.641 66.4641C134.791 66.688 134.991 66.7862 135.24 66.7588C135.47 66.7335 135.63 66.6326 135.719 66.4561C135.81 66.2774 135.837 66.0174 135.802 65.6762L135.768 65.3658Z" fill="#0A327A"/>
    <path d="M136.557 65.2761C136.507 64.824 136.577 64.4547 136.767 64.1682C136.958 63.8796 137.234 63.7154 137.594 63.6758C137.954 63.6362 138.257 63.7328 138.504 63.9655C138.753 64.198 138.904 64.5352 138.959 64.9771L138.995 65.3047C139.044 65.755 138.974 66.1233 138.785 66.4098C138.595 66.6963 138.318 66.8595 137.954 66.8996C137.594 66.9392 137.291 66.8436 137.044 66.6128C136.8 66.3818 136.65 66.0493 136.594 65.6152L136.557 65.2761ZM137.098 65.5133C137.133 65.8332 137.223 66.0783 137.368 66.2486C137.514 66.4167 137.694 66.489 137.906 66.4656C138.355 66.4163 138.55 66.0672 138.492 65.4181L138.454 65.0675C138.419 64.7495 138.328 64.5055 138.181 64.3355C138.034 64.1635 137.855 64.0893 137.642 64.1127C137.433 64.1356 137.276 64.247 137.17 64.4467C137.065 64.6443 137.031 64.9012 137.065 65.2173L137.098 65.5133Z" fill="#0A327A"/>
    <path d="M141.344 63.3216L141.686 66.431L141.178 66.487L140.884 63.8172L140.065 63.9073L140.132 64.9673C140.169 65.5546 140.137 65.978 140.033 66.2376C139.93 66.4952 139.734 66.6418 139.448 66.6772L139.278 66.6958L139.226 66.2274L139.355 66.2017C139.494 66.167 139.583 66.0612 139.622 65.8843C139.663 65.7054 139.665 65.3629 139.628 64.8569L139.531 63.521L141.344 63.3216Z" fill="#0A327A"/>
    <path d="M143.347 66.3066C142.96 66.3491 142.651 66.2668 142.419 66.0597C142.186 65.8506 142.043 65.5231 141.991 65.0771L141.949 64.7006C141.898 64.237 141.959 63.8629 142.131 63.5783C142.305 63.2916 142.573 63.1283 142.935 63.0885C143.299 63.0485 143.584 63.1345 143.79 63.3465C143.995 63.5585 144.127 63.9095 144.185 64.3996L144.221 64.7329L142.486 64.9238L142.493 64.9956C142.53 65.329 142.619 65.5645 142.76 65.7022C142.903 65.8396 143.093 65.8954 143.328 65.8695C143.478 65.853 143.606 65.8108 143.713 65.7428C143.822 65.6727 143.919 65.5709 144.005 65.4373L144.305 65.7301C144.119 66.0647 143.799 66.2568 143.347 66.3066ZM142.983 63.5253C142.773 63.5485 142.624 63.6385 142.539 63.7952C142.453 63.9501 142.42 64.1806 142.44 64.4867L143.665 64.352L143.657 64.2831C143.611 63.9895 143.534 63.7847 143.427 63.6685C143.321 63.5522 143.173 63.5045 142.983 63.5253Z" fill="#0A327A"/>
    <path d="M146.816 64.4448C146.87 64.9371 146.821 65.3138 146.669 65.5748C146.52 65.8356 146.283 65.9838 145.959 66.0194C145.647 66.0537 145.393 65.9623 145.199 65.7452L145.363 67.2367L144.857 67.2923L144.384 62.9874L144.844 62.9369L144.907 63.2789C145.048 62.9919 145.278 62.8309 145.596 62.796C145.937 62.7585 146.205 62.8492 146.4 63.0683C146.594 63.2873 146.721 63.6331 146.778 64.1057L146.816 64.4448ZM146.278 64.2101C146.24 63.8614 146.158 63.6106 146.032 63.4577C145.907 63.3028 145.725 63.2384 145.487 63.2645C145.244 63.2913 145.073 63.4333 144.973 63.6905L145.151 65.3084C145.302 65.5323 145.501 65.6305 145.75 65.6031C145.98 65.5778 146.14 65.4769 146.229 65.3004C146.32 65.1217 146.348 64.8617 146.312 64.5205L146.278 64.2101Z" fill="#0A327A"/>
    <path d="M148.961 65.6311C148.923 65.5674 148.889 65.4568 148.858 65.2993C148.707 65.5835 148.491 65.7409 148.212 65.7717C147.93 65.8027 147.701 65.7483 147.525 65.6087C147.35 65.467 147.247 65.2524 147.216 64.965C147.181 64.6489 147.26 64.3862 147.455 64.1767C147.649 63.9673 147.932 63.8401 148.306 63.7952L148.679 63.7541L148.643 63.4237C148.622 63.2378 148.567 63.1102 148.476 63.0407C148.385 62.9712 148.255 62.9457 148.086 62.9642C147.933 62.9811 147.813 63.0408 147.728 63.1432C147.642 63.2438 147.607 63.364 147.622 63.5039L147.113 63.5598C147.096 63.4008 147.126 63.2443 147.204 63.0903C147.282 62.9344 147.396 62.8065 147.546 62.7066C147.696 62.6067 147.869 62.5461 148.064 62.5246C148.382 62.4896 148.632 62.5426 148.814 62.6835C148.998 62.8222 149.109 63.0428 149.146 63.345L149.319 64.9141C149.347 65.1534 149.402 65.3577 149.485 65.527L149.49 65.573L148.961 65.6311ZM148.238 65.3005C148.363 65.2868 148.478 65.2392 148.583 65.1578C148.689 65.0764 148.762 64.9812 148.802 64.872L148.721 64.1306L148.433 64.1622C148.192 64.1926 148.008 64.2681 147.879 64.3889C147.751 64.5077 147.697 64.661 147.718 64.8488C147.737 65.025 147.786 65.1495 147.866 65.2222C147.946 65.2929 148.07 65.319 148.238 65.3005Z" fill="#0A327A"/>
    <path d="M150.829 63.7359C150.923 64.5903 150.814 65.3672 150.504 66.0665C150.335 66.4417 150.148 66.7163 149.943 66.8902L149.806 66.5765C150.022 66.3181 150.178 65.9433 150.273 65.4519C150.368 64.9587 150.386 64.4283 150.328 63.8608L150.317 63.7573C150.236 63.0293 150.045 62.3911 149.742 61.8427C149.576 61.543 149.398 61.3134 149.21 61.1537L149.275 60.8179C149.501 60.9365 149.731 61.1469 149.964 61.4489C150.441 62.0712 150.73 62.8335 150.829 63.7359Z" fill="#0A327A"/>
</svg>
