<svg width="66" height="66" viewBox="0 0 66 66" fill="none" xmlns="http://www.w3.org/2000/svg">
    <g filter="url(#filter0_d)">
        <path fill-rule="evenodd" clip-rule="evenodd" d="M63 30C63 46.5685 49.5685 60 33 60C16.4315 60 3 46.5685 3 30C3 13.4315 16.4315 0 33 0C49.5685 0 63 13.4315 63 30ZM34.5683 43.8758L34.5615 43.907V30.5239L38.7779 34.7311C38.9838 34.9371 39.2627 35.0501 39.5553 35.0501C39.848 35.0501 40.1249 34.9371 40.3313 34.7311L40.9862 34.0764C41.1921 33.8706 41.3059 33.5963 41.3059 33.3037C41.3059 33.0111 41.1929 32.7366 40.987 32.5307L33.7758 25.3189C33.5692 25.1122 33.2939 24.9992 33.001 25C32.7066 24.9992 32.4311 25.1122 32.2248 25.3189L25.0129 32.5307C24.8072 32.7366 24.694 33.0109 24.694 33.3037C24.694 33.5963 24.8074 33.8706 25.0129 34.0764L25.6679 34.7311C25.8734 34.9371 26.1479 35.0501 26.4405 35.0501C26.7331 35.0501 26.9931 34.9371 27.1988 34.7311L31.4388 30.4764V43.8907C31.4388 44.4935 31.9583 45 32.5607 45H33.487C34.0895 45 34.5683 44.4785 34.5683 43.8758ZM21 19C20.4477 19 20 19.4477 20 20C20 20.5523 20.4477 21 21 21H44C44.5523 21 45 20.5523 45 20C45 19.4477 44.5523 19 44 19H21Z" fill="#DDDDDD"/>
    </g>
    <defs>
        <filter id="filter0_d" x="0" y="0" width="66" height="66" filterUnits="userSpaceOnUse" color-interpolation-filters="sRGB">
            <feFlood flood-opacity="0" result="BackgroundImageFix"/>
            <feColorMatrix in="SourceAlpha" type="matrix" values="0 0 0 0 0 0 0 0 0 0 0 0 0 0 0 0 0 0 127 0"/>
            <feOffset dy="3"/>
            <feGaussianBlur stdDeviation="1.5"/>
            <feColorMatrix type="matrix" values="0 0 0 0 0 0 0 0 0 0 0 0 0 0 0 0 0 0 0.2 0"/>
            <feBlend mode="normal" in2="BackgroundImageFix" result="effect1_dropShadow"/>
            <feBlend mode="normal" in="SourceGraphic" in2="effect1_dropShadow" result="shape"/>
        </filter>
    </defs>
</svg>
