<svg width="60" height="60" viewBox="0 0 60 60" fill="none" xmlns="http://www.w3.org/2000/svg">
    <path fill-rule="evenodd" clip-rule="evenodd" d="M60 30C60 46.5685 46.5685 60 30 60C13.4315 60 0 46.5685 0 30C0 13.4315 13.4315 0 30 0C46.5685 0 60 13.4315 60 30ZM31.5683 43.8758L31.5615 43.907V30.5239L35.7779 34.7311C35.9838 34.9371 36.2627 35.0501 36.5553 35.0501C36.848 35.0501 37.1249 34.9371 37.3313 34.7311L37.9862 34.0764C38.1921 33.8706 38.3059 33.5963 38.3059 33.3037C38.3059 33.0111 38.1929 32.7366 37.987 32.5307L30.7758 25.3189C30.5692 25.1122 30.2939 24.9992 30.001 25C29.7066 24.9992 29.4311 25.1122 29.2248 25.3189L22.0129 32.5307C21.8072 32.7366 21.694 33.0109 21.694 33.3037C21.694 33.5963 21.8074 33.8706 22.0129 34.0764L22.6679 34.7311C22.8734 34.9371 23.1479 35.0501 23.4405 35.0501C23.7331 35.0501 23.9931 34.9371 24.1988 34.7311L28.4388 30.4764V43.8907C28.4388 44.4935 28.9583 45 29.5607 45H30.487C31.0895 45 31.5683 44.4785 31.5683 43.8758ZM18 19C17.4477 19 17 19.4477 17 20C17 20.5523 17.4477 21 18 21H41C41.5523 21 42 20.5523 42 20C42 19.4477 41.5523 19 41 19H18Z" fill="#DDDDDD"/>
</svg>
