<svg width="81" height="113" viewBox="0 0 81 113" fill="none" xmlns="http://www.w3.org/2000/svg">
    <path d="M40.5 0C18.1682 0 0 18.3585 0 40.9241C0 68.9288 36.2435 110.041 37.7866 111.778C39.236 113.409 41.7666 113.406 43.2134 111.778C44.7565 110.041 81 68.9288 81 40.9241C80.9996 18.3585 62.8316 0 40.5 0Z" fill="#23262E"/>
    <path fill-rule="evenodd" clip-rule="evenodd" d="M63 44C63 48.223 61.8101 52.1681 59.7474 55.5183L61.6772 57.4482C62.63 58.4009 62.63 59.9454 61.6772 60.8981L57.6816 64.8937C56.729 65.8464 55.1844 65.8464 54.2318 64.8937L52.2488 62.9107C48.9573 64.8728 45.1103 66 41 66C36.9695 66 33.1921 64.9162 29.9434 63.024L28.0737 64.8937C27.1211 65.8464 25.5765 65.8464 24.6239 64.8937L20.6282 60.8981C19.6756 59.9454 19.6756 58.4009 20.6282 57.4482L22.3698 55.7066C20.235 52.3163 19 48.3024 19 44C19 39.8191 20.1662 35.9106 22.1912 32.5821L20.4475 30.8385C19.4949 29.8858 19.4949 28.3412 20.4475 27.3886L24.4432 23.393C25.3958 22.4403 26.9404 22.4403 27.893 23.393L29.6501 25.15C32.9638 23.1505 36.8475 22 41 22C45.185 22 49.097 23.1685 52.4277 25.1971L54.2318 23.393C55.1844 22.4403 56.729 22.4403 57.6816 23.393L61.6772 27.3886C62.63 28.3412 62.63 29.8858 61.6772 30.8385L59.8559 32.6598C59.885 32.7081 59.9139 32.7564 59.9426 32.805C61.885 36.0845 63 39.9121 63 44ZM47.6407 44.0452C47.6407 47.6878 44.6878 50.6407 41.0452 50.6407C37.4026 50.6407 34.4497 47.6878 34.4497 44.0452C34.4497 40.4026 37.4026 37.4497 41.0452 37.4497C44.6878 37.4497 47.6407 40.4026 47.6407 44.0452ZM49.4573 27.9467C46.9424 26.6298 44.0808 25.885 41.0452 25.885C37.9734 25.885 35.0798 26.6476 32.5434 27.9939C32.4355 28.0511 32.4163 28.1969 32.5045 28.2814L38.3069 33.8367C38.3522 33.8801 38.4168 33.8968 38.4778 33.8814C39.2993 33.6746 40.1594 33.5647 41.0452 33.5647C41.9304 33.5647 42.7901 33.6744 43.6112 33.8811C43.6729 33.8966 43.7383 33.8794 43.7837 33.8348L49.4986 28.2332C49.5855 28.148 49.5651 28.0031 49.4573 27.9467ZM57.0339 52.531C58.3507 50.0162 59.0955 47.1545 59.0955 44.1189C59.0955 41.0472 58.3329 38.1536 56.9866 35.6171C56.9756 35.5964 56.9613 35.5789 56.9448 35.5648C56.937 35.5582 56.9287 35.5524 56.9201 35.5472C56.9105 35.5416 56.9004 35.5369 56.8901 35.5332C56.8265 35.5104 56.7512 35.5239 56.6992 35.5783L51.1438 41.3806C51.1004 41.4259 51.0838 41.4906 51.0991 41.5515C51.306 42.373 51.4159 43.2331 51.4159 44.1189C51.4159 45.0042 51.3061 45.8638 51.0994 46.6849C51.0966 46.6959 51.0949 46.707 51.0942 46.7181C51.0936 46.727 51.0937 46.7359 51.0944 46.7448C51.0949 46.7504 51.0956 46.756 51.0966 46.7615C51.1028 46.7971 51.1195 46.8307 51.1457 46.8574L56.7474 52.5723C56.8325 52.6592 56.9775 52.6388 57.0339 52.531ZM41.0903 62.1858C44.126 62.1858 46.9876 61.441 49.5025 60.1242C49.6103 60.0678 49.6307 59.9228 49.5438 59.8377L43.8288 54.236C43.8038 54.2114 43.7726 54.1952 43.7394 54.1881C43.7124 54.1824 43.684 54.1828 43.6564 54.1898C42.8353 54.3964 41.9756 54.5062 41.0903 54.5062C40.2046 54.5062 39.3445 54.3963 38.5229 54.1894C38.462 54.1741 38.3974 54.1907 38.352 54.2341L32.5497 59.7895C32.4615 59.8739 32.4807 60.0197 32.5886 60.0769C35.125 61.4232 38.0186 62.1858 41.0903 62.1858ZM24.9467 52.5025C23.6298 49.9876 22.885 47.126 22.885 44.0903C22.885 41.0186 23.6476 38.125 24.9939 35.5886C25.0511 35.4807 25.1969 35.4615 25.2814 35.5497L30.8367 41.352C30.8406 41.3561 30.8442 41.3603 30.8476 41.3646C30.8499 41.3675 30.8522 41.3705 30.8543 41.3736C30.8611 41.3832 30.8668 41.3934 30.8715 41.404C30.8877 41.4408 30.8916 41.4827 30.8814 41.5229C30.6746 42.3445 30.5647 43.2046 30.5647 44.0903C30.5647 44.9756 30.6744 45.8353 30.8811 46.6564C30.8966 46.7181 30.8794 46.7834 30.8348 46.8288L25.2332 52.5438C25.148 52.6307 25.0031 52.6103 24.9467 52.5025ZM56.4854 24.2862C56.3799 24.1799 56.2083 24.1793 56.1021 24.2847L55.4607 24.921C55.3544 25.0265 55.3537 25.1981 55.4592 25.3044L59.6589 29.5375C59.7643 29.6438 59.9359 29.6445 60.0422 29.5391L60.6836 28.9027C60.7899 28.7973 60.7906 28.6257 60.6851 28.5194L56.4854 24.2862ZM26.0227 24.2847C25.9165 24.1793 25.7449 24.1799 25.6394 24.2862L21.4397 28.5194C21.3343 28.6257 21.3349 28.7973 21.4412 28.9027L22.0826 29.5391C22.1889 29.6445 22.3605 29.6438 22.4659 29.5375L26.6656 25.3044C26.7711 25.1981 26.7704 25.0265 26.6641 24.921L26.0227 24.2847ZM56.4854 64.0005C56.3799 64.1067 56.2083 64.1074 56.1021 64.002L55.4607 63.3656C55.3544 63.2602 55.3537 63.0886 55.4592 62.9823L59.6589 58.7491C59.7643 58.6429 59.9359 58.6422 60.0422 58.7476L60.6836 59.3839C60.7899 59.4894 60.7906 59.661 60.6851 59.7672L56.4854 64.0005ZM26.2034 64.002C26.0972 64.1074 25.9256 64.1067 25.8201 64.0005L21.6204 59.7672C21.515 59.661 21.5156 59.4894 21.6219 59.3839L22.2633 58.7476C22.3696 58.6422 22.5412 58.6429 22.6466 58.7491L26.8463 62.9823C26.9518 63.0886 26.9511 63.2602 26.8448 63.3656L26.2034 64.002Z" fill="url(#paint0_linear)"/>
    <defs>
        <linearGradient id="paint0_linear" x1="41.0452" y1="22" x2="41.0452" y2="67.7618" gradientUnits="userSpaceOnUse">
            <stop stop-color="#59B9E2"/>
            <stop offset="1" stop-color="#168CBC"/>
        </linearGradient>
    </defs>
</svg>
