<svg width="154" height="154" viewBox="0 0 154 154" fill="none" xmlns="http://www.w3.org/2000/svg">
    <g filter="url(#filter0_i)">
        <path fill-rule="evenodd" clip-rule="evenodd" d="M154 77C154 91.7806 149.835 105.588 142.616 117.314L149.37 124.069C152.705 127.403 152.705 132.809 149.37 136.143L135.386 150.128C132.051 153.462 126.645 153.462 123.311 150.128L116.371 143.187C104.851 150.055 91.3859 154 77 154C62.8932 154 49.6723 150.207 38.3021 143.584L31.7581 150.128C28.4238 153.462 23.0178 153.462 19.6836 150.128L5.69879 136.143C2.36456 132.809 2.36456 127.403 5.69879 124.069L11.7944 117.973C4.32242 106.107 0 92.0584 0 77C0 62.3669 4.08186 48.6872 11.1691 37.0373L5.06634 30.9346C1.73212 27.6002 1.73212 22.1944 5.06634 18.86L19.0511 4.87534C22.3854 1.54096 27.7914 1.54096 31.1256 4.87534L37.2753 11.025C48.8732 4.02658 62.4663 0 77 0C91.6473 0 105.34 4.08973 116.997 11.1897L123.311 4.87534C126.645 1.54096 132.051 1.54096 135.386 4.87534L149.37 18.86C152.705 22.1944 152.705 27.6002 149.37 30.9346L142.996 37.3094C143.097 37.4783 143.199 37.6475 143.299 37.8174C150.098 49.2959 154 62.6922 154 77ZM100.242 77.1581C100.242 89.9072 89.9072 100.242 77.1581 100.242C64.409 100.242 54.0739 89.9072 54.0739 77.1581C54.0739 64.409 64.409 54.0739 77.1581 54.0739C89.9072 54.0739 100.242 64.409 100.242 77.1581ZM106.601 20.8134C97.7984 16.2044 87.7827 13.5975 77.1581 13.5975C66.407 13.5975 56.2794 16.2667 47.4019 20.9787C47.0244 21.179 46.9571 21.6893 47.2659 21.9848L67.574 41.4285C67.7328 41.5804 67.959 41.6387 68.1722 41.585C71.0477 40.861 74.058 40.4764 77.1581 40.4764C80.2566 40.4764 83.2653 40.8605 86.1392 41.5838C86.3551 41.6381 86.5839 41.5778 86.7428 41.422L106.745 21.8161C107.049 21.5181 106.978 21.0108 106.601 20.8134ZM133.119 106.859C137.728 98.0565 140.334 88.0407 140.334 77.4161C140.334 66.665 137.665 56.5375 132.953 47.6599C132.915 47.5874 132.865 47.5262 132.807 47.477C132.78 47.4538 132.751 47.4333 132.72 47.4154C132.687 47.3956 132.651 47.3792 132.615 47.3661C132.393 47.2863 132.129 47.3337 131.947 47.5239L112.503 67.832C112.352 67.9908 112.293 68.217 112.347 68.4302C113.071 71.3055 113.456 74.316 113.456 77.4161C113.456 80.5146 113.071 83.5233 112.348 86.3973C112.338 86.4357 112.332 86.4745 112.33 86.5132C112.328 86.5446 112.328 86.5757 112.331 86.6068C112.332 86.6264 112.335 86.6458 112.338 86.6651C112.36 86.7899 112.418 86.9074 112.51 87.0008L132.116 107.003C132.414 107.307 132.921 107.236 133.119 106.859ZM77.3162 140.65C87.9408 140.65 97.9565 138.044 106.759 133.435C107.136 133.237 107.207 132.73 106.903 132.432L86.9009 112.826C86.8132 112.74 86.7042 112.683 86.5878 112.658C86.4933 112.638 86.394 112.64 86.2973 112.664C83.4234 113.387 80.4147 113.772 77.3162 113.772C74.2161 113.772 71.2058 113.387 68.3303 112.663C68.1171 112.609 67.8909 112.668 67.7321 112.82L47.424 132.263C47.1152 132.559 47.1825 133.069 47.56 133.269C56.4376 137.981 66.5651 140.65 77.3162 140.65ZM20.8134 106.759C16.2044 97.9565 13.5975 87.9408 13.5975 77.3162C13.5975 66.5651 16.2667 56.4376 20.9787 47.56C21.179 47.1825 21.6893 47.1152 21.9848 47.424L41.4285 67.7321C41.442 67.7463 41.4547 67.761 41.4666 67.7761C41.4748 67.7863 41.4826 67.7968 41.4902 67.8075C41.5137 67.8411 41.5338 67.8768 41.5501 67.9139C41.6071 68.0428 41.6205 68.1893 41.585 68.3303C40.861 71.2058 40.4764 74.2161 40.4764 77.3162C40.4764 80.4147 40.8605 83.4234 41.5838 86.2973C41.6381 86.5132 41.5778 86.742 41.422 86.9009L21.8161 106.903C21.5181 107.207 21.0108 107.136 20.8134 106.759ZM131.199 8.00174C130.83 7.62978 130.229 7.62746 129.857 7.99649L127.612 10.2236C127.241 10.5927 127.238 11.1933 127.607 11.5653L142.306 26.3814C142.675 26.7533 143.276 26.7558 143.648 26.3868L145.893 24.1596C146.265 23.7906 146.267 23.19 145.898 22.818L131.199 8.00174ZM24.5796 7.99649C24.2076 7.62746 23.607 7.62978 23.238 8.00174L8.53891 22.818C8.16989 23.19 8.1722 23.7906 8.54416 24.1596L10.7891 26.3868C11.161 26.7558 11.7617 26.7533 12.1307 26.3814L26.8298 11.5653C27.1988 11.1933 27.1963 10.5927 26.8245 10.2236L24.5796 7.99649ZM131.199 147.002C130.83 147.374 130.229 147.376 129.857 147.007L127.612 144.78C127.241 144.411 127.238 143.81 127.607 143.438L142.306 128.622C142.675 128.25 143.276 128.248 143.648 128.617L145.893 130.844C146.265 131.213 146.267 131.813 145.898 132.185L131.199 147.002ZM25.212 147.007C24.8401 147.376 24.2394 147.374 23.8704 147.002L9.17136 132.185C8.80233 131.813 8.80465 131.213 9.17661 130.844L11.4215 128.617C11.7935 128.248 12.3941 128.25 12.7631 128.622L27.4622 143.438C27.8312 143.81 27.8288 144.411 27.4569 144.78L25.212 147.007Z" fill="#F3F3F3"/>
    </g>
    <defs>
        <filter id="filter0_i" x="0" y="0" width="154" height="156" filterUnits="userSpaceOnUse" color-interpolation-filters="sRGB">
            <feFlood flood-opacity="0" result="BackgroundImageFix"/>
            <feBlend mode="normal" in="SourceGraphic" in2="BackgroundImageFix" result="shape"/>
            <feColorMatrix in="SourceAlpha" type="matrix" values="0 0 0 0 0 0 0 0 0 0 0 0 0 0 0 0 0 0 127 0" result="hardAlpha"/>
            <feOffset dy="2"/>
            <feGaussianBlur stdDeviation="3.5"/>
            <feComposite in2="hardAlpha" operator="arithmetic" k2="-1" k3="1"/>
            <feColorMatrix type="matrix" values="0 0 0 0 0 0 0 0 0 0 0 0 0 0 0 0 0 0 0.06 0"/>
            <feBlend mode="normal" in2="shape" result="effect1_innerShadow"/>
        </filter>
    </defs>
</svg>
