<svg width="62" height="62" viewBox="0 0 62 62" fill="none" xmlns="http://www.w3.org/2000/svg">
    <path fill-rule="evenodd" clip-rule="evenodd" d="M62 31C62 36.9506 60.3233 42.5096 57.4168 47.2304L60.1361 49.9497C61.4786 51.2922 61.4786 53.4685 60.1361 54.811L54.5059 60.4411C53.1636 61.7835 50.9871 61.7835 49.6448 60.4411L46.8505 57.6469C42.2125 60.4117 36.7917 62 31 62C25.3207 62 19.9979 60.4728 15.4203 57.8065L12.7857 60.4411C11.4434 61.7835 9.2669 61.7835 7.92455 60.4411L2.29432 54.811C0.951966 53.4685 0.951966 51.2922 2.29432 49.9497L4.74839 47.4957C1.74019 42.7184 0 37.0625 0 31C0 25.1087 1.64334 19.6013 4.49663 14.9111L2.0397 12.4542C0.697346 11.1118 0.697346 8.93539 2.0397 7.59298L7.66993 1.9628C9.01228 0.620388 11.1887 0.620388 12.5311 1.9628L15.0069 4.43863C19.6762 1.62109 25.1488 0 31 0C36.897 0 42.4094 1.64651 47.1026 4.50496L49.6448 1.9628C50.9871 0.620388 53.1636 0.620388 54.5059 1.9628L60.1361 7.59298C61.4786 8.93539 61.4786 11.1118 60.1361 12.4542L57.5697 15.0207C57.6107 15.0887 57.6514 15.1568 57.6919 15.2252C60.4289 19.8464 62 25.2397 62 31ZM40.3573 31.0637C40.3573 36.1964 36.1964 40.3573 31.0637 40.3573C25.9309 40.3573 21.77 36.1964 21.77 31.0637C21.77 25.9309 25.9309 21.77 31.0637 21.77C36.1964 21.77 40.3573 25.9309 40.3573 31.0637ZM42.9171 8.3794C39.3734 6.52383 35.3411 5.47433 31.0637 5.47433C26.7353 5.47433 22.658 6.54895 19.0839 8.44598C18.9319 8.5266 18.9048 8.73205 19.0291 8.85103L27.2051 16.679C27.269 16.7402 27.3601 16.7637 27.4459 16.742C28.6036 16.4505 29.8155 16.2957 31.0637 16.2957C32.3111 16.2957 33.5224 16.4503 34.6794 16.7415C34.7663 16.7634 34.8585 16.7391 34.9224 16.6764L42.9753 8.78309C43.0978 8.66311 43.069 8.45891 42.9171 8.3794ZM53.5932 43.021C55.4487 39.4773 56.4983 35.445 56.4983 31.1675C56.4983 26.8392 55.4236 22.7618 53.5266 19.1878C53.5111 19.1585 53.4909 19.1339 53.4677 19.1141C53.4567 19.1048 53.445 19.0965 53.4329 19.0893C53.4193 19.0813 53.4051 19.0748 53.3905 19.0695C53.301 19.0373 53.1948 19.0564 53.1216 19.133L45.2936 27.309C45.2324 27.3729 45.2089 27.464 45.2306 27.5498C45.522 28.7074 45.6769 29.9194 45.6769 31.1675C45.6769 32.415 45.5222 33.6263 45.231 34.7833C45.2271 34.7988 45.2247 34.8144 45.2237 34.83C45.2229 34.8426 45.223 34.8552 45.224 34.8677C45.2246 34.8756 45.2256 34.8834 45.227 34.8912C45.2357 34.9414 45.2593 34.9887 45.2962 35.0263L53.1895 43.0792C53.3095 43.2016 53.5137 43.1728 53.5932 43.021ZM31.1273 56.6255C35.4048 56.6255 39.437 55.576 42.9808 53.7204C43.1326 53.6409 43.1614 53.4367 43.0389 53.3167L34.9861 45.4235C34.9508 45.3888 34.9069 45.3659 34.86 45.3559C34.822 45.3479 34.782 45.3485 34.7431 45.3583C33.586 45.6495 32.3747 45.8041 31.1273 45.8041C29.8792 45.8041 28.6673 45.6493 27.5096 45.3578C27.4238 45.3362 27.3327 45.3597 27.2688 45.4208L19.0928 53.2488C18.9685 53.3678 18.9956 53.5732 19.1475 53.6539C22.7216 55.5509 26.799 56.6255 31.1273 56.6255ZM8.3794 42.9808C6.52383 39.437 5.47433 35.4048 5.47433 31.1273C5.47433 26.799 6.54895 22.7216 8.44598 19.1475C8.5266 18.9956 8.73205 18.9685 8.85103 19.0928L16.679 27.2688C16.6845 27.2745 16.6896 27.2804 16.6943 27.2865C16.6976 27.2906 16.7008 27.2948 16.7038 27.2991C16.7133 27.3127 16.7214 27.327 16.728 27.3419C16.7509 27.3939 16.7563 27.4528 16.742 27.5096C16.4505 28.6673 16.2957 29.8792 16.2957 31.1273C16.2957 32.3747 16.4503 33.586 16.7415 34.7431C16.7634 34.83 16.7391 34.9221 16.6764 34.9861L8.78309 43.0389C8.66311 43.1614 8.45891 43.1326 8.3794 42.9808ZM52.8203 3.22148C52.6717 3.07173 52.4299 3.0708 52.2802 3.21937L51.3764 4.11601C51.2267 4.26458 51.2257 4.50639 51.3743 4.65614L57.2921 10.6211C57.4406 10.7708 57.6825 10.7718 57.8322 10.6232L58.736 9.7266C58.8857 9.57803 58.8867 9.33622 58.7381 9.18647L52.8203 3.22148ZM9.89568 3.21937C9.74593 3.0708 9.50412 3.07173 9.35555 3.22148L3.43774 9.18647C3.28917 9.33622 3.29011 9.57803 3.43986 9.7266L4.34365 10.6232C4.4934 10.7718 4.73521 10.7708 4.88378 10.6211L10.8016 4.65614C10.9502 4.50639 10.9492 4.26458 10.7995 4.11601L9.89568 3.21937ZM52.8203 59.1825C52.6717 59.3322 52.4299 59.3331 52.2802 59.1846L51.3764 58.2879C51.2267 58.1394 51.2257 57.8975 51.3743 57.7478L57.2921 51.7829C57.4406 51.6331 57.6825 51.6321 57.8322 51.7807L58.736 52.6773C58.8857 52.8259 58.8867 53.0677 58.7381 53.2175L52.8203 59.1825ZM10.1503 59.1846C10.0006 59.3331 9.75874 59.3322 9.61017 59.1825L3.69236 53.2175C3.54379 53.0677 3.54473 52.8259 3.69448 52.6773L4.59827 51.7807C4.74802 51.6321 4.98983 51.6331 5.1384 51.7829L11.0562 57.7478C11.2048 57.8975 11.2038 58.1394 11.0541 58.2879L10.1503 59.1846Z" fill="url(#paint0_linear)"/>
    <defs>
        <linearGradient id="paint0_linear" x1="31.0637" y1="-8.99323e-09" x2="31.0637" y2="64.4825" gradientUnits="userSpaceOnUse">
            <stop stop-color="#59B9E2"/>
            <stop offset="1" stop-color="#168CBC"/>
        </linearGradient>
    </defs>
</svg>
