<svg width="18" height="12" viewBox="0 0 18 12" fill="none" xmlns="http://www.w3.org/2000/svg">
    <path d="M16.1117 0H1.7474C1.45696 0 1.18703 0.0740069 0.945801 0.193523L8.5724 7.43048C8.79368 7.64045 9.17802 7.64045 9.39542 7.43048L16.9861 0.231023C16.728 0.0879412 16.4318 0 16.1117 0Z" fill="#23262E"/>
    <path d="M0.146529 0.998535C0.0532611 1.20116 0 1.42398 0 1.65891V9.76389C0 10.0617 0.0897451 10.3374 0.235193 10.5792L5.23717 5.82922L0.146529 0.998535Z" fill="#23262E"/>
    <path d="M11.8407 6.67591L10.2218 8.21604C9.5418 8.8541 8.44002 8.86456 7.74881 8.21604L6.06392 6.61328L1.11621 11.3057C1.31241 11.3782 1.52395 11.4217 1.74687 11.4217H16.1112C16.3287 11.4217 16.5348 11.3792 16.7271 11.31L11.8407 6.67591Z" fill="#23262E"/>
    <path d="M17.7412 1.07642L12.6675 5.89125L17.616 10.5908C17.7659 10.3463 17.8581 10.0661 17.8581 9.76352V1.65815C17.8581 1.45273 17.8135 1.25807 17.7412 1.07642Z" fill="#23262E"/>
</svg>
