<svg width="74" height="38" viewBox="0 0 74 38" fill="none" xmlns="http://www.w3.org/2000/svg">
    <path d="M53.9594 2.41577C53.41 2.41577 52.966 2.8626 52.965 3.41202V25.4008H49.4233V20.7809C49.4343 20.1786 48.914 19.7031 48.3157 19.7699C48.4751 20.4028 47.6933 20.5001 47.4307 20.7809V25.4008H45.5235V23.0164C45.5307 22.4558 45.0747 22.0005 44.5142 22.0074C44.2148 22.5394 43.5493 22.5153 43.5328 23.0164V25.4008H27.1359C25.8816 24.231 24.2063 23.5084 22.3641 23.5084C20.5219 23.5084 18.8468 24.231 17.5942 25.4008H17.034V23.0164C17.0411 22.4577 16.4095 22.2131 16.0247 22.0074C15.4752 22.0074 15.0365 22.4671 15.0433 23.0164V25.4008H13.136V20.7809C13.0075 20.2937 12.53 19.7829 12.0284 19.7699C11.5178 19.8285 11.1338 20.2668 11.1435 20.7809V25.4008H10.0285C9.47619 25.4008 9.02758 25.8443 9.02661 26.3966V30.3024C9.02755 30.8546 9.47621 31.3012 10.0285 31.2987H15.405C15.7977 34.7901 18.7712 37.5247 22.3642 37.5247C25.9565 37.5247 28.9345 34.7912 29.3289 31.3005C37.6373 31.2997 45.9459 31.2997 54.2526 31.3005C54.6462 34.7912 57.6176 37.5247 61.2099 37.5247C64.7274 37.5247 67.6439 34.9018 68.1338 31.5155H72.9983C73.5533 31.5155 74.0031 31.0686 74.0001 30.5138V13.4673C73.9994 13.2663 73.9396 13.0706 73.8256 12.9054L67.0446 2.85752C66.8598 2.58109 66.5493 2.41662 66.2171 2.41597L53.9594 2.41577ZM54.9557 4.41363H65.6848L72.002 13.7678V25.4008H65.9797C64.7271 24.231 63.052 23.5084 61.2098 23.5084C59.3675 23.5084 57.6926 24.231 56.4399 25.4008H54.9557V4.41363ZM56.7572 6.1466C56.6255 6.14602 56.4949 6.17149 56.3731 6.22163C56.2513 6.27176 56.1407 6.34556 56.0476 6.43868C55.9544 6.53181 55.8806 6.64243 55.8305 6.76421C55.7803 6.886 55.7548 7.01659 55.7553 7.1483V15.0089C55.7554 15.1402 55.7815 15.2702 55.8319 15.3914C55.8824 15.5126 55.9563 15.6227 56.0493 15.7153C56.1424 15.8079 56.2529 15.8812 56.3743 15.931C56.4958 15.9809 56.6259 16.0062 56.7572 16.0057H70.1931C70.3725 16.0037 70.5481 15.9533 70.7013 15.8599C70.8545 15.7665 70.9797 15.6335 71.0636 15.4749C71.1476 15.3163 71.1872 15.1379 71.1783 14.9587C71.1694 14.7795 71.1123 14.606 71.0131 14.4565L65.7126 6.58825C65.6207 6.45376 65.4972 6.34382 65.3529 6.26807C65.2087 6.19233 65.048 6.15308 64.8851 6.15374L56.7572 6.1466ZM57.7535 8.14455H64.3508L68.3137 14.0131H57.7535V8.14455ZM22.3641 25.4079C25.196 25.4079 27.4754 27.6819 27.4754 30.5138C27.4754 33.3457 25.196 35.6252 22.3641 35.6252C19.5322 35.6252 17.2584 33.3457 17.2584 30.5138C17.2584 27.6819 19.5322 25.4079 22.3641 25.4079ZM61.2098 25.4079C64.0417 25.4079 66.3155 27.6819 66.3155 30.5138C66.3155 33.3457 64.0417 35.6252 61.2098 35.6252C58.3779 35.6252 56.106 33.3457 56.106 30.5138C56.106 27.6819 58.3779 25.4079 61.2098 25.4079ZM22.3641 26.8605C20.3552 26.8605 18.7111 28.5048 18.7111 30.5138C18.7111 32.5225 20.3552 34.1741 22.3641 34.1741C24.373 34.1741 26.0246 32.5225 26.0246 30.5138C26.0246 28.5048 24.373 26.8605 22.3641 26.8605ZM61.2098 26.8605C59.2009 26.8605 57.5494 28.5048 57.5494 30.5138C57.5494 32.5225 59.2009 34.1741 61.2098 34.1741C63.2188 34.1741 64.8703 32.5225 64.8703 30.5138C64.8703 28.5048 63.2188 26.8605 61.2098 26.8605ZM11.0247 27.3933H16.1026C15.8042 27.9884 15.5882 28.6311 15.4699 29.3079H11.0247V27.3933ZM28.6294 27.3933H53.9594H54.9483C54.6499 27.9884 54.434 28.6314 54.3156 29.3079C45.9662 29.3071 37.615 29.3071 29.2639 29.3079C29.1454 28.6311 28.9282 27.9889 28.6294 27.3933ZM67.4714 27.3933H72.002V29.5176H68.1356C68.0276 28.7643 67.8003 28.0499 67.4714 27.3933ZM22.3641 28.8512C23.295 28.8512 24.032 29.5829 24.032 30.5138C24.032 31.4444 23.295 32.1815 22.3641 32.1815C21.4332 32.1815 20.7018 31.4444 20.7018 30.5138C20.7018 29.5829 21.4332 28.8512 22.3641 28.8512ZM61.2098 28.8512C62.1407 28.8512 62.8722 29.5829 62.8722 30.5138C62.8722 31.4444 62.1407 32.1815 61.2098 32.1815C60.279 32.1815 59.5475 31.4444 59.5475 30.5138C59.5475 29.5829 60.279 28.8512 61.2098 28.8512Z" fill="white"/>
    <path d="M29.6653 8.71595C28.9621 9.87775 27.555 12.2236 27.1325 14.1817C26.7101 16.1401 27.2729 17.7302 28.3136 18.5807C29.3546 19.4319 30.8711 19.5417 31.9902 18.8499C33.1094 18.1585 33.8318 16.6647 33.4955 14.6534C33.1594 12.6422 31.7633 10.1076 30.3684 7.5751C30.3684 7.5751 30.3684 7.53611 29.6653 8.71605V8.71595Z" stroke="#50B3DC" stroke-width="1.41896" stroke-linecap="round" stroke-linejoin="round"/>
    <path d="M23.4281 0.475098L22.2519 2.41569H18.842C15.3323 2.41569 12.2264 4.09911 10.2576 6.69406H5.0554C5.02017 6.69219 4.98483 6.69219 4.9496 6.69406C4.69294 6.71784 4.45547 6.84005 4.28692 7.03508C4.11838 7.23011 4.03188 7.48283 4.04555 7.74023C4.05923 7.99764 4.17201 8.23974 4.36027 8.41581C4.54853 8.59189 4.79766 8.68823 5.0554 8.68468H9.06089C8.78569 9.27982 8.56637 9.90337 8.40223 10.5511H1.01458C0.882096 10.5491 0.750548 10.5735 0.627562 10.6228C0.504575 10.6721 0.392613 10.7453 0.298208 10.8383C0.203803 10.9312 0.128853 11.0421 0.0776794 11.1643C0.0265061 11.2865 0.000117262 11.4177 0.000117262 11.5502C0.000117262 11.6827 0.0265061 11.8138 0.0776794 11.936C0.128853 12.0582 0.203803 12.1691 0.298208 12.2621C0.392613 12.355 0.504575 12.4283 0.627562 12.4776C0.750548 12.5269 0.882096 12.5512 1.01458 12.5492H8.0906C8.07694 12.7684 8.05938 12.9856 8.05938 13.2079V13.6294C8.05938 13.8141 8.07693 13.9929 8.08474 14.1751H6.0643C6.02907 14.1732 5.99378 14.1732 5.95855 14.1751C5.69433 14.1891 5.4465 14.3075 5.26958 14.5043C5.09266 14.701 5.00113 14.96 5.01516 15.2242C5.02918 15.4884 5.14761 15.7363 5.34436 15.9132C5.54111 16.0901 5.80008 16.1816 6.0643 16.1676H8.37037C8.52875 16.8238 8.74401 17.4566 9.01608 18.0599H5.0681C4.9363 18.0592 4.80561 18.0845 4.68362 18.1345C4.56163 18.1844 4.45071 18.2579 4.35724 18.3508C4.26377 18.4437 4.18961 18.5542 4.139 18.6759C4.08838 18.7977 4.06233 18.9281 4.06233 19.0599C4.06233 19.1917 4.08838 19.3222 4.139 19.4439C4.18961 19.5656 4.26377 19.6761 4.35724 19.7691C4.45071 19.862 4.56163 19.9356 4.68362 19.9855C4.80561 20.0354 4.9363 20.0607 5.0681 20.06H10.196C12.1612 22.7014 15.2948 24.4199 18.8417 24.4199H41.7227C47.6826 24.4199 52.5148 19.5897 52.5148 13.6296V13.2081C52.5148 7.24807 47.6826 2.41589 41.7227 2.41589H36.6467L35.4686 0.475296H29.4482L23.4281 0.475098ZM24.5209 1.82387H29.4485H34.3742L34.8065 2.41519H24.0905L24.5209 1.82387ZM18.842 4.41394H41.723C46.6123 4.41394 50.5151 8.31835 50.5151 13.2079V13.6294C50.5151 18.5185 46.6123 22.4216 41.723 22.4216H18.842C13.9526 22.4216 10.0497 18.5185 10.0497 13.6294V13.2079C10.0497 8.31835 13.9526 4.41394 18.842 4.41394ZM1.00158 18.0594C0.869772 18.0587 0.739129 18.0839 0.61714 18.1339C0.495152 18.1838 0.384232 18.2573 0.290764 18.3502C0.197297 18.4432 0.123133 18.5537 0.0725185 18.6754C0.0219042 18.7971 -0.00415039 18.9275 -0.00415039 19.0593C-0.00415039 19.1912 0.0219042 19.3217 0.0725185 19.4434C0.123133 19.5651 0.197297 19.6756 0.290764 19.7686C0.384232 19.8615 0.495152 19.935 0.61714 19.9849C0.739129 20.0348 0.869772 20.0601 1.00158 20.0594H2.1593C2.29111 20.0601 2.4218 20.0348 2.54379 19.9849C2.66578 19.935 2.77665 19.8615 2.87011 19.7686C2.96358 19.6756 3.0378 19.5651 3.08841 19.4434C3.13902 19.3217 3.16508 19.1912 3.16508 19.0593C3.16508 18.9275 3.13902 18.7971 3.08841 18.6754C3.0378 18.5537 2.96358 18.4432 2.87011 18.3502C2.77665 18.2573 2.66578 18.1838 2.54379 18.1339C2.4218 18.0839 2.29111 18.0587 2.1593 18.0594H1.00158Z" fill="#D1D1D1"/>
</svg>
