<svg width="53" height="51" viewBox="0 0 53 51" fill="none" xmlns="http://www.w3.org/2000/svg">
    <path d="M13.2569 0.797365C12.6657 0.811092 12.1934 1.29258 12.2004 1.88378V3.92883H6.61458C5.64933 3.92883 4.83325 4.74472 4.83325 5.71019V30.7996C4.83325 32.2349 6.98604 32.2349 6.98604 30.7996V6.07966H12.2004V8.12667C12.1789 9.58232 14.3732 9.58232 14.3514 8.12667V6.07966H22.775V8.12667C22.775 9.562 24.928 9.562 24.928 8.12667V6.07966H33.3497V8.12667C33.3497 9.562 35.5025 9.562 35.5025 8.12667V6.07966H40.7169V24.6073C40.6433 26.109 42.9354 26.109 42.8619 24.6073V5.71019C42.8619 4.74472 42.0512 3.92883 41.0864 3.92883H35.5025V1.88378C35.5126 1.27762 35.0142 0.785698 34.4082 0.797365C33.8161 0.811092 33.3426 1.29175 33.3497 1.88378V3.92883H24.928V1.88378C24.938 1.27679 24.4384 0.784508 23.8315 0.797365C23.2403 0.811092 22.768 1.29258 22.775 1.88378V3.92883H14.3514V1.88378C14.3615 1.27762 13.863 0.785652 13.2569 0.797365Z" fill="#D1D1D1"/>
    <path d="M10.5508 10.3457C10.0451 10.3457 9.6123 10.7777 9.6123 11.2823V12.6265C9.6123 13.1311 10.0451 13.5631 10.5508 13.5631H11.8912C12.3969 13.5631 12.8297 13.1311 12.8297 12.6265V11.2823C12.8297 10.7777 12.3969 10.3457 11.8912 10.3457H10.5508Z" fill="#D1D1D1"/>
    <path d="M18.605 10.3457C18.0993 10.3457 17.6665 10.7777 17.6665 11.2823V12.6265C17.6665 13.1311 18.0993 13.5631 18.605 13.5631H19.9454C20.4512 13.5631 20.8839 13.1311 20.8839 12.6265V11.2823C20.8839 10.7777 20.4512 10.3457 19.9454 10.3457H18.605Z" fill="#D1D1D1"/>
    <path d="M26.9112 10.3457C26.4064 10.3457 25.9683 10.7777 25.9683 11.2823V12.6265C25.9683 13.1311 26.4064 13.5631 26.9112 13.5631H28.249C28.7537 13.5631 29.1856 13.1311 29.1856 12.6265V11.2823C29.1856 10.7777 28.7537 10.3457 28.249 10.3457H26.9112Z" fill="#D1D1D1"/>
    <path d="M34.9593 10.3457C34.4546 10.3457 34.0227 10.7777 34.0227 11.2823V12.6265C34.0227 13.1311 34.4546 13.5631 34.9593 13.5631H36.3034C36.8082 13.5631 37.2401 13.1311 37.2401 12.6265V11.2823C37.2401 10.7777 36.8082 10.3457 36.3034 10.3457H34.9593Z" fill="#D1D1D1"/>
    <path d="M10.5508 16.4824C10.0451 16.4824 9.6123 16.9144 9.6123 17.4191V18.7569C9.6123 19.2615 10.0451 19.6998 10.5508 19.6998H11.8912C12.3969 19.6998 12.8297 19.2615 12.8297 18.7569V17.4191C12.8297 16.9144 12.3969 16.4824 11.8912 16.4824H10.5508Z" fill="#D1D1D1"/>
    <path d="M18.605 16.4824C18.0993 16.4824 17.6665 16.9144 17.6665 17.4191V18.7569C17.6665 19.2615 18.0993 19.6998 18.605 19.6998H19.9454C20.4512 19.6998 20.8839 19.2615 20.8839 18.7569V17.4191C20.8839 16.9144 20.4512 16.4824 19.9454 16.4824H18.605Z" fill="#D1D1D1"/>
    <path d="M26.9112 16.4824C26.4064 16.4824 25.9683 16.9144 25.9683 17.4191V18.7569C25.9683 19.2615 26.4064 19.6998 26.9112 19.6998H28.249C28.7537 19.6998 29.1856 19.2615 29.1856 18.7569V17.4191C29.1856 16.9144 28.7537 16.4824 28.249 16.4824H26.9112Z" fill="#D1D1D1"/>
    <path d="M34.9593 16.4824C34.4546 16.4824 34.0227 16.9144 34.0227 17.4191V18.7569C34.0227 19.2615 34.4546 19.6998 34.9593 19.6998H36.3034C36.8082 19.6998 37.2401 19.2615 37.2401 18.7569V17.4191C37.2401 16.9144 36.8082 16.4824 36.3034 16.4824H34.9593Z" fill="#D1D1D1"/>
    <path d="M10.5508 22.6177C10.0451 22.6177 9.6123 23.0516 9.6123 23.5573V24.8955C9.6123 25.4009 10.0451 25.8351 10.5508 25.8351H11.8912C12.3969 25.8351 12.8297 25.4009 12.8297 24.8955V23.5573C12.8297 23.0516 12.3969 22.6177 11.8912 22.6177H10.5508Z" fill="#D1D1D1"/>
    <path d="M18.605 22.6177C18.0993 22.6177 17.6665 23.0516 17.6665 23.5573V24.8955C17.6665 25.4009 18.0993 25.8351 18.605 25.8351H19.9454C20.4512 25.8351 20.8839 25.4009 20.8839 24.8955V23.5573C20.8839 23.0516 20.4512 22.6177 19.9454 22.6177H18.605Z" fill="#D1D1D1"/>
    <path d="M26.9112 22.6177C26.4064 22.6177 25.9683 23.0516 25.9683 23.5573V24.8955C25.9683 25.4009 26.4064 25.8351 26.9112 25.8351H28.249C28.7537 25.8351 29.1856 25.4009 29.1856 24.8955V23.5573C29.1856 23.0516 28.7537 22.6177 28.249 22.6177H26.9112Z" fill="#D1D1D1"/>
    <path d="M34.9593 22.6177C34.4546 22.6177 34.0227 23.051 34.0227 23.5559V24.8921C34.0227 25.3967 34.4764 25.977 34.9593 25.8302L36.3034 25.4216C36.7864 25.2751 37.2401 24.988 37.2401 24.4834V23.5559C37.2401 23.051 36.8082 22.6177 36.3034 22.6177H34.9593Z" fill="#D1D1D1"/>
    <path d="M10.5508 28.7546C10.0384 28.7546 9.61238 29.1848 9.61238 29.6946V30.3751C9.60114 31.2757 10.814 31.5737 11.2218 30.7708C11.6312 31.5689 12.8374 31.2721 12.8297 30.3751V29.6946C12.8297 29.1848 12.4036 28.7546 11.8912 28.7546H10.5508Z" fill="#D1D1D1"/>
    <path d="M18.605 28.7546C18.0926 28.7546 17.6665 29.1848 17.6665 29.6946V30.3751C17.6586 31.2721 18.865 31.5689 19.2744 30.7708C19.6822 31.5737 20.8947 31.2757 20.8838 30.3751V29.6946C20.8838 29.1848 20.4578 28.7546 19.9454 28.7546H18.605Z" fill="#D1D1D1"/>
    <path d="M26.9148 28.7546C26.4024 28.7546 25.9764 29.1848 25.9764 29.6946V30.3751C25.9652 31.2757 27.178 31.5737 27.5858 30.7708C27.9952 31.5689 29.2014 31.2721 29.1937 30.3751V29.6946C29.1937 29.1918 28.7624 28.7546 28.2552 28.7546H26.9148Z" fill="#D1D1D1"/>
    <path d="M2.38867 29.7295C1.49387 29.7295 0.74314 30.48 0.74314 31.3751V36.2221C0.718432 36.3543 0.718432 36.4892 0.74314 36.6215V49.2032C0.74314 50.0983 1.49387 50.8568 2.38867 50.8568H31.9776C32.8725 50.8568 33.6292 50.0983 33.6292 49.2032V36.7933V36.0545V31.3752C33.6292 30.4801 32.8725 29.7296 31.9776 29.7296L2.38867 29.7295ZM2.88601 31.8724H31.4784V35.3533H2.88601V31.8724ZM2.88601 37.4961H31.4784V48.7038H2.88601V37.4961ZM5.64996 39.9186C4.20301 39.9049 4.20301 42.0826 5.64996 42.0696H21.5608C23.0077 42.0833 23.0077 39.9056 21.5608 39.9186H5.64996Z" fill="#50B3DC"/>
    <path d="M40.3555 23.9614C36.112 23.9614 32.1626 26.1224 29.8727 29.685L28.3629 28.9302C28.2149 28.8566 28.0517 28.8269 27.8876 28.8342C27.2373 28.8754 26.792 29.4986 26.9969 30.1163L28.2791 33.9526C28.4522 34.4593 29.0009 34.7315 29.5093 34.5638L33.3437 33.2875C34.1754 33.0171 34.2564 31.8715 33.4715 31.4842L31.8179 30.6592C33.7321 27.8278 36.9212 26.1079 40.3555 26.1079C46.0653 26.1079 50.6664 30.7153 50.6665 36.4249C50.6664 42.1349 46.0653 46.7439 40.3555 46.7439C35.6816 46.7439 31.6018 43.6116 30.392 39.097C30.3587 38.9576 30.2979 38.8263 30.2131 38.7108C30.1283 38.5953 30.0212 38.4978 29.8982 38.4243C29.7752 38.3508 29.6387 38.3027 29.4967 38.2828C29.3548 38.2629 29.2103 38.2716 29.0718 38.3084C28.9333 38.3452 28.8036 38.4093 28.6903 38.497C28.5769 38.5847 28.4823 38.6943 28.4119 38.8192C28.3416 38.944 28.2969 39.0817 28.2806 39.2241C28.2643 39.3665 28.2767 39.5107 28.317 39.6482C29.7756 45.0916 34.7201 48.8868 40.3555 48.8868C47.2257 48.8868 52.8172 43.295 52.8173 36.4249C52.8172 29.5548 47.2257 23.963 40.3555 23.963V23.9614ZM40.5292 28.8203V28.8615C40.2452 28.866 39.9746 28.9829 39.7766 29.1865C39.5786 29.3902 39.4694 29.6639 39.4728 29.9479V36.2288C39.4479 36.3684 39.451 36.5117 39.4819 36.6502C39.5127 36.7887 39.5707 36.9196 39.6525 37.0356C39.6696 37.0595 39.6876 37.0827 39.7066 37.1051C39.71 37.1051 39.7134 37.1051 39.7167 37.1051C39.7201 37.1051 39.7234 37.1051 39.7268 37.1051C39.748 37.1321 39.7705 37.158 39.7943 37.1829C39.799 37.1829 39.8037 37.1829 39.8085 37.1829C39.8286 37.2017 39.8493 37.2197 39.8708 37.2369C39.8755 37.2369 39.8803 37.2369 39.885 37.2369C39.9092 37.2588 39.9345 37.2795 39.9607 37.2991C39.964 37.2991 39.9674 37.2991 39.9708 37.2991C40.1963 37.4454 40.4685 37.5017 40.7336 37.457H47.0284C47.175 37.4666 47.3221 37.446 47.4604 37.3965C47.5987 37.347 47.7254 37.2697 47.8327 37.1693C47.9399 37.0688 48.0254 36.9474 48.0839 36.8126C48.1423 36.6778 48.1725 36.5324 48.1725 36.3855C48.1725 36.2386 48.1423 36.0932 48.0839 35.9584C48.0254 35.8236 47.9399 35.7023 47.8327 35.6018C47.7254 35.5014 47.5987 35.424 47.4604 35.3745C47.3221 35.325 47.175 35.3045 47.0284 35.3141H41.6308V29.91C41.6328 29.766 41.6058 29.623 41.5514 29.4897C41.4971 29.3563 41.4164 29.2353 41.3143 29.1338C41.2122 29.0322 41.0907 28.9523 40.9571 28.8986C40.8234 28.845 40.6804 28.8188 40.5364 28.8215L40.5292 28.8203Z" fill="white"/>
</svg>
