<svg width="41" height="51" viewBox="0 0 41 51" fill="none" xmlns="http://www.w3.org/2000/svg">
    <path d="M6.65535 8.4436C5.58112 8.4436 4.67896 9.33643 4.67896 10.4106V44.7708C4.67896 45.8453 5.58112 46.7396 6.65535 46.7396H35.0753C36.1494 46.7396 37.0497 45.8453 37.0497 44.7708V10.4106C37.0497 9.33643 36.1494 8.4436 35.0753 8.4436H6.65535ZM6.69852 10.4537H35.0322V44.7295H6.69852V10.4537ZM16.8087 18.0649V20.0768H17.8148H32.6475H33.6591V18.0649H32.6475H17.8148H16.8087ZM16.8087 24.5783V26.5977H17.8148H32.6475H33.6591V24.5783H32.6475H17.8148H16.8087ZM16.8087 31.0994V33.1168H17.8148H32.6475H33.6591V31.0994H32.6475H17.8148H16.8087ZM16.8087 37.6203V39.6324H17.8148H32.6475H33.6591V37.6203H32.6475H17.8148H16.8087Z" fill="white"/>
    <path d="M20.8647 0.797119C18.6953 0.797119 16.8709 2.2988 16.4306 4.33014H10.7058H2.88096C1.80683 4.33014 0.914062 5.22467 0.914062 6.29911V48.8793C0.914062 49.9534 1.80683 50.8538 2.88096 50.8538H38.8484C39.9227 50.8538 40.8173 49.9534 40.8173 48.8793V6.29911C40.8173 5.22467 39.9227 4.33014 38.8484 4.33014H31.0181H25.3007C24.8611 2.29782 23.0348 0.797119 20.8647 0.797119ZM20.8647 2.81476C21.9315 2.81476 22.8325 3.42355 23.2064 4.33014H18.525C18.8988 3.42355 19.7979 2.81476 20.8647 2.81476ZM2.92412 6.34778H8.73694V12.5859C8.73694 13.6604 9.63172 14.5546 10.7058 14.5546H31.0181C32.0922 14.5546 32.9944 13.6604 32.9944 12.5859V6.34778H38.8073V48.8361H2.92412V6.34778ZM10.7545 6.34778H30.9768V12.5352H10.7545V6.34778Z" fill="#D1D1D1"/>
    <path d="M14.5499 15.9915L13.8343 16.707L11.236 19.3054L10.2375 18.3069L9.5294 17.5914L8.1001 19.0207L8.81561 19.7287L11.236 22.151L15.2579 18.129L15.9735 17.4152L14.5499 15.9915ZM14.5499 22.5123L13.8343 23.2206L11.236 25.8188L10.2375 24.8278L9.5294 24.1122L8.1001 25.536L8.81561 26.2496L11.236 28.6719L15.2579 24.6424L15.9735 23.9343L14.5499 22.5123ZM14.5499 29.0259L13.8343 29.7417L11.236 32.3399L10.2375 31.3414L9.5294 30.6333L8.1001 32.0551L8.81561 32.7707L11.236 35.1855L15.2579 31.1635L15.9735 30.4552L14.5499 29.0259ZM14.5499 35.547L13.8343 36.2625L11.236 38.8608L10.2375 37.8624L9.5294 37.1542L8.1001 38.578L8.81561 39.2842L11.236 41.7063L15.2579 37.6843L15.9735 36.9708L14.5499 35.547Z" fill="#50B3DC"/>
</svg>
