<svg width="360" height="612" viewBox="0 0 360 612" fill="none" xmlns="http://www.w3.org/2000/svg">
    <g filter="url(#filter0_i)">
        <path d="M102.51 144.669C95.0758 145.905 84.0227 150.547 79.4254 152.714C78.1029 153.322 78.7331 154.524 79.2135 155.049C83.178 157.292 84.5063 160.86 84.6749 162.363C84.112 165.462 86.4671 171.317 87.6861 173.401C88.9051 175.485 90.5969 183.218 91.5783 185.592C92.3635 187.49 94.5591 186.624 95.5588 185.953C100.329 182.013 110.959 173.596 115.323 171.445C119.686 169.294 120.933 167.293 121.012 166.562C121.171 165.457 121.532 162.38 121.707 158.907C121.881 155.434 119.846 154.192 118.807 154.006C116.525 154.324 116.088 153.193 116.155 152.588C116.482 149.629 117.047 143.151 116.688 140.903C116.328 138.655 115.019 139.113 114.41 139.623L102.51 144.669Z" fill="#E5E5E5"/>
        <path d="M124.916 130.92C124.424 132.62 124.051 133.991 123.926 134.465L121.767 136.138C118.876 136.346 118.707 138.825 118.984 140.038L118.195 148.724C116.983 152.462 119.635 153.158 121.113 153.038L130.302 155.741C131.279 156.361 134.866 157.748 141.402 158.341C147.938 158.935 149.62 154.68 149.644 152.479L150.357 136.864C151.275 135.286 148.318 134.118 146.639 135.938C145.296 137.395 144.531 136.797 144.317 136.316L145.099 127.699C144.222 126.817 144.987 124.539 145.479 123.511C146.856 123.553 146.981 122.09 146.872 121.353C146.573 120.899 145.984 119.5 146.022 117.538C146.059 115.575 144.944 116.09 144.382 116.593C140.878 118.352 133.061 122.404 129.825 124.547C125.78 127.226 125.532 128.795 124.916 130.92Z" fill="#E5E5E5"/>
        <path d="M61.0165 178.664C55.664 184.574 51.9633 192.944 50.7821 196.39L48.6835 199.73C45.7326 202.453 47.5418 207.91 48.8153 210.299C50.5367 211.812 51.9049 216.336 52.3738 218.41C53.1954 220.838 57.9341 220.887 60.2007 220.608L95.2366 219.359C105.859 219.458 108.269 221.615 107.717 227.691C107.401 231.175 108.546 231.609 109.694 231.505C113.047 230.868 113.242 233.142 112.92 234.359C112.751 234.805 112.432 236.329 112.512 238.856C112.612 242.015 114.07 240.694 118.48 241.752C122.008 242.598 123.169 241.289 123.309 240.529L124.248 236.772C126.078 236.163 127.35 233.5 127.757 232.245C129.254 227.231 131.303 226.152 132.139 226.24L141.934 226.541C144.475 226.079 144.29 221.528 142.405 221.357L137.831 220.942C136.05 220.78 133.989 218.668 136.281 218.24C139.146 217.704 137.875 215.027 137.125 214.371C136.525 213.845 133.684 211.555 132.339 210.475C128.648 208.859 130.008 204.345 130.375 203.409C130.742 202.473 131.343 199.343 127.323 196.313C124.107 193.889 127.406 192.167 128.412 190.909C129.492 188.572 130.296 185.542 130.585 186.745C131.403 190.142 134.419 191.823 135.825 192.239C139.231 194.431 139.058 197.471 138.546 198.716C138.087 201.914 141.354 206.044 143.045 207.709C145.749 204.043 151.15 196.531 151.131 195.809C151.108 194.907 141.138 186.838 136.651 183.142C133.061 180.186 124.763 176.167 121.063 174.528C118.735 171.935 117.013 172.729 116.443 173.451L109.637 177.851C106.493 180.035 99.4014 185.118 96.1842 187.983C91.7717 191.216 91.0495 188.832 90.4928 187.466L85.4945 174.275C84.7138 168.915 81.2147 161.83 79.5628 158.957C77.7132 156.839 74.1373 153.03 74.6301 154.737C75.123 156.443 72.8388 162.189 71.635 164.848C70.3257 166.991 66.369 172.753 61.0165 178.664Z" fill="#E5E5E5"/>
        <path d="M66.4275 140.39C67.4522 144.304 69.714 146.457 70.7168 147.044C72.961 149.239 74.009 151.15 74.4282 152.572C75.8917 151.875 79.2207 150.238 80.8288 149.277C82.839 148.075 93.7122 144.251 96.6539 144.034C99.0072 143.86 103.376 142.498 105.267 141.839C108.299 139.853 114.866 135.843 116.879 135.694C118.892 135.544 120.956 133.826 121.737 132.985C123.742 128.737 125.634 125.344 125.826 124.392C126.018 123.44 138.702 115.177 146.08 114.186C151.981 113.392 160.054 116.008 163.353 117.415C163.512 118.514 164.362 120.414 166.498 119.224C168.634 118.033 167.315 115.652 166.389 114.611C164.909 113.535 164.285 110.128 164.157 108.558C165.127 104.078 163.373 102.199 162.375 101.82C159.909 101.07 159.704 98.1513 159.91 96.7856C160.654 93.558 159.413 90.891 158.699 89.9609C158.139 88.9963 158.599 88.0943 158.899 87.7638L162.355 88.0777C177.106 88.2054 207.693 88.0611 212.034 86.4616C216.376 84.8621 218.284 80.5681 218.696 78.6211C218.513 77.5315 218.537 75.2493 220.095 74.837C221.654 74.4247 223.264 71.9866 223.875 70.819C224.535 69.3675 225.648 66.4112 224.823 66.1978C223.997 65.9844 221.738 64.2448 220.711 63.4017C214.761 58.2097 206.632 54.3243 203.311 53.0306C200.049 51.7376 200.579 53.9132 201.252 55.1626C201.698 56.1445 201.263 57.4942 200.99 58.0462C200.016 59.7853 195.258 57.2028 193.001 55.6942C180.509 49.8182 170.854 49.53 167.572 49.2321C164.29 48.9341 164.01 52.4045 163.826 56.3682C163.642 60.3318 160.049 63.4668 159.51 64.3524C159.08 65.061 152.848 70.6584 149.785 73.3685C148.245 71.0966 148.611 66.6511 148.987 64.7123C152.664 63.3016 157.623 59.5546 159.643 57.8574C161.267 54.239 158.797 53.2118 157.359 53.1505L154.601 52.9001C153.035 52.1488 154.067 51.2825 154.778 50.9433C163.196 46.9449 161.384 43.5823 159.426 42.4008C155.026 40.9214 151.664 45.3073 150.533 47.6851C149.7 49.1047 148.147 48.7607 147.475 48.4112C147.342 47.1532 146.566 46.0097 146.302 45.4319C146.09 44.9697 148.213 42.6057 149.301 41.4815C150.231 37.8279 146.152 37.3883 144.478 38.3785C139.812 41.9976 135.119 42.9744 133.355 43.0105C131.109 43.2495 131.05 41.9013 131.302 41.1973C134.537 39.9958 137.124 37.434 138.013 36.3032C139.194 32.2848 134.981 31.5631 132.727 31.7045C132.319 31.4137 131.389 31.0846 130.931 32.0953C130.474 33.1059 127.256 36.515 125.705 38.0932C125.045 38.5317 118.919 44.0764 115.938 46.794C113.333 49.4996 113.28 51.6406 112.696 57.2986C112.229 61.8249 110.172 64.4187 109.202 65.1498C106.343 67.6823 99.8909 74.0235 96.9491 79.1282C94.0073 84.2329 89.6006 85.3604 87.765 85.286L52.3948 82.0748L47.796 89.6874C43.7025 95.3798 43.7533 100.223 44.2904 101.933C45.3548 103.857 45.3209 105.834 45.1709 106.582C45.1235 108.654 45.8724 112.426 46.2528 114.053C48.5019 119.137 50.0264 119.795 55.4696 121.881C59.8242 123.55 61.26 126.606 61.4336 127.926C62.4098 130.202 65.1696 137.183 66.4275 140.39Z" fill="#E5E5E5"/>
        <path d="M122.992 166.465C122.849 168.972 121.43 170.096 120.739 170.345C119.426 171.61 121.305 172.565 122.409 172.885L128.909 176.521C131.059 177.65 135.562 180.24 136.372 181.559C137.182 182.879 140.69 181.432 142.343 180.544C142.986 179.668 144.375 177.558 144.786 176.128C145.198 174.697 147.38 174.183 148.42 174.104C148.934 173.735 150.027 172.45 150.283 170.258C150.538 168.066 148.682 167.205 147.723 167.049L142.974 166.618L131.609 164.617C129.972 164.295 126.375 163.325 125.085 162.017C123.474 160.383 123.171 163.332 122.992 166.465Z" fill="#E5E5E5"/>
        <path d="M123.002 157.432C123.113 158.688 125.383 159.644 126.504 159.965C127.017 160.131 130.829 163.127 137.015 163.619C141.964 164.013 147.2 165.052 149.199 165.522C151.911 166.045 152.132 168.118 151.903 169.09C151.832 169.868 151.764 171.777 152.058 173.188C152.353 174.599 150.176 175.186 149.05 175.303C148.608 175.263 147.522 175.774 146.716 178.137C145.91 180.501 142.138 182.936 140.352 183.859L142.519 185.198C144.781 186.649 147.785 189.241 150.332 192.207C152.37 194.579 153.835 193.436 154.312 192.568C155.304 191.077 157.861 188.065 160.154 187.941C162.446 187.817 162.084 185.163 161.616 183.851C160.942 179.775 159.541 171.424 159.332 170.63C159.07 169.637 159.046 162.92 159.18 161.444C159.287 160.263 158.933 152.526 158.743 148.805L157.688 149.575C151.304 152.567 150.425 155.249 150.783 156.216C146.362 159.934 147.688 159.673 144.201 160.084C141.031 160.457 135.691 159.98 133.237 159.088C131.562 158.025 127.594 155.793 125.125 155.375C122.039 154.853 122.863 155.862 123.002 157.432Z" fill="#E5E5E5"/>
        <path d="M169.201 143.352C168.249 143.597 162.911 146.842 160.361 148.433C160.324 148.845 160.388 155.369 160.426 158.58L160.607 168.219C160.805 170.948 161.396 176.666 162.174 177.706C163.148 179.006 163.083 183.984 163.434 187.097C163.715 189.587 165.223 190.663 165.941 190.889L169.716 193.516C172.597 196.215 174.618 194.977 175.268 194.02C175.999 193.072 178.201 191.725 181.155 193.932C184.109 196.138 184.649 193.442 184.55 191.817C184.687 190.307 184.769 187.005 183.998 185.883C183.227 184.761 184.19 179.763 184.768 177.404C185.216 174.791 186.216 169.436 186.629 168.92C187.042 168.404 187.756 166.461 188.061 165.554C187.865 159.029 185.574 157.541 184.452 157.612C180.648 156.47 178.451 151.979 177.994 150.034C177.741 148.957 177.351 147.806 176.933 147.376C173.748 142.518 170.391 143.044 169.201 143.352Z" fill="#E5E5E5"/>
        <path d="M162.031 120.341C158.255 116.648 150.845 115.599 147.612 115.536C147.351 115.824 147.026 117.172 147.816 120.262C148.606 123.352 147.709 126.356 147.162 127.471C146.572 129.956 145.494 134.824 145.897 134.417C146.3 134.011 148.122 133.05 148.982 132.621C152.445 132.021 152.774 135.445 152.507 137.232L151.787 150.977C155.462 148.623 163.33 143.732 165.395 143.006C167.461 142.28 168.266 140.209 168.41 139.265C168.513 138.778 168.725 137.355 168.747 135.557C168.775 133.31 169.455 133.579 171.044 129.639C172.316 126.488 169.722 121.328 168.266 119.142L166.78 120.772C166.771 122.168 165.808 124.035 162.031 120.341Z" fill="#E5E5E5"/>
        <path d="M172.967 130.956C170.69 133.075 170.401 138.799 170.54 141.396C173.441 140.857 176.71 143.652 177.982 145.118C179.509 145.367 179.883 148.613 179.879 150.205C180.277 151.404 181.328 152.598 181.804 153.045C182.309 155.237 183.894 155.623 186.647 156.703C189.4 157.784 189.654 163.137 189.801 164.224C189.949 165.31 189.182 167.559 188.305 169.072C187.604 170.282 187.287 173.433 187.217 174.857C186.585 176.849 185.774 180.403 185.448 181.931L187.055 182.838C187.894 183.041 189.835 183.243 190.895 182.425C192.22 181.403 195.981 181.468 198.138 180.971C199.864 180.574 202.159 184.244 203.091 186.128C204.674 188.083 208.22 192.063 209.744 192.339C211.268 192.616 211.222 195.577 211.009 197.023C210.613 197.506 209.831 198.91 209.869 200.658C209.917 202.843 213.391 206.065 213.971 207.433C214.551 208.801 216.464 206.344 217.269 205.621C218.074 204.898 219.816 204.71 221.882 204.829C223.535 204.923 224.698 204.185 225.073 203.803C225.44 202.867 226.809 203.557 227.448 204.019C228.032 204.822 229.458 206.153 230.487 205.056C231.516 203.959 236.665 205.121 239.111 205.839C239.593 206.737 240.88 208.928 242.172 210.513C243.464 212.098 244.897 211.902 245.452 211.607C246.092 211.019 247.972 209.759 250.368 209.422C252.764 209.086 254.492 210.789 255.056 211.683C256.149 212.047 258.79 212.43 260.606 211.044C262.421 209.658 266.639 213.092 268.521 214.982C267.886 214.866 267.689 215.924 271.981 221.076C276.273 226.228 284.483 225.418 288.052 224.37L311.994 220.071C316.493 219.842 318.27 221.898 318.597 222.955L321.7 231.82C322.247 232.922 323.045 232.381 323.376 231.972C325.819 230.81 329.818 224.735 331.512 221.843C331.354 218.312 333.12 215.632 334.024 214.733C341.275 207.14 344.56 194.715 345.296 189.451C345.463 185.671 345.8 177.847 345.811 176.796C345.825 175.482 343.54 175.447 342.966 175.949C342.507 176.35 341.076 175.962 340.417 175.717C336.986 173.571 338.278 169.812 338.637 164.688C338.925 160.588 336.759 159.66 335.64 159.708C337.738 150.554 334.685 146.573 334.93 145.038C335.175 143.502 332.305 143.311 331.927 144.765C331.624 145.928 330.264 145.11 329.622 144.556C329.129 143.784 327.851 142.353 326.684 142.801C325.225 143.36 325.298 147.209 325.201 148.273C319.207 150.706 319.083 145.087 317.087 143.418C315.092 141.748 316.05 138.166 316.854 138.239C317.496 138.298 318.699 136.653 319.22 135.824C317.312 133.32 313.369 128.688 312.867 130.193C312.364 131.698 309.817 133.932 308.606 134.86C298.922 136.438 293.868 129.68 292.406 128.336C291.236 127.26 292.407 122.51 293.138 120.268C291.728 119.517 288.558 117.513 287.164 115.503C285.42 112.992 281.495 109.312 280.057 107.694C278.908 106.399 278.624 107.067 278.626 107.564C279.217 108.286 279.731 109.81 277.056 110.121C273.711 110.509 271.359 108.496 270.522 104.924C269.852 102.067 261.533 93.9437 257.457 90.2394L228.033 67.2854C224.942 72.2542 218.398 83.0659 216.954 86.5621C215.51 90.0584 196.641 90.3135 187.387 90.0041L161.182 90.5324C161.829 90.9027 162.903 92.5162 162.023 96.0082C161.142 99.5002 163.532 100.841 164.837 101.075C165.697 101.418 167.275 102.528 166.699 104.22C166.122 105.913 166.45 108.894 166.686 110.173L171.333 119.87C172.826 122.683 175.243 128.837 172.967 130.956Z" fill="#E5E5E5"/>
        <path d="M318.909 139.257C317.749 138.071 317.39 139.569 317.355 140.465C318.37 142.092 320.623 145.497 321.526 146.105C322.654 146.865 323.74 145.372 323.655 144.36C323.588 143.551 322.65 143.934 322.189 144.227L320.678 142.255C320.572 141.75 320.068 140.442 318.909 139.257Z" fill="#E5E5E5"/>
        <path d="M297.054 123.67C295.476 121.505 295.04 122.968 295.02 123.97C293.279 128.796 300.723 133.279 306.872 132.245C311.791 131.418 311.528 129.045 310.781 127.962C310.183 126.662 308.845 123.924 308.276 123.373C307.564 122.686 306.376 124.516 306.07 125.561C305.825 126.398 304.008 126.816 303.131 126.921C301.762 126.739 298.632 125.834 297.054 123.67Z" fill="#E5E5E5"/>
        <path d="M155.866 216.557L154.063 214.316C153.878 213.123 154.08 210.787 156.371 210.995C158.661 211.203 160.282 214.442 160.807 216.036C161.412 221.463 169.546 222.275 173.537 222.003C172.282 222.258 170.614 222.707 173.988 222.459C177.362 222.212 177.559 223.591 177.235 224.311C176.251 224.914 176.598 227.057 176.895 228.053C177.737 230.262 180.068 229.945 181.128 229.511C181.773 228.612 183.274 226.66 184.118 226.044C184.963 225.428 188.102 226.117 189.565 226.539C192.476 227.052 196.805 232.745 198.606 235.528C200.216 238.277 205.36 239.464 207.732 239.714C209.674 238.478 217.711 241.6 221.486 243.316C222.379 244.338 234.451 244.885 240.376 245.031C243.529 243.185 254.228 250.407 259.183 254.249C262.126 256.261 268.376 256.526 271.132 256.407C275.54 256.558 280.319 256.422 282.158 256.335L287.803 253.871C292.922 253.713 299.148 249.501 300.669 248.255C301.886 247.258 310.083 243.318 314.029 241.473C316.176 239.231 317.95 237.191 318.569 236.451C321.931 235.399 320.418 231.069 319.242 229.036L316.876 224.46C316.408 220.928 311.939 221.45 309.763 222.153L287.887 226.189C283.149 227.808 278.988 226.881 277.499 226.215C272.347 225.581 268.568 220.282 267.323 217.711C264.598 214.224 261.593 213.095 260.431 212.967C257.449 214.8 254.348 214.053 253.171 213.45C252.659 212.109 250.748 210.124 247.2 212.908C243.652 215.691 240.787 212.327 239.798 210.297C236.696 205.689 235.565 207.282 232.981 207.048L228.407 206.633C225.737 205.802 219.723 204.958 217.032 208.23C214.341 211.503 212.256 209.262 211.55 207.733C208.207 204.854 207.567 199.653 207.664 197.412C210.076 195.665 208.459 193.826 207.349 193.126L201.84 187.503C200.985 186.318 199.01 183.771 197.948 183.065C196.886 182.36 195.667 183.112 195.191 183.577C194.87 184.136 194.059 185.114 193.377 184.554C192.696 183.994 190.649 184.099 189.711 184.221C189.07 184.694 187.607 185.442 186.89 184.657C186.173 183.872 185.478 184.183 185.22 184.437L187.273 191.303C186.791 196.603 183.341 196.865 181.676 196.333C179.806 195.222 177.382 195.551 176.404 195.854C172.603 197.392 170.258 196.081 169.56 195.233L161.82 189.754C156.756 190.623 150.026 200.359 147.294 205.118C144.815 206.056 144.84 208.749 145.163 209.978C146.682 211.985 150.356 216.292 152.897 217.464C155.438 218.636 155.935 217.347 155.866 216.557Z" fill="#E5E5E5"/>
        <path d="M51.9793 72.692C54.3701 73.6567 54.0368 77.6898 53.5713 79.5859C53.5133 79.8301 53.4273 80.1011 53.3178 80.3934C62.609 81.2139 82.2095 82.8849 86.2823 83.0055C90.355 83.126 92.9248 81.0588 93.7007 80.0101C96.0703 76.1411 101.709 67.73 105.304 65.0383C108.9 62.3466 109.6 61.2863 109.5 61.0927C110.548 53.8155 111.632 45.7455 117.78 42.0118C123.928 38.278 127.477 32.9238 128.691 32.3419C129.906 31.7599 129.699 29.7683 128.931 29.6985C128.317 29.6427 128.53 28.9468 128.714 28.6058C129.396 28.5294 129.842 27.2892 129.98 26.6787C129.612 23.904 132.003 24.8202 133.244 25.6251C133.624 27.0165 136.456 27.7281 137.824 27.91C140.59 28.1611 142.351 29.1055 142.886 29.5464C151.854 33.1295 153.065 27.0324 152.549 23.5359C152.494 19.1836 147.238 18.7041 144.617 19.0084C143.185 20.512 141.117 18.01 140.262 16.571C139.847 15.8689 138.965 14.9534 138.576 14.5835L131.282 8.07183C128.599 6.91448 128.571 9.10636 128.893 10.347L129.431 11.3996L131.611 17.2393C132.426 20.6707 129.522 20.4762 128.779 18.5743C128.76 17.548 127.464 15.9975 126.819 15.3506C124.379 13.9176 123.646 17.2085 123.566 19.3818C122.818 21.4182 124.362 23.0305 125.227 23.5821C125.805 23.9346 126.235 24.8089 123.329 25.4865C120.423 26.1641 118.673 25.4561 118.161 25.0174C117.523 24.2949 116.592 23.8135 116.207 23.6632L109.703 19.3C105.555 17.8434 105.676 20.7457 106.255 22.3789C107.774 28.9131 104.97 33.3035 103.378 34.6819C102.702 36.6972 92.5691 35.085 91.9955 33.6484C88.9168 31.2645 86.3025 34.7007 85.3802 36.7167C84.3921 39.5344 78.5864 43.8184 75.8071 45.6082C67.7627 46.1931 67.3108 51.1708 67.2765 51.5484C66.1988 60.0066 62.8871 64.8678 61.366 66.2411C60.1959 67.9624 57.5851 67.5592 56.426 67.1424C53.6881 66.5893 51.7579 68.0223 51.135 68.808C48.256 70.4295 49.5239 71.4307 50.5178 71.7286L51.9793 72.692Z" fill="#E5E5E5"/>
        <path d="M132.266 226.202L142.06 226.503C142.527 227.485 144.019 229.21 146.258 228.251C148.496 227.291 150.921 228.384 151.854 229.05C152.586 230.316 154.612 232.647 156.85 231.848C159.648 230.849 161.646 234.246 159.448 234.846C157.25 235.445 155.851 236.644 158.849 237.843C161.247 238.803 161.047 239.709 160.647 240.042C158.515 240.108 153.972 240.362 152.853 240.841C151.734 241.321 152.387 241.707 152.853 241.841C155.718 241.441 161.806 241.281 163.245 243.839C164.684 246.397 167.709 247.037 169.041 247.037C169.974 246.837 172.079 246.837 173.038 248.436C173.997 250.034 175.436 250.701 176.036 250.834L179.633 254.831L179.233 275.016C179.553 278.853 178.567 280.345 178.034 280.612C176.902 281.078 173.398 281.851 168.441 281.211C163.485 280.572 162.779 282.544 163.045 283.61C163.112 286.541 163.165 292.603 162.846 293.402C162.526 294.202 161.913 294.268 161.646 294.202L137.664 294.202C134.267 294.468 127.432 294.841 127.272 294.202C127.112 293.562 126.672 293.269 126.472 293.203C120.477 292.936 108.246 292.403 107.287 292.403C106.327 292.403 106.087 292.003 106.087 291.804C105.954 291.404 105.768 290.325 106.087 289.206C106.407 288.086 104.755 287.807 103.889 287.807C97.2273 287.474 83.5041 286.807 81.9053 286.807C80.3065 287.007 79.6403 286.541 79.5071 286.408C79.2406 285.408 78.7876 283.01 79.1074 281.411C79.4271 279.812 77.3753 279.28 76.3094 279.213C74.3775 279.08 70.114 278.893 68.5152 279.213C66.9164 279.533 65.9837 278.68 65.7173 278.214L65.3176 272.818L66.5167 272.018C66.7831 269.287 66.9963 263.584 65.7173 262.625C64.4382 261.666 63.9852 258.895 63.9186 257.629C64.1851 255.164 64.3583 249.755 62.9193 247.836C61.4804 245.918 59.5218 241.841 58.7224 240.042L52.4999 218.372C53.3215 220.8 58.0602 220.85 60.3268 220.571L95.3628 219.321C105.985 219.421 108.395 221.578 107.843 227.654C107.527 231.137 108.673 231.571 109.82 231.468C113.173 230.831 113.368 233.105 113.046 234.322C112.877 234.768 112.558 236.292 112.638 238.819C112.738 241.978 114.196 240.656 118.606 241.714C122.134 242.561 123.295 241.252 123.435 240.491L124.374 236.735C126.204 236.125 127.476 233.463 127.883 232.208C129.38 227.193 131.429 226.115 132.266 226.202Z" fill="#CFCFCF"/>
        <path d="M63.319 280.212L62.9193 274.816C61.054 275.616 57.4034 277.614 57.7232 279.213C58.0429 280.812 58.5226 282.011 58.7224 282.411C58.9889 283.476 59.0422 286.168 57.1236 288.406C55.205 290.644 55.2583 294.935 55.5248 296.8C55.658 297.266 55.285 298.559 52.7268 299.998C49.5292 301.796 53.926 305.993 56.3242 306.593C58.7224 307.192 59.4883 311.157 59.322 311.989C59.1221 312.988 62.9193 312.988 64.1184 312.988L71.513 313.787C72.7787 314.12 75.2302 314.947 74.9105 315.586C74.5108 316.385 77.1089 317.185 78.308 317.185C79.2673 317.185 81.1059 318.65 81.9053 319.383C81.7055 321.049 81.5856 324.739 82.7047 326.178C83.8239 327.617 83.704 329.043 83.5041 329.576C83.3043 330.708 83.744 333.173 87.1015 333.973C90.459 334.772 91.4316 336.304 91.4982 336.97L90.6988 346.563C91.1652 347.03 92.0978 348.242 92.0978 349.361C92.0978 350.76 93.0971 351.56 94.2962 351.36C95.2555 351.2 95.7618 353.558 95.895 354.757C98.4931 356.289 104.409 359.274 107.287 358.954C110.164 358.634 116.08 359.487 118.678 359.953C121.01 359.42 125.833 357.995 126.472 356.556C127.272 354.757 130.469 355.157 131.269 356.556C131.908 357.675 131.802 353.691 131.669 351.56C131.202 350.094 131.629 347.243 137.065 347.562C138.064 347.296 139.982 346.044 139.663 343.166L140.062 338.969L127.272 325.179C126.672 324.646 125.913 323.141 127.672 321.382C129.43 319.623 133.734 315.053 135.666 312.988C136.265 312.588 136.745 311.149 133.867 308.591C130.989 306.033 132.135 303.795 133.068 302.995C133.667 302.263 134.906 300.637 135.066 299.998C135.266 299.198 135.865 296.2 136.265 296.2L135.266 296.2C131.868 296.467 125.033 296.84 124.874 296.2C124.714 295.561 124.274 295.268 124.074 295.201C118.079 294.935 105.848 294.402 104.888 294.402C103.929 294.402 103.689 294.002 103.689 293.802C103.556 293.402 103.369 292.323 103.689 291.204C104.009 290.085 102.357 289.805 101.491 289.805C94.8291 289.472 81.1059 288.806 79.5071 288.806C77.9083 289.006 77.2421 288.539 77.1089 288.406C76.8424 287.407 76.3894 285.009 76.7092 283.41C77.0289 281.811 74.9771 281.278 73.9112 281.211C71.9793 281.078 67.7158 280.892 66.117 281.211C64.5182 281.531 63.5855 280.678 63.319 280.212Z" fill="#CFCFCF"/>
        <path d="M164.844 295.401C164.524 296.2 163.911 296.267 163.645 296.2L137.664 296.2C137.281 298.132 136.106 302.476 134.467 304.394C132.827 306.313 134.983 308.125 136.265 308.791C137.531 309.924 139.503 312.548 137.264 313.987C135.026 315.426 130.736 320.316 128.871 322.581C128.404 322.981 127.831 323.98 129.27 324.779C130.709 325.579 136.798 332.574 139.663 335.971L144.059 331.774C144.859 331.441 147.657 330.815 152.453 330.975C157.25 331.135 173.504 331.841 181.032 332.174C182.031 332.24 184.19 332.733 184.829 334.172C185.469 335.611 190.026 335.305 192.224 334.972C192.557 333.373 192.224 329.776 188.227 328.177C184.23 326.578 187.094 324.846 189.026 324.18C189.293 323.247 189.066 320.942 186.028 319.183C182.991 317.425 184.23 314.32 185.229 312.988C185.496 311.989 185.229 309.75 182.031 308.791C178.834 307.832 179.766 304.528 180.632 302.995C180.632 302.729 180.433 302.276 179.633 302.596C178.834 302.915 177.302 300.73 176.635 299.598C176.635 299.132 177.115 298.679 179.034 300.597C180.952 302.516 181.165 298.865 181.032 296.8C181.232 296.334 182.071 295.721 183.83 297C185.589 298.279 185.629 295.401 185.429 293.802C185.429 293.136 185.709 291.804 186.828 291.804C187.947 291.804 187.561 289.805 187.228 288.806C187.094 288.206 187.108 287.167 188.227 287.807C189.346 288.446 189.093 287.14 188.826 286.408L185.229 276.215C185.096 275.416 185.349 274.097 187.427 275.216C189.506 276.335 189.226 271.152 188.826 268.421C188.36 267.888 187.308 266.902 186.828 267.222C186.348 267.542 186.228 264.957 186.228 263.624C185.762 261.804 184.19 257.695 181.632 255.83L181.232 277.015C181.552 280.852 180.566 282.344 180.033 282.61C178.9 283.077 175.396 283.849 170.44 283.21C165.484 282.57 164.778 284.542 165.044 285.608C165.111 288.539 165.164 294.601 164.844 295.401Z" fill="#CFCFCF"/>
        <path d="M70.3139 315.186C67.2761 314.867 61.3205 314.254 58.7224 313.987C55.8446 313.691 54.0592 315.463 53.5263 316.385C49.7291 321.782 55.1251 333.973 57.3235 333.173C59.5218 332.374 63.319 333.973 62.3198 334.572C61.5204 335.052 61.587 337.703 61.7202 338.969C62.5196 340.368 63.6388 343.286 61.7202 343.765C59.322 344.365 59.5218 347.163 60.3212 349.361C60.9608 351.12 60.9874 356.489 60.9208 358.954L63.319 358.954C67.7158 358.355 69.7143 354.757 71.513 352.759C72.9519 351.16 74.3775 352.092 74.9105 352.759C75.4434 353.225 76.869 354.118 78.308 353.958C79.7469 353.798 81.3058 354.424 81.9053 354.757C89.1 359.074 97.6937 359.087 101.091 358.554L95.0956 355.956C94.8291 354.824 94.0564 352.599 93.0971 352.759C92.1378 352.919 91.0985 351.893 90.6988 351.36C90.6988 350.694 90.5389 349.161 89.8994 348.362C89.2599 347.562 88.9668 345.497 88.9002 344.565C89.0334 343.632 89.4198 341.127 89.8994 338.569C90.499 335.371 88.1007 336.171 85.9024 335.371C83.704 334.572 81.9053 331.774 82.305 330.775C82.6248 329.975 82.1718 327.91 81.9053 326.978C81.3058 326.112 80.2266 323.86 80.7062 321.782C81.1858 319.703 80.1066 319.05 79.5071 318.984C76.949 318.664 74.8439 317.651 74.1111 317.185C74.1111 316.652 73.3516 315.506 70.3139 315.186Z" fill="#CFCFCF"/>
        <path d="M69.9142 357.755C68.6351 359.194 64.3183 360.353 62.3198 360.753C64.3183 362.685 68.6351 366.668 69.9142 367.148C71.1932 367.628 71.2465 368.281 71.1133 368.547C70.5137 369.28 69.9142 371.825 72.3124 376.141C74.7106 380.458 71.7128 385.401 69.9142 387.333C68.7151 387.999 66.1969 390.011 65.7173 392.729C65.2376 395.447 63.2524 396.926 62.3198 397.326L55.1251 399.324C61.4537 408.051 63.5189 414.113 75.3102 425.905C76.0252 426.62 82.3716 430.568 85.3028 432.7C86.2355 433.499 88.1807 436.057 88.5005 439.894C88.8202 443.732 91.6981 445.89 93.0971 446.489L94.6959 446.489L111.483 445.69C113.016 445.623 116.2 446.33 116.68 449.687C117.159 453.045 120.877 453.884 122.675 453.884C124.74 453.951 129.071 454.044 129.87 453.884C130.669 453.724 131.002 453.018 131.069 452.685C131.136 452.219 131.229 451.046 131.069 450.087C130.909 449.127 131.269 448.621 131.469 448.488C132.401 448.421 134.467 448.328 135.266 448.488C136.065 448.648 136.398 447.888 136.465 447.489L136.465 445.49C136.398 441.427 136.225 432.82 136.065 430.901C135.865 428.503 133.467 428.902 132.468 428.902C131.669 428.902 131.469 428.636 131.469 428.503C131.602 427.437 131.509 425.265 130.07 425.105C128.631 424.945 128.271 424.372 128.271 424.106C128.671 420.375 129.031 412.794 127.272 412.315C125.513 411.835 125.473 410.649 125.673 410.116L125.673 406.319C125.673 405.586 125.433 404.161 124.474 404.321C123.515 404.48 123.275 404.121 123.275 403.921C123.208 403.521 123.075 402.242 123.075 400.324C123.075 398.405 124.008 397.392 124.474 397.126C126.806 396.926 131.469 396.846 131.469 398.125C131.469 399.404 132.135 399.857 132.468 399.924C134.267 399.924 138.064 400.044 138.863 400.523C139.663 401.003 139.863 400.457 139.863 400.124C139.063 394.848 139.529 393.795 139.863 393.928C144.179 395.047 146.458 393.062 147.057 391.93C146.991 391.397 146.378 390.171 144.459 389.532C142.541 388.892 142.061 388.066 142.061 387.733C143.18 384.056 142.794 381.804 142.461 381.138L139.863 378.54C139.263 377.54 137.984 375.382 137.664 374.742C137.264 373.943 138.264 370.745 137.464 368.947C136.665 367.148 132.068 361.152 130.27 358.954C128.471 356.756 127.272 357.755 125.473 358.954C123.674 360.153 117.279 361.352 116.68 360.753C116.2 360.273 109.019 360.02 105.488 359.953L102.49 359.953L99.4923 359.953C95.9616 360.22 90.0993 359.554 85.9024 358.554C83.0093 357.866 81.1725 356.09 80.3065 355.956C79.0408 355.956 76.1895 355.716 74.9105 354.757C73.6314 353.798 72.1125 354.357 71.513 354.757C71.513 355.157 71.1932 356.316 69.9142 357.755Z" fill="#CFCFCF"/>
        <path d="M138.863 368.747C138.064 366.948 133.467 360.953 131.669 358.754C131.535 358.621 131.469 358.315 132.268 358.155C133.068 357.995 133.134 353.691 133.068 351.56C132.934 350.96 133.267 349.721 135.666 349.561C138.663 349.361 140.862 347.762 140.862 346.763C140.862 345.964 141.528 342.033 141.861 340.168C141.928 339.635 141.861 338.329 141.062 337.37C140.262 336.411 143.926 333.773 145.858 332.574C147.457 331.774 168.881 332.614 170.64 332.773L180.433 333.173C181.432 333.373 183.59 333.973 184.23 334.772C185.029 335.771 187.427 336.77 192.624 335.971C193.157 336.304 193.543 337.37 190.825 338.969C188.107 340.568 188.826 340.967 188.826 341.767L191.824 345.364C192.89 346.63 194.622 349.441 193.023 350.56C191.025 351.959 187.827 353.358 191.425 355.756C191.691 355.89 192.424 356.036 193.223 355.557C194.222 354.957 194.822 356.356 194.422 357.555C194.023 358.754 194.422 360.953 196.421 360.953C198.02 360.953 198.419 363.218 198.419 364.35C198.353 364.816 199.139 365.469 202.816 364.35C205.054 363.391 204.815 366.215 204.415 367.748C204.748 368.547 206.134 369.506 209.012 366.948C209.478 366.349 210.37 364.99 210.211 364.35C210.011 363.551 211.21 362.751 212.409 363.751C213.368 364.55 216.406 366.748 217.805 367.748C218.338 368.214 219.244 369.546 218.604 371.145C217.805 373.144 220.603 373.543 220.803 373.743C221.003 373.943 223.001 373.343 223.401 373.743C223.801 374.143 223.001 372.944 226.599 376.941C227.265 377.407 228.197 378.699 226.599 380.138C224.6 381.937 227.798 383.336 227.998 383.536C228.197 383.736 228.797 384.335 228.397 386.933C228.077 389.012 231.328 389.398 232.994 389.332C233.46 389.332 234.513 389.492 234.992 390.131C235.592 390.93 235.592 390.331 235.992 391.73C236.311 392.849 236.125 396.593 235.992 398.325C235.925 398.592 235.912 399.244 236.391 399.724C236.991 400.324 238.19 401.922 236.591 405.32C234.992 408.717 233.993 410.716 232.594 410.916C231.475 411.076 229.463 411.382 228.597 411.515L221.402 411.715L219.804 412.914C218.871 412.315 217.046 410.876 217.205 409.916L217.217 409.846C217.413 408.678 217.574 407.714 216.006 407.518C214.727 407.358 205.614 407.052 201.217 406.919C200.951 406.852 200.618 406.199 201.417 404.121C202.217 402.042 201.484 400.19 201.017 399.524C201.151 399.391 200.378 399.124 196.221 399.124C195.422 399.191 193.863 398.525 194.023 395.327L194.422 391.93C194.622 391.197 194.502 389.771 192.424 389.931C191.957 389.798 191.065 389.372 191.225 388.732C191.425 387.933 190.026 387.533 189.826 387.733C189.626 387.933 187.627 388.732 188.227 383.936C188.707 380.098 188.227 379.939 188.227 379.739C188.427 379.139 187.947 377.82 184.43 377.341C180.912 376.861 175.503 375.275 173.238 374.543C172.772 374.076 170.92 374.463 167.242 379.739C166.643 379.739 167.442 381.138 160.647 379.739C160.381 379.606 159.928 379.139 160.248 378.34C160.647 377.341 159.048 374.942 157.849 375.742C156.65 376.541 149.855 375.942 149.256 374.543C148.656 373.144 147.257 371.545 145.858 372.144C144.739 372.624 141.078 374.343 139.388 375.142C139.246 374.889 139.132 374.681 139.063 374.543C138.663 373.743 139.663 370.546 138.863 368.747Z" fill="#CFCFCF"/>
        <path d="M110.484 447.089L94.2962 447.888C95.2954 450.287 97.0142 455.563 95.895 457.481C94.496 459.88 91.2984 468.673 87.5012 476.667C84.4634 483.062 77.0422 490.657 73.7114 493.655L74.3109 494.654C75.1769 495.786 76.869 498.451 76.7092 500.05C76.5093 502.048 77.7084 503.048 79.1074 504.447C80.2266 505.566 80.2399 506.645 80.1066 507.045C79.6403 507.578 78.9875 508.843 80.1067 509.643C81.5056 510.642 82.1052 513.44 81.7055 514.839C81.3857 515.958 81.8387 517.171 82.1052 517.637C82.7047 517.837 84.4235 518.316 86.5019 518.636C88.5005 518.636 89.1 521.834 88.9002 522.433C88.7003 523.033 88.7003 524.232 92.2976 523.633C95.1755 523.153 95.895 524.765 95.895 525.631C95.9616 527.829 96.1748 532.706 96.4946 534.624C96.8143 536.543 99.559 536.356 100.891 536.023C102.09 536.356 104.449 536.303 104.289 533.425C104.129 530.547 105.155 529.828 105.688 529.828C109.085 530.428 108.885 525.631 108.486 523.633C108.166 522.034 109.685 521.767 110.484 521.834C112.749 522.433 117.519 523.193 118.478 521.434C119.438 519.675 122.209 519.502 123.475 519.635C124.407 520.368 126.033 522.194 125.073 523.633C124.114 525.071 124.94 525.031 125.473 524.832C127.072 523.299 130.469 520.115 131.269 519.636C132.068 519.156 134.666 519.169 135.865 519.236C135.532 519.103 134.706 518.716 134.067 518.237C133.267 517.637 133.467 515.239 134.067 514.639C134.546 514.16 134.267 513.64 134.067 513.44C133.934 511.974 134.027 509.043 135.466 509.043C136.905 509.043 137.398 507.578 137.464 506.845C137.304 501.409 138.73 490.857 139.463 486.26C139.463 484.661 142.461 484.461 143.86 485.461C144.979 486.26 145.525 484.195 145.658 483.062C145.725 482.263 145.898 480.344 146.058 479.065C146.258 477.467 148.256 477.666 149.455 477.866C150.415 478.026 150.521 477.8 150.455 477.666C150.321 477.267 149.935 476.188 149.455 475.068C148.856 473.669 149.256 473.07 149.455 471.471C149.615 470.192 148.989 470.272 148.656 470.472C147.99 470.938 146.218 471.871 144.459 471.871C142.7 471.871 142.927 470.538 143.26 469.872C144.659 466.808 147.537 460.599 147.857 460.279C148.256 459.88 148.256 455.083 148.256 454.284C148.256 453.484 147.057 453.085 145.259 453.085C143.46 453.085 142.061 452.085 141.661 450.886C141.341 449.927 139.929 449.687 139.263 449.687C138.863 449.687 137.464 449.647 135.066 449.487C132.668 449.327 132.335 449.82 132.468 450.087L132.468 452.685C132.468 454.284 130.736 454.95 129.87 455.083C127.272 455.083 121.796 455.003 120.677 454.683C119.278 454.284 116.28 453.284 115.68 449.687C115.201 446.809 112.016 446.756 110.484 447.089Z" fill="#CFCFCF"/>
        <path d="M48.3301 523.633L72.5123 494.654C73.6314 494.654 74.8439 497.585 75.3102 499.051C75.2436 500.05 75.51 502.448 77.1089 504.047C78.7077 505.646 78.7077 506.845 78.5078 507.245C78.1081 508.177 77.6684 510.202 79.1074 510.842C80.5463 511.482 80.6396 513.24 80.5064 514.04C80.3065 514.639 80.0267 515.998 80.5064 516.638C80.986 517.277 80.8394 517.57 80.7062 517.637C77.9749 517.637 72.2325 518.037 71.1133 519.635C69.9941 521.234 71.0467 524.299 71.7128 525.631C71.9793 527.03 71.8727 529.948 69.3146 530.427C66.117 531.027 67.3161 534.624 66.7165 534.624C66.3968 539.581 65.3842 540.154 64.9179 539.821L62.7195 537.822L59.7217 533.425C58.1229 532.826 54.8853 531.387 54.7254 530.427C54.5255 529.228 52.527 529.228 51.3279 529.029C50.3686 528.869 48.9297 525.365 48.3301 523.633Z" fill="#CFCFCF"/>
        <path d="M25.3471 551.812L47.3308 525.032C48.1302 526.83 50.4485 530.627 53.3264 531.427C56.0444 532.066 58.5892 534.225 59.5218 535.224C59.8549 535.69 60.5611 536.743 60.721 537.222C60.9208 537.822 62.9193 539.421 63.319 539.821C63.6388 540.14 63.0526 540.62 62.7195 540.82C62.1199 540.62 61.0807 540.58 61.7202 542.019C62.3597 543.458 60.6543 543.551 59.7217 543.418C58.2561 542.352 55.0851 540.38 54.1258 541.02C53.1665 541.659 55.0585 542.885 56.1243 543.418C56.5241 544.084 56.8038 545.416 54.7254 545.416C52.6469 545.417 52.6602 547.948 52.9267 549.214C52.7269 550.213 52.3671 552.451 52.527 553.411C52.7269 554.61 51.9274 555.009 50.3286 554.21C48.7298 553.411 47.7305 555.609 48.3301 556.408C48.9297 557.208 47.7305 558.607 47.3308 557.807C47.0111 557.168 46.5314 557.008 46.3316 557.008C45.2657 557.341 42.9341 558.247 42.1347 559.206C41.3353 560.166 39.6698 561.072 38.937 561.405C33.501 562.524 32.675 561.205 32.9415 560.405C33.6076 559.473 34.6202 557.488 33.3412 557.008C32.0621 556.528 27.4788 553.344 25.3471 551.812Z" fill="#CFCFCF"/>
        <path d="M73.1118 526.231C72.3124 524.432 71.553 520.675 74.9105 520.035C79.1074 519.236 80.7062 519.236 80.7062 519.236C82.5049 519.436 86.2621 520.035 86.9016 520.835C87.701 521.834 86.3021 524.232 90.6988 525.231C91.8979 524.832 94.2962 524.472 94.2962 526.231C94.2962 527.989 94.6959 530.694 94.8957 531.826C94.6959 533.625 95.0556 537.223 98.0934 537.223C99.6922 537.356 103.09 537.542 103.889 537.223C104.888 536.823 109.085 536.823 110.484 539.221C111.603 541.14 112.949 544.017 113.482 545.217C114.082 547.681 115.201 552.971 114.881 554.41C114.561 555.849 113.549 557.008 113.082 557.408C112.949 557.874 113.357 562.004 111.883 562.004C110.484 562.004 104.489 559.606 102.09 555.209C100.172 551.692 94.7625 544.684 92.2977 541.619C91.0319 539.954 87.8609 536.423 85.3028 535.624C83.0318 534.914 82.6929 534.677 82.8319 534.633C82.552 534.693 82.1052 535.105 82.1052 536.423C82.1052 538.222 79.7069 535.824 79.9068 534.225C80.0667 532.946 79.4405 531.16 79.1074 530.428C77.2421 529.761 73.4316 527.989 73.1118 526.231Z" fill="#CFCFCF"/>
        <path d="M114.281 561.005C114.441 561.644 113.415 562.737 112.882 563.203L113.882 564.003C115.081 564.736 117.999 566.641 120.077 568.399C122.156 570.158 123.874 575.794 124.474 578.392C124.607 579.525 125.193 581.989 126.472 582.789C127.751 583.588 128.604 585.387 128.871 586.186L128.871 593.381C128.871 596.099 131.269 595.713 132.468 595.18C134.4 594.314 138.344 592.542 138.663 592.382C139.063 592.182 140.862 589.384 140.862 587.385C140.862 585.387 146.258 582.389 147.857 581.79C149.455 581.19 148.256 578.992 147.457 577.992C146.658 576.993 150.455 574.795 151.054 576.993C151.654 579.192 154.851 580.191 156.85 580.59C158.849 580.99 161.447 576.394 161.846 574.395C162.246 572.397 161.047 571.797 159.648 569.998C158.249 568.2 155.851 569.998 155.851 570.598C155.851 571.197 154.052 572.796 151.854 571.797C150.095 570.998 148.989 568 148.656 566.601L148.656 561.005C148.656 559.206 148.656 559.606 146.658 558.207C145.059 557.088 144.925 555.476 145.059 554.81C145.725 552.478 146.977 547.295 146.658 545.217C146.258 542.619 144.259 544.017 142.66 542.818C141.062 541.619 139.063 542.818 138.464 542.818C137.864 542.818 137.864 544.617 138.464 545.217C139.063 545.816 138.064 548.414 136.865 548.814C135.905 549.134 135.666 549.347 135.666 549.414C135.732 549.88 135.786 551.012 135.466 551.812C135.066 552.811 132.668 553.61 131.868 553.61C131.069 553.61 130.669 553.61 129.47 554.81C128.271 556.009 127.272 555.209 126.872 554.61C126.472 554.01 126.273 554.41 124.274 553.61C122.276 552.811 122.675 550.812 122.276 549.613C121.956 548.654 121.076 548.414 120.677 548.414C119.811 548.614 118.159 548.654 118.478 547.215C118.798 545.776 118.345 545.15 118.079 545.017C116.813 544.684 114.401 544.257 114.881 545.217C115.361 546.176 115.88 551.878 116.08 554.61C115.814 555.542 115.121 557.408 114.481 557.408C113.682 557.408 114.082 560.206 114.281 561.005Z" fill="#CFCFCF"/>
        <path d="M107.486 531.427C104.609 532.386 105.088 534.491 105.688 535.424C105.621 535.49 106.008 535.744 108.086 536.223C110.164 536.703 111.483 538.155 111.883 538.821C112.35 539.554 113.362 541.26 113.682 542.219C114.002 543.178 114.348 543.418 114.481 543.418L118.079 543.618C118.745 543.818 120.037 544.537 119.877 545.816C119.717 547.095 120.21 547.282 120.477 547.215C121.916 547.375 122.542 547.681 122.675 547.815C123.208 548.281 124.234 549.533 124.074 550.812C123.914 552.092 124.407 552.411 124.674 552.411C125.633 552.251 126.406 552.478 126.672 552.611C127.791 553.89 128.471 553.677 128.671 553.411C129.31 552.771 129.67 552.211 131.269 551.812C133.187 552.132 134.067 551.279 134.267 550.812C134.2 550.146 134.227 548.734 134.866 548.414C135.666 548.015 137.464 546.216 137.264 545.616C137.065 545.017 137.065 544.817 136.865 543.618C136.705 542.659 137.997 541.886 138.663 541.619C139.943 540.82 141.994 541.02 142.86 541.22C143.46 541.486 145.019 542.139 146.458 542.619C147.897 543.098 148.256 545.217 148.256 546.216C147.857 548.015 146.977 552.052 146.658 553.81C146.258 556.009 147.257 557.008 149.056 557.807C150.495 558.447 150.321 560.872 150.055 562.004L149.855 566.201C151.294 563.803 153.519 562.537 154.452 562.204L162.646 561.804L160.248 555.809C158.009 554.85 158.116 553.944 158.449 553.61C158.849 552.811 159.288 551.012 157.849 550.213C156.41 549.414 156.45 548.414 156.65 548.015L163.045 541.22C163.379 540.687 163.765 539.661 162.646 539.821C161.527 539.98 161.513 538.955 161.646 538.422C161.98 536.823 162.526 532.946 162.046 530.228C161.567 527.51 162.246 526.164 162.646 525.831L166.043 522.833C166.31 521.634 166.723 518.676 166.243 516.438C165.763 514.2 163.645 512.707 162.646 512.241C158.249 512.241 159.648 511.641 159.448 511.641C159.248 511.641 158.849 507.844 158.249 506.645C157.649 505.446 154.851 504.846 153.852 504.647C152.853 504.447 152.253 506.245 151.454 507.245C150.814 508.044 149.855 507.844 149.455 507.644C149.322 507.245 148.696 506.245 147.257 505.446C145.818 504.647 144.659 504.58 144.259 504.647C143.46 505.046 141.661 505.246 140.862 502.848C140.062 500.45 139.196 500.65 138.863 501.049C138.73 502.315 138.504 505.046 138.663 505.846C138.863 506.845 137.864 509.843 136.665 510.043C135.706 510.202 135.466 510.909 135.466 511.242C135.786 512.521 135.333 514.573 135.066 515.439C135.066 516.238 134.067 517.237 136.265 518.237C137.912 518.985 137.198 520.102 136.865 520.235C132.668 519.436 128.871 523.633 127.871 524.432C126.872 525.231 126.273 525.631 125.073 526.231C123.874 526.83 122.276 524.432 123.475 524.032C124.434 523.713 124.141 522.433 123.874 521.834C120.877 519.436 119.278 522.433 118.478 523.233C117.679 524.032 116.08 523.633 113.082 523.233C110.684 522.913 110.085 524.165 110.085 524.832C110.418 526.63 110.364 530.468 107.486 531.427Z" fill="#CFCFCF"/>
        <path d="M163.645 561.804L161.646 555.809C161.447 555.409 160.967 554.61 160.647 554.61C160.248 554.61 159.648 553.61 159.848 552.411C160.048 551.212 159.648 550.213 159.248 549.813C158.928 549.493 158.316 549.147 158.049 549.014C157.783 548.947 157.45 548.654 158.249 548.015C159.048 547.375 162.313 543.618 163.845 541.819C164.444 541.153 165.364 539.661 164.245 539.021C163.978 538.955 163.365 538.861 163.045 539.021C162.779 539.088 162.326 539.061 162.646 538.422C162.966 537.782 163.045 534.158 163.045 532.426C162.846 530.827 162.526 527.59 162.846 527.43C163.112 526.897 164.165 525.431 166.243 523.832C166.357 523.681 166.5 523.424 166.643 523.064C168.375 523.587 171.839 525.351 171.839 528.229C171.839 531.107 175.57 532.626 177.435 533.026C178.101 532.892 179.233 532.466 178.434 531.827C177.635 531.187 175.703 531.16 174.837 531.227C174.304 530.894 173.238 529.828 173.238 528.229C173.238 526.63 170.573 523.966 169.241 522.833L166.962 522.034C167.177 521.135 167.321 519.933 167.242 518.436C167.309 517.237 166.723 514.279 163.845 512.041C163.784 511.98 163.655 511.9 163.445 511.818C165.111 511.704 168.881 511.389 170.64 511.042C172.399 510.695 173.105 511.297 173.238 511.641C173.504 512.308 174.197 513.88 174.837 514.839C175.636 516.038 176.036 515.838 177.035 516.038C178.034 516.238 178.234 514.239 178.434 514.04C178.594 513.88 178.101 512.264 177.835 511.476C177.701 511.265 177.355 510.842 177.035 510.842C176.635 510.842 177.035 512.841 177.035 513.04C177.035 513.24 177.435 514.839 177.035 515.239C176.635 515.638 175.836 515.439 174.837 512.841C173.837 510.242 172.439 510.242 171.839 510.043C171.239 509.843 168.841 510.842 166.643 510.842C164.884 510.842 162.579 511.265 161.646 511.476C161.348 511.454 161.016 511.442 160.647 511.442C160.381 511.442 159.888 510.922 160.048 508.843C159.981 507.644 159.288 505.126 157.05 504.647C154.812 504.167 154.119 503.914 154.052 503.847C153.453 503.581 152.014 503.607 151.054 505.846C150.854 506.379 150.335 507.245 149.855 506.445C149.256 505.446 147.257 503.847 146.258 503.847C145.658 503.714 144.219 503.527 143.26 503.847C142.301 504.167 141.528 502.115 141.262 501.049C140.995 500.516 140.142 499.45 138.863 499.45L140.262 487.859C140.062 486.993 140.342 485.501 143.06 486.46C143.793 486.86 145.418 487.219 146.058 485.461C146.698 483.702 146.991 481.264 147.057 480.265C147.124 479.732 147.577 478.706 148.856 478.866C150.135 479.025 150.721 479.065 150.854 479.065C151.454 478.999 152.453 478.586 151.654 477.467C150.655 476.068 150.055 473.669 150.455 472.47C150.775 471.511 150.721 470.472 150.655 470.072C150.588 469.539 149.975 468.673 148.057 469.473C146.138 470.272 145.392 470.605 145.259 470.672C144.726 470.738 143.82 470.672 144.459 469.872C145.099 469.073 147.524 463.943 148.656 461.478C148.784 460.968 148.944 460.257 149.093 459.48C152.411 459.746 159.288 460.519 160.248 461.478C161.207 462.438 163.845 462.544 165.044 462.478L170.24 461.878C174.237 461.398 176.968 463.81 177.835 465.076C178.034 465.942 178.514 468.034 178.834 469.473C179.233 471.271 180.832 476.267 181.632 476.667C182.271 476.987 183.497 479.465 184.03 480.664C184.363 481.664 185.189 483.942 185.829 485.061C186.468 485.541 186.761 485.527 186.828 485.461C187.028 483.462 183.031 475.668 182.431 475.668C181.952 475.668 180.899 473.536 180.433 472.47L178.434 464.076C175.556 460.079 169.374 459.88 166.643 460.279C165.31 460.879 162.486 461.838 161.846 460.879C161.207 459.92 153.256 458.481 149.36 457.881C149.527 456.696 149.605 455.557 149.455 454.883C149.056 453.085 148.456 451.885 145.658 451.885C143.42 451.885 142.594 450.42 142.461 449.687C142.461 449.287 139.223 447.848 137.464 448.488C137.331 448.555 137.145 448.448 137.464 447.489C137.784 446.529 137.598 438.562 137.464 434.698L137.264 430.901C137.198 429.768 136.345 427.623 133.467 428.103C133.068 428.103 132.348 427.863 132.668 426.904C132.601 425.971 132.148 424.146 130.869 424.306C130.27 424.306 129.15 424.106 129.47 423.307C129.737 421.508 130.19 417.711 129.87 416.911L129.071 413.114C128.937 412.515 128.391 411.315 127.272 411.315C127.005 411.249 126.512 410.796 126.672 409.517C126.832 408.238 126.739 406.186 126.672 405.32C126.539 404.52 125.913 403.002 124.474 403.321C124.341 403.455 124.074 403.401 124.074 402.122C124.074 400.843 124.474 399.191 124.674 398.525C124.874 398.258 125.793 397.805 127.871 398.125C129.95 398.445 130.603 399.058 130.669 399.324C131.002 399.99 131.868 401.243 132.668 400.923C133.467 400.603 136.865 400.923 138.464 401.123C138.73 401.19 139.303 401.363 139.463 401.523C139.597 401.657 140.091 401.701 140.462 401.413C141.395 403.182 143.7 406.879 145.458 407.518C147.657 408.318 152.853 409.317 154.452 409.317C156.184 409.45 159.688 409.797 159.848 410.116C160.048 410.516 161.047 411.915 160.647 412.515C160.327 412.994 159.848 413.114 159.648 413.114C159.182 413.114 158.249 413.354 158.249 414.313C158.249 415.512 157.649 417.911 158.649 418.91C159.648 419.909 160.247 419.909 160.647 421.508C160.967 422.787 162.246 423.64 162.846 423.906C163.578 424.506 165.004 426.025 164.844 427.304C164.644 428.902 163.645 430.701 165.044 432.1L168.441 435.498C169.441 436.497 172.319 438.775 175.836 439.894C179.353 441.014 188.36 440.894 192.424 440.694C193.756 440.294 196.181 439.135 195.222 437.696C194.262 436.257 193.889 434.165 193.823 433.299C193.889 432.633 194.902 431.501 198.419 432.3C201.937 433.099 215.873 434.765 222.402 435.498L227.998 436.297C229.796 436.164 233.274 436.377 232.794 438.296C232.314 440.214 230.995 440.427 230.396 440.294C230.196 440.427 229.996 440.934 230.795 441.893C231.595 442.852 229.929 445.357 228.997 446.489L228.981 446.529C228.718 447.185 228.425 447.916 229.796 449.287C230.77 450.651 235.539 461.693 236.892 462.256C236.926 462.261 236.959 462.269 236.991 462.278C236.96 462.278 236.927 462.27 236.892 462.256C236.43 462.177 235.788 462.376 235.192 462.078C234.553 461.758 232.794 463.011 231.995 463.677C231.262 463.943 229.396 464.236 227.798 463.277C226.199 462.318 224.733 462.211 224.2 462.278C223.134 462.278 221.083 462.837 221.402 465.076C221.722 467.314 220.603 470.938 220.003 472.47C219.47 473.869 218.604 476.947 219.404 478.066C220.203 479.185 218.938 480.265 218.205 480.664L219.404 483.062C220.07 482.396 221.402 480.105 221.402 476.267C221.402 472.43 222.735 467.474 223.401 465.475C224.2 464.809 226.599 463.877 229.796 465.475C230.729 465.409 232.914 465.036 234.193 464.076C235.472 463.117 237.276 463.144 238.019 463.277C240.092 464.625 243.465 467.088 244.186 468.673C245.185 470.871 253.179 471.471 254.978 471.471C256.776 471.471 261.972 470.472 264.97 471.871C267.368 472.99 267.702 484.595 267.568 490.257C266.902 493.322 266.249 499.45 268.967 499.45C271.685 499.45 273.83 505.846 274.563 509.043C277.761 512.641 278.96 515.439 279.36 518.237C279.759 521.034 276.562 537.223 275.962 539.021C275.482 540.46 273.897 542.019 273.164 542.619C270.1 543.418 263.571 544.337 261.972 541.619C260.374 538.901 257.176 539.288 255.777 539.821L249.182 541.22C245.651 542.019 238.35 545.057 237.391 550.812C236.191 558.007 213.208 567.2 209.211 567.4C205.214 567.6 206.214 562.204 206.214 561.804C206.214 561.405 205.614 559.806 204.415 560.605C203.216 561.405 197.82 561.804 191.624 559.806C186.668 558.207 182.897 559.14 181.632 559.806C180.632 559.806 179.633 564.003 179.433 566.201C179.234 568.4 176.635 566.601 174.437 564.003C172.678 561.924 166.51 561.671 163.645 561.804Z" fill="#CFCFCF"/>
        <path d="M140.862 394.928C140.222 394.768 140.196 395.127 140.262 395.327L140.706 399.324C140.822 400.364 143.656 403.621 145.059 405.12C146.058 407.318 158.249 408.717 159.848 408.717C161.447 408.717 161.447 411.315 162.046 412.515C162.526 413.474 161.846 413.98 161.447 414.113C160.914 413.98 159.768 413.874 159.448 414.513C159.048 415.312 158.849 418.51 159.848 418.51C160.647 418.51 161.247 419.31 161.447 419.709C161.447 420.509 161.726 422.147 162.846 422.307C164.245 422.507 166.243 425.505 165.644 427.503C165.164 429.102 165.444 430.435 165.644 430.901C166.11 431.101 167.442 432.14 169.041 434.698C170.64 437.256 175.037 438.962 177.035 439.495C180.366 439.561 187.867 439.694 191.225 439.695C194.582 439.695 194.622 438.362 194.222 437.696C193.623 436.897 192.464 434.818 192.624 432.9C192.783 430.981 196.421 430.901 198.219 431.101C207.08 432.233 225.16 434.538 226.599 434.698C228.037 434.858 228.131 434.632 227.997 434.498C227.931 432.367 227.718 427.503 227.398 425.105C227.078 422.707 225.932 421.841 225.399 421.708C221.083 420.269 219.337 415.512 219.004 413.314C218.405 412.781 217.126 411.595 216.806 411.116C216.486 410.636 216.539 409.583 216.606 409.117C216.446 408.318 215.607 408.251 215.207 408.318C211.01 408.118 202.496 407.718 202.017 407.718C201.417 407.718 201.217 407.718 200.418 407.119C199.778 406.639 200.285 405.053 200.618 404.321C200.818 403.788 201.177 402.442 201.017 401.323C200.858 400.204 200.151 399.924 199.818 399.924L196.421 399.924C194.622 399.924 194.222 398.925 193.823 398.525C193.423 398.125 193.023 396.127 193.423 394.128C193.743 392.529 193.689 391.73 193.623 391.53C193.69 391.397 193.503 391.05 192.224 390.731C190.945 390.411 190.625 389.665 190.625 389.332C190.692 388.999 190.585 388.372 189.626 388.532C188.427 388.732 187.827 387.733 187.627 387.533C187.427 387.333 187.427 385.135 187.627 383.336C187.787 381.897 187.694 380.472 187.627 379.939C187.308 378.66 186.028 378.207 185.429 378.14C184.006 378.14 178.174 376.674 175.436 375.942C173.837 374.942 172.638 375.142 172.239 375.342C171.502 375.71 167.442 380.138 167.442 380.338C164.444 381.737 162.246 380.338 161.047 380.338C160.088 380.338 159.581 379.539 159.448 379.139L159.448 377.54C159.448 377.141 158.849 376.741 158.649 376.541C158.449 376.341 157.649 376.341 157.25 376.741C156.85 377.141 151.254 376.541 150.255 376.141C149.256 375.742 149.256 375.742 148.056 374.143C147.097 372.864 146.191 372.944 145.858 373.144L139.463 375.942C139.463 377.141 142.061 379.539 142.461 379.939C142.78 380.258 143.393 381.404 143.66 381.937C143.726 382.87 143.74 385.055 143.26 386.334C142.66 387.933 143.26 387.933 143.46 388.133C143.66 388.332 147.457 390.331 147.657 390.93C147.857 391.53 148.256 391.53 147.057 393.329C145.858 395.127 141.661 395.127 140.862 394.928Z" fill="#CFCFCF"/>
        <path d="M90.3235 35.695C91.3657 35.329 91.9138 34.1875 91.5478 33.1453C91.1818 32.1032 90.0403 31.555 88.9981 31.921L90.3235 35.695ZM89.0685 39.0391L89.1665 41.0367L89.4034 41.025L89.6311 40.9583L89.0685 39.0391ZM95.47 37.1628L96.0325 39.0821L96.4665 38.9549L96.8035 38.6533L95.47 37.1628ZM101.595 36.7843L100.211 38.2283L101.595 36.7843ZM107.391 37.3105L105.66 36.3082L107.391 37.3105ZM110.592 33.067L109.25 31.5847L109.171 31.6558L109.101 31.7347L110.592 33.067ZM120.903 34.6608L120.818 32.6626L120.217 32.6883L119.73 33.0408L120.903 34.6608ZM131.003 42.8462L132.77 41.9093L132.262 40.9524L131.184 40.8544L131.003 42.8462ZM131.632 49.0989L129.91 48.0828L131.632 49.0989ZM140.733 59.3742L141.339 57.4683L140.733 59.3742ZM147.858 67.3589L149.827 67.0095L149.765 66.6601L149.587 66.3534L147.858 67.3589ZM150.382 77.1755L151.837 75.8037L150.382 77.1755ZM155.38 119.06L157.375 119.197L155.38 119.06ZM147.767 131.175L147.989 129.187L147.465 129.129L146.98 129.337L147.767 131.175ZM140.755 145.595L142.665 146.189L142.728 145.987L142.747 145.776L140.755 145.595ZM139.543 158.949L140.878 160.438L141.314 160.047L141.47 159.482L139.543 158.949ZM128.7 169.421L130.331 168.264L130.27 168.178L130.2 168.098L128.7 169.421ZM131.009 172.676L129.378 173.834L129.815 174.449L130.549 174.623L131.009 172.676ZM129.325 179.204L127.637 178.132L127.547 178.273L127.482 178.427L129.325 179.204ZM128.811 184.868L126.936 185.563L128.811 184.868ZM126.579 209.447L127.814 207.874L127.676 207.766L127.521 207.683L126.579 209.447ZM134.501 226.237L132.51 226.057L132.473 226.463L132.598 226.852L134.501 226.237ZM135.682 229.897L137.668 229.659L137.645 229.467L137.586 229.282L135.682 229.897ZM135.682 237.439L137.27 238.656L135.682 237.439ZM136.701 254.971L134.953 255.942L136.701 254.971ZM138.128 258.436L136.188 258.921L136.202 258.978L136.219 259.033L138.128 258.436ZM140.371 262.31L141.265 260.521L140.371 262.31ZM144.652 273.318L142.718 272.809L144.652 273.318ZM142.206 278.007L141.213 276.27L141.06 276.357L140.925 276.47L142.206 278.007ZM146.079 291.053L148.079 291.053L148.079 290.807L148.019 290.568L146.079 291.053ZM158.106 309.808L159.593 308.47L159.259 308.099L158.79 307.928L158.106 309.808ZM162.387 323.874L160.656 324.876L160.663 324.888L162.387 323.874ZM172.172 334.678L170.457 335.707L170.494 335.768L170.534 335.825L172.172 334.678ZM171.357 341.813L169.526 341.008L169.464 341.149L169.424 341.298L171.357 341.813ZM169.522 353.433L167.733 352.539L167.688 352.629L167.652 352.724L169.522 353.433ZM170.134 366.48L172.01 365.789L172.001 365.763L171.991 365.737L170.134 366.48ZM169.114 374.226L167.423 373.158L167.326 373.313L167.258 373.484L169.114 374.226ZM167.891 381.565L165.897 381.412L167.891 381.565ZM173.803 426.413L175.373 425.174L175.352 425.148L175.33 425.122L173.803 426.413ZM176.861 430.287L175.291 431.526L175.428 431.7L175.6 431.839L176.861 430.287ZM177.88 436.199L179.528 437.332L177.88 436.199ZM175.23 462.088L177.051 461.261L175.23 462.088ZM161.572 479.416L162.91 480.903L162.959 480.858L163.005 480.811L161.572 479.416ZM158.922 493.278L160.336 494.692L160.517 494.511L160.647 494.29L158.922 493.278ZM168.095 510.198L169.586 508.865L169.549 508.823L169.509 508.784L168.095 510.198ZM170.949 532.418L168.965 532.667L168.993 532.89L169.07 533.102L170.949 532.418ZM167.484 534.865L167.388 532.867L167.484 534.865ZM149.952 544.446L148.021 543.926L147.932 544.257L147.958 544.599L149.952 544.446ZM150.971 548.115L149.41 549.365L150.971 548.115ZM133.236 577.471L132.008 575.892L131.941 575.944L131.879 576.001L133.236 577.471ZM131.001 587.851L129.014 588.078L129.036 588.267L129.093 588.448L131.001 587.851ZM88.9981 31.921C88.1278 32.2267 87.2441 32.8556 86.5458 33.4906C85.8331 34.1387 85.0924 34.9941 84.6394 35.9267C84.2317 36.7662 83.7421 38.4105 84.955 39.7724C85.9875 40.9317 87.6603 41.1105 89.1665 41.0367L88.9706 37.0415C88.3687 37.071 88.0159 37.0264 87.8382 36.9827C87.659 36.9386 87.7767 36.9264 87.9421 37.1121C88.1388 37.3329 88.1918 37.5932 88.1885 37.7433C88.1861 37.8472 88.161 37.8318 88.2375 37.6743C88.3928 37.3545 88.7482 36.8945 89.237 36.4499C89.7402 35.9923 90.1636 35.7512 90.3235 35.695L88.9981 31.921ZM89.6311 40.9583L96.0325 39.0821L94.9074 35.2435L88.506 37.1198L89.6311 40.9583ZM96.8035 38.6533C97.17 38.3254 97.843 37.9076 98.5365 37.7629C99.1378 37.6374 99.6753 37.7151 100.211 38.2283L102.978 35.3404C101.312 33.743 99.3489 33.5072 97.7194 33.8472C96.1821 34.168 94.8939 34.9946 94.1365 35.6722L96.8035 38.6533ZM100.211 38.2283C101.715 39.6702 103.343 40.6749 105.044 40.7382C106.954 40.8093 108.321 39.6954 109.121 38.3128L105.66 36.3082C105.506 36.5734 105.382 36.6759 105.33 36.7094C105.298 36.7302 105.27 36.7439 105.192 36.741C104.954 36.7321 104.227 36.5366 102.978 35.3403L100.211 38.2283ZM109.121 38.3128C109.883 36.9985 111.396 35.1693 112.084 34.3993L109.101 31.7347C108.378 32.5442 106.636 34.6237 105.66 36.3082L109.121 38.3128ZM111.935 34.5493C112.087 34.4113 112.454 34.1974 112.875 34.1688C113.194 34.1471 113.73 34.2121 114.424 34.9329L117.305 32.1585C115.838 30.634 114.166 30.0717 112.603 30.178C111.143 30.2774 109.954 30.9468 109.25 31.5847L111.935 34.5493ZM114.424 34.9329C117.307 37.9269 120.525 37.404 122.076 36.2807L119.73 33.0408C119.739 33.0348 119.676 33.0789 119.541 33.1174C119.415 33.1534 119.251 33.1775 119.056 33.1626C118.706 33.1356 118.085 32.968 117.305 32.1585L114.424 34.9329ZM120.989 36.659C121.818 36.6235 123.143 36.7441 124.296 37.1903C125.445 37.635 126.109 38.2634 126.331 39.0757L130.189 38.0196C129.502 35.5096 127.524 34.1503 125.74 33.4599C123.96 32.7711 122.062 32.6094 120.818 32.6626L120.989 36.659ZM126.331 39.0757C126.834 40.9117 127.482 42.2326 128.19 43.1479C128.831 43.9781 129.739 44.7398 130.822 44.8381L131.184 40.8544C131.503 40.8834 131.648 40.9999 131.612 40.9751C131.6 40.967 131.505 40.896 131.354 40.7012C131.051 40.3099 130.596 39.5058 130.189 38.0196L126.331 39.0757ZM129.236 43.7832C129.497 44.2748 129.859 45.1651 130.03 46.0963C130.211 47.0802 130.113 47.7388 129.91 48.0828L133.355 50.1151C134.284 48.5404 134.211 46.7151 133.965 45.3735C133.708 43.9793 133.191 42.7025 132.77 41.9093L129.236 43.7832ZM129.91 48.0828C129.414 48.923 129.395 49.8211 129.523 50.5397C129.65 51.2516 129.943 51.9352 130.276 52.5423C130.944 53.7601 131.974 55.0238 133.07 56.1609C134.181 57.3128 135.439 58.4151 136.635 59.3031C137.786 60.1575 139.04 60.9345 140.126 61.2801L141.339 57.4683C140.903 57.3296 140.081 56.8798 139.019 56.0914C138.003 55.3367 136.91 54.3804 135.95 53.3844C134.975 52.3735 134.212 51.3999 133.782 50.6176C133.567 50.2247 133.484 49.9675 133.461 49.8388C133.44 49.7168 133.497 49.8744 133.355 50.1151L129.91 48.0828ZM140.126 61.2801C140.339 61.3477 140.753 61.5798 141.352 62.1132C141.921 62.6199 142.533 63.2872 143.147 64.042C144.375 65.5518 145.49 67.2645 146.129 68.3644L149.587 66.3534C148.867 65.1146 147.636 63.2225 146.251 61.5183C145.558 60.6662 144.796 59.8242 144.013 59.1265C143.26 58.4556 142.344 57.7882 141.339 57.4683L140.126 61.2801ZM145.889 67.7082C146.153 69.1982 146.599 71.487 147.08 73.5202C147.319 74.5331 147.575 75.5156 147.829 76.3152C147.956 76.713 148.093 77.0992 148.239 77.4356C148.359 77.712 148.575 78.1746 148.926 78.5473L151.837 75.8037C151.996 75.972 152.005 76.0661 151.908 75.8427C151.837 75.6794 151.747 75.4345 151.641 75.1027C151.431 74.4431 151.202 73.5722 150.972 72.5996C150.514 70.6618 150.083 68.4511 149.827 67.0095L145.889 67.7082ZM148.926 78.5473C148.916 78.5365 148.971 78.5963 149.085 78.7798C149.191 78.948 149.315 79.1693 149.453 79.4387C149.73 79.977 150.028 80.642 150.3 81.3253C150.572 82.0099 150.804 82.6779 150.959 83.221C151.036 83.4934 151.087 83.7098 151.115 83.8664C151.149 84.0562 151.129 84.048 151.14 83.9245L155.124 84.2862C155.162 83.8709 155.106 83.4592 155.053 83.1624C154.994 82.8323 154.906 82.4788 154.806 82.1267C154.605 81.4207 154.324 80.6208 154.016 79.8466C153.708 79.0711 153.358 78.2863 153.012 77.6119C152.697 76.9985 152.29 76.2839 151.837 75.8037L148.926 78.5473ZM151.14 83.9245C151.075 84.6391 151.048 86.5407 151.145 88.321C151.194 89.217 151.278 90.1596 151.423 90.9492C151.495 91.3389 151.593 91.7596 151.739 92.1434C151.848 92.4325 152.128 93.1112 152.79 93.5552L155.017 90.2325C155.456 90.5264 155.54 90.8855 155.479 90.7259C155.454 90.6609 155.408 90.5036 155.357 90.2262C155.257 89.6815 155.184 88.9333 155.139 88.1032C155.048 86.4312 155.083 84.7388 155.124 84.2862L151.14 83.9245ZM152.79 93.5552C152.401 93.2946 152.262 92.9788 152.262 92.9769C152.237 92.9255 152.245 92.928 152.271 93.0238C152.322 93.2106 152.383 93.5257 152.443 93.9811C152.563 94.878 152.653 96.0695 152.727 97.3292C152.802 98.6051 152.854 99.8177 152.912 100.885C152.94 101.399 152.97 101.872 153.003 102.254C153.029 102.549 153.072 103.03 153.187 103.396L157.005 102.206C157.045 102.331 157.023 102.31 156.988 101.907C156.96 101.592 156.934 101.173 156.906 100.666C156.853 99.6919 156.794 98.3503 156.72 97.0948C156.645 95.8229 156.549 94.5055 156.408 93.4513C156.339 92.9311 156.25 92.4101 156.129 91.9672C156.069 91.7481 155.985 91.4873 155.861 91.2326C155.762 91.0273 155.518 90.5681 155.017 90.2325L152.79 93.5552ZM153.187 103.396C153.375 104 154.266 106.135 153.385 118.922L157.375 119.197C158.267 106.256 157.417 103.526 157.005 102.206L153.187 103.396ZM153.385 118.922C153.049 123.803 151.794 126.424 150.636 127.762C149.485 129.093 148.386 129.232 147.989 129.187L147.546 133.163C149.391 133.368 151.744 132.595 153.661 130.379C155.572 128.17 157.003 124.608 157.375 119.197L153.385 118.922ZM146.98 129.337C144.103 130.569 139.667 135.459 138.763 145.414L142.747 145.776C143.569 136.726 147.476 133.476 148.555 133.014L146.98 129.337ZM138.846 145C138.567 145.896 138.201 147.303 138.008 148.657C137.912 149.331 137.847 150.06 137.88 150.737C137.908 151.327 138.02 152.268 138.608 153.03L141.774 150.586C141.972 150.842 141.895 150.96 141.875 150.547C141.86 150.223 141.889 149.771 141.968 149.223C142.123 148.136 142.43 146.943 142.665 146.189L138.846 145ZM138.608 153.03C138.462 152.841 138.445 152.708 138.461 152.774C138.472 152.822 138.49 152.938 138.497 153.14C138.51 153.546 138.47 154.1 138.381 154.755C138.205 156.054 137.87 157.495 137.615 158.416L141.47 159.482C141.757 158.444 142.137 156.821 142.345 155.293C142.448 154.534 142.518 153.733 142.494 153.011C142.483 152.65 142.447 152.258 142.359 151.877C142.275 151.513 142.116 151.029 141.774 150.586L138.608 153.03ZM138.208 157.46C137.225 158.34 135.56 159.727 133.801 160.983C131.975 162.287 130.293 163.273 129.215 163.578L130.304 167.427C132.117 166.914 134.297 165.544 136.127 164.238C138.023 162.883 139.804 161.401 140.878 160.438L138.208 157.46ZM129.215 163.578C128.261 163.847 127.406 164.286 126.777 164.975C126.117 165.699 125.838 166.555 125.827 167.379C125.807 168.86 126.636 170.105 127.199 170.743L130.2 168.098C130.094 167.978 129.982 167.816 129.905 167.655C129.824 167.486 129.827 167.412 129.826 167.432C129.826 167.451 129.822 167.496 129.8 167.554C129.778 167.613 129.748 167.654 129.732 167.672C129.706 167.7 129.812 167.566 130.304 167.427L129.215 163.578ZM127.068 170.578L129.378 173.834L132.64 171.519L130.331 168.264L127.068 170.578ZM130.549 174.623C130.081 174.512 129.787 174.198 129.666 173.94C129.566 173.727 129.631 173.67 129.596 173.945C129.524 174.516 129.112 175.807 127.637 178.132L131.014 180.275C132.595 177.783 133.381 175.894 133.565 174.448C133.658 173.714 133.615 172.939 133.287 172.24C132.937 171.495 132.294 170.925 131.47 170.73L130.549 174.623ZM127.482 178.427C127.191 179.118 126.839 180.221 126.654 181.439C126.474 182.623 126.414 184.157 126.936 185.563L130.686 184.172C130.506 183.688 130.472 182.939 130.609 182.039C130.74 181.173 130.996 180.389 131.168 179.98L127.482 178.427ZM126.936 185.563C127.022 185.796 127.091 186.239 127.053 186.883C127.016 187.502 126.887 188.18 126.695 188.805C126.499 189.443 126.266 189.929 126.074 190.208C125.978 190.348 125.938 190.37 125.978 190.339C126.019 190.308 126.246 190.148 126.631 190.147L126.642 194.147C127.396 194.145 127.996 193.83 128.403 193.521C128.809 193.211 129.127 192.829 129.372 192.472C129.864 191.755 130.247 190.865 130.519 189.98C130.795 189.081 130.988 188.088 131.046 187.121C131.102 186.179 131.038 185.122 130.686 184.172L126.936 185.563ZM126.631 190.147C125.685 190.149 125.021 190.665 124.664 191.027C124.29 191.406 124.006 191.861 123.792 192.268C123.357 193.094 122.996 194.134 122.709 195.15C122.135 197.178 121.728 199.569 121.682 200.986L125.68 201.115C125.712 200.116 126.043 198.057 126.558 196.239C126.815 195.331 127.086 194.598 127.331 194.132C127.457 193.893 127.526 193.821 127.512 193.836C127.499 193.848 127.429 193.918 127.294 193.989C127.151 194.065 126.926 194.146 126.642 194.147L126.631 190.147ZM121.682 200.986C121.666 201.472 121.579 201.959 121.477 202.801C121.387 203.552 121.303 204.486 121.413 205.471C121.527 206.483 121.846 207.559 122.556 208.589C123.262 209.613 124.28 210.487 125.638 211.212L127.521 207.683C126.613 207.198 126.126 206.72 125.85 206.32C125.579 205.927 125.442 205.507 125.388 205.024C125.331 204.514 125.367 203.954 125.449 203.282C125.519 202.701 125.656 201.836 125.68 201.115L121.682 200.986ZM125.345 211.021C126.42 211.864 128.086 213.348 129.519 214.995C130.234 215.817 130.861 216.645 131.326 217.427C131.801 218.226 132.04 218.867 132.104 219.33L136.067 218.787C135.902 217.582 135.377 216.414 134.764 215.382C134.139 214.332 133.352 213.306 132.537 212.369C130.909 210.498 129.05 208.844 127.814 207.874L125.345 211.021ZM132.104 219.33C132.551 222.592 132.593 225.135 132.51 226.057L136.493 226.418C136.615 225.074 136.535 222.199 136.067 218.787L132.104 219.33ZM132.598 226.852L133.779 230.511L137.586 229.282L136.405 225.623L132.598 226.852ZM133.696 230.134C133.822 231.183 133.972 232.802 134.015 234.238C134.037 234.96 134.03 235.586 133.99 236.051C133.97 236.284 133.945 236.431 133.927 236.506C133.898 236.629 133.914 236.459 134.095 236.223L137.27 238.656C137.607 238.216 137.748 237.725 137.818 237.434C137.898 237.096 137.945 236.736 137.975 236.394C138.034 235.708 138.037 234.907 138.013 234.117C137.965 232.529 137.803 230.785 137.668 229.659L133.696 230.134ZM134.095 236.223C133.758 236.662 133.644 237.16 133.603 237.344C133.541 237.618 133.5 237.916 133.47 238.206C133.41 238.794 133.379 239.525 133.369 240.324C133.347 241.932 133.406 243.969 133.52 246.011C133.634 248.054 133.806 250.139 134.017 251.847C134.123 252.698 134.241 253.481 134.373 254.13C134.488 254.696 134.658 255.41 134.953 255.942L138.45 254C138.49 254.073 138.413 253.927 138.293 253.335C138.19 252.826 138.086 252.154 137.987 251.355C137.79 249.762 137.624 247.771 137.514 245.788C137.403 243.804 137.349 241.865 137.368 240.377C137.378 239.628 137.407 239.031 137.45 238.613C137.471 238.402 137.492 238.278 137.505 238.223C137.537 238.08 137.508 238.344 137.27 238.656L134.095 236.223ZM134.953 255.942C135.675 257.241 136.09 258.529 136.188 258.921L140.069 257.951C139.895 257.257 139.359 255.636 138.45 254L134.953 255.942ZM136.219 259.033C136.415 259.66 136.772 260.616 137.231 261.51C137.46 261.958 137.739 262.436 138.065 262.863C138.367 263.26 138.831 263.776 139.476 264.099L141.265 260.521C141.421 260.599 141.403 260.644 141.246 260.438C141.113 260.264 140.956 260.008 140.789 259.684C140.457 259.036 140.181 258.3 140.037 257.84L136.219 259.033ZM139.476 264.099C139.291 264.006 139.286 263.949 139.481 264.159C139.632 264.322 139.833 264.57 140.068 264.901C140.537 265.561 141.072 266.454 141.547 267.451C142.024 268.451 142.415 269.503 142.632 270.482C142.854 271.483 142.86 272.266 142.718 272.809L146.586 273.827C146.953 272.433 146.832 270.948 146.538 269.618C146.238 268.265 145.726 266.921 145.158 265.73C144.588 264.536 143.938 263.442 143.33 262.585C143.026 262.158 142.716 261.765 142.415 261.44C142.156 261.161 141.757 260.766 141.265 260.521L139.476 264.099ZM142.718 272.809C142.35 274.204 141.925 275.129 141.586 275.694C141.206 276.327 141.015 276.383 141.213 276.27L143.198 279.743C143.872 279.358 144.496 278.619 145.017 277.751C145.578 276.814 146.138 275.53 146.586 273.827L142.718 272.809ZM140.925 276.47C140.232 277.048 139.435 278.087 139.195 279.469C138.935 280.97 139.382 282.585 140.736 284.052L143.675 281.339C143.354 280.99 143.224 280.723 143.17 280.554C143.118 280.39 143.118 280.261 143.136 280.153C143.182 279.89 143.363 279.645 143.486 279.543L140.925 276.47ZM140.736 284.052C141.473 284.85 142.214 286.202 142.853 287.728C143.475 289.214 143.923 290.677 144.138 291.538L148.019 290.568C147.759 289.527 147.249 287.871 146.543 286.183C145.853 284.536 144.895 282.661 143.675 281.339L140.736 284.052ZM144.079 291.053C144.079 291.522 144.218 291.962 144.302 292.207C144.407 292.513 144.546 292.847 144.702 293.189C145.015 293.876 145.449 294.714 145.954 295.631C146.967 297.471 148.325 299.734 149.732 301.947C151.138 304.159 152.612 306.352 153.86 308.046C154.481 308.89 155.068 309.64 155.576 310.215C155.828 310.5 156.087 310.772 156.341 311C156.545 311.183 156.929 311.508 157.423 311.688L158.79 307.928C159.059 308.026 159.153 308.148 159.01 308.02C158.917 307.937 158.772 307.791 158.573 307.566C158.178 307.119 157.671 306.476 157.081 305.675C155.905 304.078 154.484 301.967 153.108 299.801C151.732 297.636 150.419 295.448 149.458 293.701C148.975 292.825 148.595 292.086 148.342 291.53C148.214 291.25 148.132 291.046 148.086 290.911C148.02 290.716 148.079 290.814 148.079 291.053L144.079 291.053ZM156.62 311.146C157.131 311.714 157.894 312.735 158.441 313.849C159.025 315.039 159.162 315.925 159.028 316.428L162.893 317.458C163.411 315.515 162.732 313.513 162.032 312.086C161.295 310.585 160.305 309.261 159.593 308.47L156.62 311.146ZM159.028 316.428C158.57 318.144 158.834 319.954 159.219 321.368C159.613 322.813 160.203 324.093 160.656 324.876L164.118 322.872C163.824 322.364 163.374 321.402 163.078 320.316C162.774 319.198 162.698 318.188 162.893 317.458L159.028 316.428ZM160.663 324.888C161.396 326.134 163.488 329.111 166.028 330.674L168.124 327.267C166.424 326.221 164.737 323.924 164.111 322.86L160.663 324.888ZM166.028 330.674C166.809 331.155 167.713 332.043 168.574 333.081C169.413 334.092 170.099 335.11 170.457 335.707L173.887 333.649C173.431 332.888 172.628 331.704 171.653 330.527C170.699 329.377 169.463 328.091 168.124 327.267L166.028 330.674ZM170.534 335.825C170.426 335.671 170.649 335.94 170.617 336.906C170.588 337.797 170.339 339.16 169.526 341.008L173.188 342.619C174.168 340.39 174.566 338.525 174.615 337.038C174.661 335.625 174.395 334.366 173.811 333.531L170.534 335.825ZM169.424 341.298C169.258 341.923 169.069 342.907 169.013 343.943C168.961 344.909 169.001 346.262 169.568 347.396L173.146 345.608C173.061 345.437 172.964 344.956 173.007 344.158C173.047 343.432 173.184 342.723 173.289 342.329L169.424 341.298ZM169.568 347.396C169.453 347.166 169.547 347.145 169.485 347.636C169.434 348.04 169.306 348.571 169.11 349.187C168.72 350.412 168.143 351.72 167.733 352.539L171.311 354.328C171.785 353.379 172.452 351.875 172.921 350.402C173.155 349.668 173.36 348.88 173.454 348.138C173.537 347.483 173.587 346.491 173.146 345.608L169.568 347.396ZM167.652 352.724C166.754 355.091 165.781 360.983 168.277 367.223L171.991 365.737C169.92 360.561 170.795 355.716 171.392 354.142L167.652 352.724ZM168.257 367.171C168.577 368.041 168.966 370.716 167.423 373.158L170.805 375.294C173.177 371.54 172.641 367.501 172.01 365.789L168.257 367.171ZM167.258 373.484C166.874 374.441 166.229 377.096 165.897 381.412L169.885 381.719C170.206 377.554 170.811 375.371 170.971 374.969L167.258 373.484ZM165.897 381.412C165.697 384.018 164.906 388.863 164.275 394.039C163.967 396.567 163.705 399.128 163.6 401.396C163.497 403.612 163.531 405.741 163.908 407.31L167.798 406.377C167.563 405.397 167.495 403.755 167.596 401.582C167.694 399.461 167.942 397.014 168.246 394.523C168.838 389.659 169.678 384.413 169.885 381.719L165.897 381.412ZM163.908 407.31C165.054 412.084 165.154 419.288 172.276 427.705L175.33 425.122C168.998 417.639 169.098 411.796 167.798 406.377L163.908 407.31ZM172.233 427.653L175.291 431.526L178.431 429.047L175.373 425.174L172.233 427.653ZM175.6 431.839C175.91 432.091 176.352 432.615 176.552 433.221C176.72 433.732 176.74 434.328 176.232 435.066L179.528 437.332C180.815 435.46 180.869 433.542 180.351 431.969C179.864 430.494 178.899 429.366 178.122 428.735L175.6 431.839ZM176.232 435.066C173.744 438.685 173.443 441.659 174.411 443.918L178.088 442.342C177.832 441.746 177.532 440.235 179.528 437.332L176.232 435.066ZM174.411 443.918C174.392 443.873 174.466 444.083 174.46 444.684C174.455 445.211 174.392 445.854 174.279 446.51C174.165 447.167 174.011 447.784 173.844 448.264C173.648 448.83 173.524 448.938 173.612 448.85L176.44 451.679C177.038 451.082 177.399 450.221 177.623 449.577C177.876 448.847 178.079 448.011 178.22 447.19C178.362 446.368 178.452 445.507 178.46 444.723C178.466 444.011 178.412 443.099 178.088 442.342L174.411 443.918ZM173.612 448.85C173.082 449.38 172.868 450.084 172.769 450.456C172.642 450.927 172.557 451.464 172.497 452.007C172.376 453.102 172.338 454.43 172.364 455.758C172.391 457.091 172.484 458.477 172.641 459.694C172.79 460.845 173.021 462.061 173.409 462.916L177.051 461.261C176.93 460.994 176.753 460.299 176.608 459.182C176.473 458.132 176.388 456.893 176.363 455.678C176.339 454.458 176.377 453.314 176.473 452.446C176.521 452.008 176.579 451.691 176.633 451.491C176.713 451.19 176.716 451.404 176.44 451.679L173.612 448.85ZM173.409 462.916C173.237 462.537 173.284 462.246 173.287 462.226C173.293 462.185 173.291 462.228 173.229 462.378C173.106 462.678 172.857 463.134 172.454 463.751C171.658 464.969 170.443 466.537 169.006 468.257C166.145 471.684 162.564 475.528 160.138 478.021L163.005 480.811C165.472 478.275 169.128 474.353 172.077 470.821C173.545 469.063 174.878 467.354 175.802 465.94C176.259 465.241 176.663 464.543 176.927 463.905C177.058 463.586 177.183 463.215 177.243 462.821C177.299 462.447 177.325 461.864 177.051 461.261L173.409 462.916ZM160.234 477.929C159.014 479.027 157.573 481.78 159.148 485.154L162.773 483.463C162.399 482.661 162.423 482.062 162.523 481.66C162.577 481.445 162.659 481.265 162.742 481.126C162.784 481.057 162.824 481.002 162.856 480.962C162.89 480.921 162.91 480.903 162.91 480.903L160.234 477.929ZM159.148 485.154C159.243 485.358 159.325 485.735 159.289 486.347C159.254 486.945 159.113 487.645 158.887 488.396C158.434 489.904 157.711 491.389 157.196 492.267L160.647 494.29C161.288 493.197 162.155 491.42 162.718 489.547C163 488.608 163.223 487.588 163.282 486.583C163.341 485.592 163.248 484.482 162.773 483.463L159.148 485.154ZM157.507 491.864C156.68 492.691 156.555 493.769 156.585 494.523C156.616 495.312 156.828 496.144 157.1 496.93C157.649 498.52 158.602 500.37 159.68 502.18C161.833 505.796 164.733 509.664 166.681 511.612L169.509 508.784C167.87 507.144 165.164 503.572 163.117 500.134C162.095 498.418 161.3 496.838 160.881 495.624C160.669 495.01 160.591 494.597 160.582 494.364C160.571 494.096 160.654 494.375 160.336 494.692L157.507 491.864ZM166.605 511.532C167.418 512.441 169.393 515.83 168.957 520.618L172.941 520.98C173.484 515.004 171.082 510.537 169.586 508.865L166.605 511.532ZM168.957 520.618C168.455 526.144 168.743 530.895 168.965 532.667L172.934 532.17C172.747 530.68 172.465 526.217 172.941 520.98L168.957 520.618ZM169.07 533.102C168.979 532.853 169.04 532.602 169.152 532.484C169.193 532.44 168.875 532.796 167.388 532.867L167.579 536.862C169.517 536.77 171.067 536.277 172.053 535.237C173.11 534.124 173.191 532.731 172.829 531.735L169.07 533.102ZM167.388 532.867C164.9 532.986 160.612 534.159 156.804 535.931C154.876 536.828 152.97 537.924 151.422 539.196C149.904 540.444 148.534 542.021 148.021 543.926L151.883 544.966C152.084 544.221 152.727 543.301 153.961 542.287C155.165 541.298 156.75 540.368 158.491 539.558C162.022 537.915 165.786 536.948 167.579 536.862L167.388 532.867ZM147.958 544.599C147.999 545.127 148.104 545.943 148.295 546.761C148.466 547.492 148.781 548.579 149.41 549.365L152.533 546.866C152.55 546.887 152.497 546.822 152.412 546.602C152.335 546.401 152.259 546.145 152.19 545.851C152.052 545.26 151.974 544.649 151.946 544.293L147.958 544.599ZM149.41 549.365C149.241 549.154 149.346 549.157 149.382 549.617C149.411 549.985 149.377 550.467 149.23 550.967C148.951 551.922 148.295 552.879 146.873 553.353L148.138 557.148C150.998 556.194 152.482 554.094 153.069 552.092C153.356 551.115 153.436 550.144 153.37 549.302C153.31 548.552 153.109 547.586 152.533 546.866L149.41 549.365ZM146.873 553.353C144.167 554.255 142.261 556.216 141.057 558.096C139.889 559.919 139.186 561.975 139.186 563.405L143.186 563.405C143.186 562.999 143.503 561.692 144.425 560.253C145.31 558.872 146.563 557.673 148.138 557.148L146.873 553.353ZM139.186 563.405C139.186 563.564 139.103 564.178 138.8 565.209C138.513 566.181 138.072 567.384 137.467 568.666C136.243 571.258 134.423 574.013 132.008 575.892L134.464 579.049C137.552 576.647 139.708 573.287 141.084 570.374C141.778 568.905 142.292 567.508 142.636 566.34C142.963 565.23 143.186 564.162 143.186 563.405L139.186 563.405ZM131.879 576.001C131.422 576.423 131.007 577.039 130.658 577.692C130.289 578.383 129.927 579.246 129.626 580.256C129.023 582.28 128.656 584.942 129.014 588.078L132.989 587.624C132.695 585.052 133.003 582.932 133.46 581.397C133.689 580.627 133.952 580.015 134.187 579.576C134.442 579.098 134.608 578.926 134.592 578.94L131.879 576.001ZM129.093 588.448C129.539 589.875 130.187 590.948 131.059 591.724C131.925 592.494 132.854 592.829 133.561 593.035C135.135 593.494 135.191 593.439 135.422 593.899L138.999 592.11C137.806 589.724 135.489 589.431 134.681 589.195C134.196 589.053 133.932 588.926 133.718 588.736C133.512 588.552 133.196 588.167 132.91 587.254L129.093 588.448Z" fill="#333333"/>
        <path d="M160.193 70.3925L162.658 78.1004L165.124 70.3925L166.655 70.3925L166.655 79.8393L165.468 79.8393L165.468 76.1605L165.578 72.4752L163.106 79.8393L162.198 79.8393L159.739 72.5011L159.849 76.1605L159.849 79.8393L158.662 79.8393L158.662 70.3925L160.193 70.3925Z" fill="black"/>
        <path d="M171.437 75.6868L173.124 70.3925L174.499 70.3925L171.781 78.2627C171.582 78.7687 171.402 79.1256 171.242 79.3332C171.087 79.5365 170.898 79.6944 170.678 79.8068C170.457 79.9193 170.18 79.9755 169.847 79.9755C169.549 79.9755 169.361 79.9561 169.283 79.9171L169.309 78.9309L169.821 78.9569C170.167 78.9569 170.416 78.7471 170.567 78.3275L170.879 77.3997L168.284 70.3925L169.607 70.3925L171.437 75.6868Z" fill="black"/>
        <path d="M177.172 76.141L177.172 79.8393L175.985 79.8393L175.985 70.3925L178.996 70.3925C179.874 70.3925 180.564 70.6563 181.065 71.184C181.567 71.7074 181.818 72.406 181.818 73.2797C181.818 74.1881 181.578 74.8888 181.098 75.3819C180.622 75.8707 179.949 76.1237 179.08 76.141L177.172 76.141ZM177.172 75.1224L178.996 75.1224C179.523 75.1224 179.928 74.9645 180.209 74.6487C180.49 74.333 180.631 73.881 180.631 73.2927C180.631 72.7261 180.486 72.2719 180.196 71.9302C179.906 71.5885 179.508 71.4176 179.002 71.4176L177.172 71.4176L177.172 75.1224Z" fill="black"/>
        <path d="M184.887 70.3925L187.352 78.1004L189.818 70.3925L191.349 70.3925L191.349 79.8393L190.162 79.8393L190.162 76.1605L190.272 72.4752L187.8 79.8393L186.892 79.8393L184.433 72.5011L184.543 76.1605L184.543 79.8393L183.356 79.8393L183.356 70.3925L184.887 70.3925Z" fill="black"/>
        <path d="M197.922 77.3738L194.73 77.3738L193.996 79.8393L192.777 79.8393L195.82 70.3925L196.838 70.3925L199.888 79.8393L198.668 79.8393L197.922 77.3738ZM195.041 76.3486L197.617 76.3486L196.326 72.0534L195.041 76.3486Z" fill="black"/>
        <path d="M207.356 79.8393L206.162 79.8393L206.162 75.4727L202.36 75.4727L202.36 79.8393L201.172 79.8393L201.172 70.3925L202.36 70.3925L202.36 74.4541L206.162 74.4541L206.162 70.3925L207.356 70.3925L207.356 79.8393Z" fill="black"/>
        <path d="M215.336 76.8417C215.284 77.8539 214.999 78.6282 214.48 79.1645C213.965 79.7009 213.236 79.969 212.293 79.969C211.346 79.969 210.593 79.61 210.035 78.892C209.477 78.1697 209.198 77.1921 209.198 75.9593L209.198 74.2465C209.198 73.018 209.484 72.047 210.055 71.3332C210.63 70.6195 211.413 70.2627 212.403 70.2627C213.316 70.2627 214.021 70.5374 214.519 71.0867C215.02 71.6317 215.293 72.4125 215.336 73.4289L214.136 73.4289C214.084 72.659 213.922 72.1097 213.649 71.7809C213.377 71.4522 212.961 71.2878 212.403 71.2878C211.759 71.2878 211.264 71.5409 210.918 72.047C210.572 72.5487 210.399 73.2862 210.399 74.2594L210.399 75.9918C210.399 76.9477 210.559 77.6809 210.879 78.1913C211.203 78.7017 211.675 78.9569 212.293 78.9569C212.912 78.9569 213.357 78.8033 213.63 78.4962C213.902 78.1891 214.071 77.6376 214.136 76.8417L215.336 76.8417Z" fill="black"/>
        <path d="M219.093 75.596L218.197 75.596L218.197 79.8393L217.01 79.8393L217.01 70.3925L218.197 70.3925L218.197 74.5579L218.924 74.5579L221.584 70.3925L223.064 70.3925L220.066 74.9602L223.284 79.8393L221.831 79.8393L219.093 75.596Z" fill="black"/>
        <path d="M83.1715 293.492L83.1715 297.19L81.9841 297.19L81.9841 287.744L84.9947 287.744C85.8727 287.744 86.5626 288.007 87.0644 288.535C87.5661 289.058 87.817 289.757 87.817 290.631C87.817 291.539 87.577 292.24 87.0968 292.733C86.621 293.222 85.9484 293.475 85.079 293.492L83.1715 293.492ZM83.1715 292.473L84.9947 292.473C85.5224 292.473 85.9268 292.316 86.208 292C86.4891 291.684 86.6297 291.232 86.6297 290.644C86.6297 290.077 86.4848 289.623 86.195 289.281C85.9052 288.94 85.5072 288.769 85.0011 288.769L83.1715 288.769L83.1715 292.473Z" fill="black"/>
        <path d="M93.8835 292.824L90.5421 292.824L90.5421 296.172L94.435 296.172L94.435 297.19L89.3547 297.19L89.3547 287.744L94.3701 287.744L94.3701 288.769L90.5421 288.769L90.5421 291.805L93.8835 291.805L93.8835 292.824Z" fill="black"/>
        <path d="M101.883 294.193C101.832 295.205 101.546 295.979 101.027 296.516C100.512 297.052 99.7834 297.32 98.8405 297.32C97.8932 297.32 97.1406 296.961 96.5826 296.243C96.0246 295.521 95.7456 294.543 95.7456 293.31L95.7456 291.598C95.7456 290.369 96.0311 289.398 96.6021 288.684C97.1773 287.971 97.9603 287.614 98.9508 287.614C99.8635 287.614 100.569 287.888 101.066 288.438C101.568 288.983 101.84 289.764 101.883 290.78L100.683 290.78C100.631 290.01 100.469 289.461 100.197 289.132C99.924 288.803 99.5088 288.639 98.9508 288.639C98.3063 288.639 97.811 288.892 97.465 289.398C97.1189 289.9 96.9459 290.637 96.9459 291.611L96.9459 293.343C96.9459 294.299 97.106 295.032 97.4261 295.542C97.7505 296.053 98.2219 296.308 98.8405 296.308C99.459 296.308 99.9046 296.154 100.177 295.847C100.45 295.54 100.618 294.989 100.683 294.193L101.883 294.193Z" fill="black"/>
        <path d="M109.637 297.19L108.443 297.19L108.443 288.769L104.745 288.769L104.745 297.19L103.557 297.19L103.557 287.744L109.637 287.744L109.637 297.19Z" fill="black"/>
        <path d="M114.484 293.038L116.17 287.744L117.546 287.744L114.827 295.614C114.628 296.12 114.449 296.477 114.289 296.684C114.133 296.888 113.945 297.045 113.724 297.158C113.504 297.27 113.227 297.327 112.894 297.327C112.595 297.327 112.407 297.307 112.329 297.268L112.355 296.282L112.868 296.308C113.214 296.308 113.463 296.098 113.614 295.679L113.926 294.751L111.33 287.744L112.654 287.744L114.484 293.038Z" fill="black"/>
        <path d="M123.904 288.769L120.187 288.769L120.187 291.598L122.094 291.598C122.942 291.602 123.606 291.851 124.086 292.344C124.566 292.832 124.806 293.507 124.806 294.368C124.806 295.233 124.562 295.921 124.073 296.431C123.589 296.937 122.916 297.19 122.055 297.19L118.993 297.19L118.993 287.744L123.904 287.744L123.904 288.769ZM120.187 292.623L120.187 296.172L122.081 296.172C122.566 296.172 122.942 296.005 123.21 295.672C123.478 295.339 123.612 294.9 123.612 294.355C123.612 293.819 123.478 293.397 123.21 293.09C122.946 292.778 122.572 292.623 122.088 292.623L120.187 292.623Z" fill="black"/>
        <path d="M132.41 287.744L132.41 297.19L131.217 297.19L131.217 288.769L128.576 288.769L128.433 292.739C128.381 293.899 128.271 294.783 128.102 295.393C127.934 296.003 127.687 296.453 127.363 296.743C127.038 297.032 126.612 297.182 126.084 297.19L125.721 297.19L125.721 296.172L125.942 296.159C126.257 296.133 126.504 296.012 126.681 295.795C126.859 295.575 126.993 295.227 127.084 294.751C127.174 294.275 127.239 293.548 127.278 292.571L127.434 287.744L132.41 287.744Z" fill="black"/>
        <path d="M139.45 287.744L140.637 287.744L140.637 297.19L139.45 297.19L139.45 289.911L135.771 297.19L134.578 297.19L134.578 287.744L135.771 287.744L135.771 295.023L139.45 287.744Z" fill="black"/>
        <path d="M144.894 292.947L143.998 292.947L143.998 297.19L142.811 297.19L142.811 287.744L143.998 287.744L143.998 291.909L144.725 291.909L147.385 287.744L148.865 287.744L145.867 292.311L149.085 297.19L147.632 297.19L144.894 292.947Z" fill="black"/>
        <path d="M154.607 294.725L151.414 294.725L150.681 297.19L149.461 297.19L152.504 287.744L153.523 287.744L156.573 297.19L155.353 297.19L154.607 294.725ZM151.726 293.7L154.302 293.7L153.01 289.405L151.726 293.7Z" fill="black"/>
        <path d="M102.906 371.725L102.01 371.725L102.01 375.968L100.823 375.968L100.823 366.521L102.01 366.521L102.01 370.687L102.737 370.687L105.397 366.521L106.876 366.521L103.879 371.089L107.097 375.968L105.644 375.968L102.906 371.725Z" fill="black"/>
        <path d="M112.619 373.503L109.426 373.503L108.693 375.968L107.473 375.968L110.516 366.521L111.535 366.521L114.584 375.968L113.365 375.968L112.619 373.503ZM109.738 372.478L112.314 372.478L111.022 368.182L109.738 372.478Z" fill="black"/>
        <path d="M117.056 372.27L117.056 375.968L115.869 375.968L115.869 366.521L118.88 366.521C119.758 366.521 120.448 366.785 120.949 367.313C121.451 367.836 121.702 368.535 121.702 369.409C121.702 370.317 121.462 371.018 120.982 371.511C120.506 372 119.833 372.253 118.964 372.27L117.056 372.27ZM117.056 371.251L118.88 371.251C119.407 371.251 119.812 371.094 120.093 370.778C120.374 370.462 120.515 370.01 120.515 369.422C120.515 368.855 120.37 368.401 120.08 368.059C119.79 367.717 119.392 367.547 118.886 367.547L117.056 367.547L117.056 371.251Z" fill="black"/>
        <path d="M127.769 371.602L124.427 371.602L124.427 374.95L128.32 374.95L128.32 375.968L123.24 375.968L123.24 366.521L128.255 366.521L128.255 367.547L124.427 367.547L124.427 370.583L127.769 370.583L127.769 371.602Z" fill="black"/>
        <path d="M135.918 366.521L135.918 375.968L134.724 375.968L134.724 367.547L132.083 367.547L131.94 371.517C131.889 372.677 131.778 373.561 131.61 374.171C131.441 374.781 131.194 375.231 130.87 375.521C130.545 375.81 130.119 375.96 129.592 375.968L129.228 375.968L129.228 374.95L129.449 374.937C129.765 374.911 130.011 374.79 130.189 374.573C130.366 374.353 130.5 374.005 130.591 373.529C130.682 373.053 130.747 372.326 130.786 371.349L130.941 366.521L135.918 366.521Z" fill="black"/>
        <path d="M142.957 366.521L144.145 366.521L144.145 375.968L142.957 375.968L142.957 368.689L139.279 375.968L138.085 375.968L138.085 366.521L139.279 366.521L139.279 373.801L142.957 366.521Z" fill="black"/>
        <path d="M150.38 375.968L150.38 372.289L148.745 372.289L147.116 375.968L145.851 375.968L147.7 371.926C146.671 371.446 146.156 370.594 146.156 369.37C146.156 368.483 146.403 367.789 146.896 367.287C147.393 366.781 148.087 366.526 148.978 366.521L151.574 366.521L151.574 375.968L150.38 375.968ZM147.35 369.37C147.35 369.941 147.493 370.399 147.778 370.745C148.064 371.087 148.464 371.262 148.978 371.271L150.38 371.271L150.38 367.547L148.991 367.547C148.455 367.547 148.046 367.709 147.765 368.033C147.488 368.358 147.35 368.803 147.35 369.37Z" fill="black"/>
        <path d="M121.437 86.6426L120.67 86.6426L120.67 90.2797L119.652 90.2797L119.652 82.1824L120.67 82.1824L120.67 85.7528L121.292 85.7528L123.573 82.1824L124.841 82.1824L122.271 86.0976L125.03 90.2797L123.784 90.2797L121.437 86.6426Z" fill="black"/>
        <path d="M131.075 86.9429C131.075 88.0477 130.839 88.8986 130.369 89.4955C129.898 90.0924 129.228 90.3909 128.361 90.3909C127.527 90.3909 126.867 90.1017 126.381 89.5233C125.899 88.9412 125.649 88.12 125.63 87.0597L125.63 85.5359C125.63 84.4533 125.869 83.6061 126.348 82.9943C126.826 82.3789 127.493 82.0712 128.35 82.0712C129.202 82.0712 129.866 82.3659 130.341 82.9554C130.819 83.5412 131.064 84.3791 131.075 85.4691L131.075 86.9429ZM130.057 85.5247C130.057 84.6683 129.916 84.0325 129.634 83.6172C129.356 83.1983 128.928 82.9888 128.35 82.9888C127.79 82.9888 127.365 83.2001 127.076 83.6228C126.791 84.0454 126.646 84.6683 126.642 85.4914L126.642 86.9429C126.642 87.7697 126.785 88.3999 127.071 88.8337C127.36 89.2675 127.79 89.4844 128.361 89.4844C128.932 89.4844 129.355 89.2842 129.629 88.8838C129.903 88.4834 130.046 87.8698 130.057 87.043L130.057 85.5247Z" fill="black"/>
        <path d="M137.676 82.1824L137.676 90.2797L136.653 90.2797L136.653 83.0611L134.389 83.0611L134.267 86.4646C134.223 87.4582 134.128 88.2164 133.983 88.7392C133.839 89.262 133.627 89.6475 133.349 89.8959C133.071 90.1443 132.706 90.2723 132.254 90.2797L131.942 90.2797L131.942 89.4065L132.131 89.3954C132.402 89.3732 132.613 89.2694 132.765 89.084C132.917 88.8949 133.032 88.5964 133.11 88.1886C133.188 87.7808 133.244 87.1579 133.277 86.32L133.411 82.1824L137.676 82.1824Z" fill="black"/>
        <path d="M143.365 88.1664L140.629 88.1664L140.001 90.2797L138.955 90.2797L141.563 82.1824L142.437 82.1824L145.05 90.2797L144.005 90.2797L143.365 88.1664ZM140.896 87.2877L143.104 87.2877L141.997 83.6061L140.896 87.2877Z" fill="black"/>
        <mask id="path-8-inside-1" fill="white">
            <ellipse cx="150.806" cy="75.7365" rx="4.27731" ry="4.20537" transform="rotate(5.1876 150.806 75.7365)"/>
        </mask>
        <ellipse cx="150.806" cy="75.7365" rx="4.27731" ry="4.20537" transform="rotate(5.1876 150.806 75.7365)" fill="white"/>
        <path d="M149.09 75.5807C149.188 74.4985 150.117 73.8719 150.968 73.9492L149.883 85.9001C155.44 86.4046 160.523 82.3741 161.041 76.6657L149.09 75.5807ZM150.968 73.9492C151.82 74.0265 152.62 74.81 152.521 75.8923L140.571 74.8073C140.052 80.5156 144.326 85.3956 149.883 85.9001L150.968 73.9492ZM152.521 75.8923C152.423 76.9745 151.495 77.6011 150.644 77.5238L151.729 65.5729C146.172 65.0684 141.089 69.0989 140.571 74.8073L152.521 75.8923ZM150.644 77.5238C149.792 77.4465 148.992 76.663 149.09 75.5807L161.041 76.6657C161.559 70.9574 157.285 66.0774 151.729 65.5729L150.644 77.5238Z" fill="black" mask="url(#path-8-inside-1)"/>
        <ellipse cx="150.837" cy="75.7742" rx="1.99841" ry="1.9648" transform="rotate(5.1876 150.837 75.7742)" fill="#0E0E0E"/>
        <ellipse cx="150.515" cy="84.3633" rx="2.45419" ry="2.41291" transform="rotate(5.1876 150.515 84.3633)" fill="white"/>
        <ellipse cx="150.534" cy="84.3848" rx="1.14663" ry="1.12735" transform="rotate(5.1876 150.534 84.3848)" fill="#0E0E0E"/>
    </g>
    <defs>
        <filter id="filter0_i" x="19.1743" y="0.746704" width="340.724" height="609.586" filterUnits="userSpaceOnUse" color-interpolation-filters="sRGB">
            <feFlood flood-opacity="0" result="BackgroundImageFix"/>
            <feBlend mode="normal" in="SourceGraphic" in2="BackgroundImageFix" result="shape"/>
            <feColorMatrix in="SourceAlpha" type="matrix" values="0 0 0 0 0 0 0 0 0 0 0 0 0 0 0 0 0 0 127 0" result="hardAlpha"/>
            <feOffset dy="2"/>
            <feGaussianBlur stdDeviation="2"/>
            <feComposite in2="hardAlpha" operator="arithmetic" k2="-1" k3="1"/>
            <feColorMatrix type="matrix" values="0 0 0 0 0.0646875 0 0 0 0 0.133468 0 0 0 0 0.191667 0 0 0 0.58 0"/>
            <feBlend mode="normal" in2="shape" result="effect1_innerShadow"/>
        </filter>
    </defs>
</svg>
