<svg width="19" height="20" viewBox="0 0 19 20" fill="none" xmlns="http://www.w3.org/2000/svg">
    <path d="M5.68284 1.00782L4.50868 0.762256C4.13988 0.685108 3.7565 0.752579 3.43883 0.951935C2.79015 1.35885 1.72795 2.17497 1.25777 3.37857C0.556648 5.17319 0.862388 7.54921 2.19975 10.0834C3.53711 12.6175 6.12 16.7401 11.4252 19.145C13.1347 19.92 14.5902 19.7973 15.7777 19.2751C16.7182 18.8616 17.4419 18.0773 17.8045 17.1209L18.1259 16.2732C18.2281 16.0038 18.1283 15.6992 17.8857 15.54L14.1613 13.0954C13.9195 12.9367 13.6002 12.9646 13.3915 13.1626L11.5154 14.9438C11.3737 15.0784 11.1615 15.1078 10.9877 15.0157C9.96881 14.4754 6.59203 12.4246 5.18617 8.3399C5.12521 8.16274 5.1766 7.96693 5.31934 7.84569L7.08092 6.3514C7.26088 6.19882 7.33702 5.9572 7.27718 5.72909L6.15772 1.45805C6.09812 1.23067 5.91396 1.05617 5.68284 1.00782Z"
          fill="#E1D091"/>
</svg>
