<svg width="77" height="77" viewBox="0 0 77 77" fill="none" xmlns="http://www.w3.org/2000/svg">
    <circle cx="38.5" cy="38.5" r="38.5" fill="#182125"/>
    <circle cx="37.9337" cy="39.0662" r="31.1397" fill="#25353D"/>
    <circle cx="37.9339" cy="39.0662" r="22.0809" fill="#59B9E2"/>
    <path d="M32.4088 23.7283L30.5812 23.346C30.0071 23.2259 29.4104 23.331 28.9159 23.6413C27.9062 24.2747 26.2528 25.545 25.521 27.4185C24.4296 30.2119 24.9055 33.9103 26.9872 37.8548C29.0689 41.7994 33.0893 48.2164 41.3471 51.9598C44.0081 53.166 46.2735 52.9751 48.122 52.1623C49.5859 51.5186 50.7125 50.2978 51.2769 48.8091L51.7772 47.4896C51.9362 47.0703 51.7809 46.5962 51.4032 46.3483L45.606 42.5431C45.2297 42.2962 44.7326 42.3396 44.4078 42.6479L41.4876 45.4203C41.267 45.6298 40.9366 45.6756 40.6662 45.5322C39.0802 44.6913 33.824 41.4991 31.6357 35.141C31.5408 34.8653 31.6208 34.5605 31.843 34.3718L34.585 32.0458C34.8651 31.8083 34.9836 31.4322 34.8905 31.0772L33.148 24.4291C33.0552 24.0751 32.7686 23.8035 32.4088 23.7283Z" fill="white"/>
</svg>
