<svg width="43" height="43" viewBox="0 0 43 43" fill="none" xmlns="http://www.w3.org/2000/svg">
    <path d="M32.6915 28.4456C31.2867 27.0587 29.5329 27.0587 28.137 28.4456C27.0722 29.5015 26.0074 30.5573 24.9604 31.6311C24.6741 31.9264 24.4325 31.989 24.0835 31.7922C23.3945 31.4164 22.6608 31.1121 21.9986 30.7005C18.9115 28.7588 16.3256 26.2623 14.0349 23.4526C12.8985 22.0567 11.8873 20.5624 11.1804 18.8801C11.0373 18.5401 11.0641 18.3164 11.3415 18.039C12.4063 17.01 13.4443 15.9541 14.4912 14.8983C15.9497 13.4308 15.9497 11.7128 14.4823 10.2363C13.6501 9.39522 12.8179 8.572 11.9858 7.73088C11.1267 6.87187 10.2767 6.00391 9.40872 5.15385C8.00388 3.7848 6.25006 3.7848 4.85416 5.16279C3.7804 6.21866 2.75137 7.30138 1.65971 8.33935C0.648578 9.29679 0.138539 10.469 0.0311627 11.838C-0.13885 14.0661 0.406981 16.1689 1.17651 18.218C2.75137 22.4594 5.14945 26.2265 8.05756 29.6804C11.9858 34.3513 16.6745 38.0469 22.1597 40.7134C24.6294 41.9124 27.1885 42.8341 29.9713 42.9862C31.8862 43.0936 33.5506 42.6104 34.8838 41.116C35.7965 40.096 36.8255 39.1654 37.7919 38.19C39.2236 36.7404 39.2326 34.9866 37.8098 33.5549C36.1097 31.8459 34.4006 30.1457 32.6915 28.4456Z" fill="url(#paint0_linear)"/>
    <path d="M30.9824 21.3135L34.2843 20.7498C33.7653 17.7164 32.3336 14.9693 30.1592 12.786C27.8596 10.4863 24.9515 9.03676 21.7481 8.58936L21.2828 11.9091C23.7614 12.2581 26.0163 13.3766 27.7969 15.1572C29.4792 16.8395 30.5798 18.9691 30.9824 21.3135Z" fill="url(#paint1_linear)"/>
    <path d="M36.1458 6.96158C32.3339 3.14971 27.5109 0.742688 22.1868 0L21.7215 3.31973C26.3208 3.96399 30.4906 6.04888 33.7835 9.33282C36.9064 12.4557 38.9555 16.4018 39.6982 20.7416L43 20.1779C42.132 15.1491 39.7608 10.5855 36.1458 6.96158Z" fill="url(#paint2_linear)"/>
    <defs>
        <linearGradient id="paint0_linear" x1="19.4756" y1="4.12817" x2="19.4756" y2="44.557" gradientUnits="userSpaceOnUse">
            <stop stop-color="#59B9E2"/>
            <stop offset="1" stop-color="#168CBC"/>
        </linearGradient>
        <linearGradient id="paint1_linear" x1="27.7969" y1="8.58936" x2="27.7969" y2="21.823" gradientUnits="userSpaceOnUse">
            <stop stop-color="#59B9E2"/>
            <stop offset="1" stop-color="#168CBC"/>
        </linearGradient>
        <linearGradient id="paint2_linear" x1="32.3826" y1="-3.00839e-09" x2="32.3826" y2="21.5721" gradientUnits="userSpaceOnUse">
            <stop stop-color="#59B9E2"/>
            <stop offset="1" stop-color="#168CBC"/>
        </linearGradient>
    </defs>
</svg>
