<svg width="16" height="17" viewBox="0 0 16 17" fill="none" xmlns="http://www.w3.org/2000/svg">
    <path d="M4.57851 0.607855L3.55096 0.392957C3.22821 0.325442 2.89271 0.384488 2.61469 0.558952C2.04701 0.915062 1.11745 1.62927 0.705973 2.68259C0.0923943 4.25313 0.359959 6.33247 1.53033 8.55021C2.7007 10.7679 4.96108 14.3758 9.60384 16.4804C11.0999 17.1586 12.3736 17.0512 13.4129 16.5942C14.236 16.2323 14.8693 15.546 15.1866 14.709L15.4679 13.9672C15.5573 13.7314 15.47 13.4648 15.2577 13.3255L11.9983 11.1861C11.7867 11.0473 11.5073 11.0717 11.3247 11.245L9.68284 12.8037C9.55883 12.9215 9.37307 12.9472 9.22103 12.8667C8.32932 12.3938 5.37418 10.5991 4.14386 7.02443C4.09051 6.86939 4.13548 6.69803 4.2604 6.59193L5.80202 5.28422C5.95952 5.1507 6.02614 4.93924 5.97378 4.73961L4.99409 1.00187C4.94194 0.802887 4.78077 0.650174 4.57851 0.607855Z" fill="#23262E"/>
</svg>
