<svg width="96" height="54" viewBox="0 0 96 54" fill="none" xmlns="http://www.w3.org/2000/svg">
    <path d="M66.8243 2.8562C66.0243 2.8562 65.378 3.50675 65.3766 4.30674V36.3185H60.2205V29.5931C60.2367 28.7168 59.4791 28.024 58.608 28.1212C58.84 29.0426 57.7018 29.1845 57.3196 29.5931V36.3185H54.5431V32.8476C54.553 32.0317 53.8897 31.3682 53.0737 31.3783C52.6381 32.1526 51.6689 32.1184 51.6449 32.8476V36.3185H27.7739C25.9479 34.616 23.5089 33.5635 20.8271 33.5635C18.1452 33.5635 15.7065 34.616 13.8829 36.3185H13.0672V32.8476C13.0756 32.0338 12.1582 31.6778 11.5979 31.3783C10.7979 31.394 10.1592 32.0477 10.1691 32.8476V36.3185H7.39253V29.5931C7.20568 28.8839 6.5103 28.14 5.78007 28.1212C5.03659 28.2069 4.47763 28.8449 4.49171 29.5931V36.3185H2.86845C2.06448 36.3185 1.41135 36.9648 1.40991 37.7687V43.4544C1.4113 44.2584 2.06446 44.9091 2.86845 44.905H10.6958C11.2675 49.9883 15.5964 53.9693 20.8271 53.9693C26.0568 53.9693 30.3923 49.9896 30.9665 44.9075C43.062 44.9064 55.1579 44.9064 67.2511 44.9075C67.824 49.9896 72.1499 53.9693 77.3796 53.9693C82.5004 53.9693 86.7465 50.1508 87.4596 45.2208H94.5415C95.3494 45.2208 96.0042 44.5703 96 43.7623V18.9458C95.9989 18.6542 95.9112 18.368 95.7461 18.1275L85.8741 3.49933C85.6047 3.09792 85.1531 2.85672 84.6695 2.8562H66.8243ZM68.2747 5.76526H83.8943L93.0911 19.3835V36.3185H84.3238C82.5002 34.616 80.0615 33.5635 77.3796 33.5635C74.6975 33.5635 72.2591 34.6157 70.4355 36.3185H68.2747V5.76526ZM70.8973 8.28799C70.7056 8.28715 70.5155 8.32441 70.3382 8.39741C70.1609 8.47041 69.9998 8.57763 69.8642 8.71323C69.7285 8.84883 69.6211 9.00995 69.5481 9.18728C69.4751 9.36461 69.438 9.55474 69.4388 9.74651V21.1904C69.439 21.3815 69.477 21.5706 69.5504 21.747C69.6239 21.9234 69.7315 22.0835 69.867 22.2182C70.0025 22.353 70.1632 22.4599 70.3401 22.5324C70.5169 22.6049 70.7062 22.6417 70.8973 22.6409H90.4576C90.7189 22.638 90.9745 22.5648 91.1976 22.4288C91.4206 22.2928 91.6029 22.0992 91.7251 21.8683C91.8474 21.6374 91.905 21.3776 91.8921 21.1167C91.8791 20.8557 91.796 20.6032 91.6515 20.3855L83.9348 8.9308C83.8009 8.7351 83.6211 8.57521 83.4111 8.46504C83.2011 8.35487 82.9673 8.29782 82.7302 8.29884L70.8973 8.28799ZM72.3477 11.197H81.9523L87.7216 19.7401H72.3477V11.197ZM20.8271 36.3293C24.9498 36.3293 28.2682 39.6396 28.2682 43.7623C28.2682 47.8851 24.9498 51.2035 20.8271 51.2035C16.7043 51.2035 13.3941 47.8851 13.3941 43.7623C13.3941 39.6396 16.7043 36.3293 20.8271 36.3293ZM77.3796 36.3293C81.5024 36.3293 84.8126 39.6396 84.8126 43.7623C84.8126 47.8851 81.5024 51.2035 77.3796 51.2035C73.2569 51.2035 69.9493 47.8851 69.9493 43.7623C69.9493 39.6396 73.2569 36.3293 77.3796 36.3293ZM20.8271 38.444C17.9024 38.444 15.5089 40.8376 15.5089 43.7623C15.5089 46.687 17.9024 49.0913 20.8271 49.0913C23.7517 49.0913 26.156 46.687 26.156 43.7623C26.156 40.8376 23.7517 38.444 20.8271 38.444ZM77.3796 38.444C74.455 38.444 72.0506 40.8376 72.0506 43.7623C72.0506 46.687 74.455 49.0913 77.3796 49.0913C80.3043 49.0913 82.7086 46.687 82.7086 43.7623C82.7086 40.8376 80.3043 38.444 77.3796 38.444ZM4.31887 39.2192H11.7114C11.2769 40.0863 10.9626 41.0218 10.7903 42.0068H4.31887V39.2192ZM29.9482 39.2192H66.8243H68.2639C67.8296 40.0863 67.5151 41.022 67.3429 42.0068C55.1875 42.0055 43.0298 42.0055 30.8719 42.0068C30.6993 41.0218 30.3834 40.0863 29.9482 39.2192ZM86.4953 39.2192H93.0911V42.3117H87.4623C87.3047 41.2154 86.9743 40.1752 86.4953 39.2192ZM20.8271 41.3423C22.1823 41.3423 23.2552 42.407 23.2552 43.7623C23.2552 45.1175 22.1823 46.1906 20.8271 46.1906C19.4719 46.1906 18.407 45.1175 18.407 43.7623C18.407 42.407 19.4719 41.3423 20.8271 41.3423ZM77.3796 41.3423C78.7348 41.3423 79.7997 42.407 79.7997 43.7623C79.7997 45.1175 78.7348 46.1906 77.3796 46.1906C76.0244 46.1906 74.9596 45.1175 74.9596 43.7623C74.9596 42.407 76.0244 41.3423 77.3796 41.3423Z" fill="#2D2D2D"/>
    <path d="M31.6214 13.2806C30.7852 14.6622 29.1117 17.427 28.6093 19.7562C28.1068 22.0853 28.7758 23.9758 30.0139 24.9877C31.2519 25.9995 33.0554 26.1304 34.3864 25.308C35.7173 24.4855 36.5764 22.7093 36.1765 20.3177C35.7766 17.9259 34.1164 14.9115 32.4576 11.8993C32.4576 11.8993 32.4576 11.899 31.6214 13.2806Z" fill="black"/>
    <path d="M22.3774 0.0311279L20.6623 2.85629H15.7006C7.02408 2.85629 0 9.8914 0 18.5679V19.181C0 27.8577 7.02408 34.8897 15.7006 34.8897H49.0115C57.688 34.8897 64.7229 27.8577 64.7229 19.181V18.5679C64.7229 9.8914 57.688 2.85629 49.0115 2.85629H41.6217L39.9066 0.0311279H31.142H22.3774ZM23.9682 1.99496H31.142H38.313L38.9423 2.85629H23.3389L23.9682 1.99496ZM15.7006 5.76534H49.0115C56.1294 5.76534 61.8113 11.4499 61.8113 18.5679V19.181C61.8113 26.2991 56.1294 31.981 49.0115 31.981H15.7006C8.58269 31.981 2.90082 26.2991 2.90082 19.181V18.5679C2.90082 11.4499 8.58269 5.76534 15.7006 5.76534Z" fill="#C79217"/>
</svg>
