<svg width="86" height="78" viewBox="0 0 86 78" fill="none" xmlns="http://www.w3.org/2000/svg">
    <path d="M21.9003 53.1072V56.7211H1.67355C1.62066 56.7185 1.56767 56.7185 1.51478 56.7211C1.11626 56.7611 0.74692 56.9477 0.478781 57.2453C0.210641 57.5428 0.0629309 57.9295 0.0644687 58.33V66.1213C0.0635378 66.3333 0.104456 66.5431 0.18488 66.7393C0.265304 66.9354 0.383655 67.1138 0.533141 67.2641C0.682627 67.4145 0.860308 67.5341 1.05601 67.6156C1.25171 67.6971 1.46158 67.7392 1.67358 67.7395H5.69496V75.9618C5.69545 76.3879 5.86473 76.7963 6.16576 77.0979C6.46678 77.3995 6.87504 77.5698 7.30116 77.5711H15.5807C16.0073 77.5706 16.4163 77.4007 16.7179 77.099C17.0196 76.7973 17.1893 76.3884 17.1898 75.9618V67.7395H37.1558V75.9618C37.1563 76.3884 37.326 76.7973 37.6277 77.099C37.9293 77.4007 38.3383 77.5706 38.7649 77.5711H47.0444C47.4711 77.5706 47.8801 77.4007 48.1817 77.099C48.4834 76.7973 48.6531 76.3884 48.6536 75.9618V67.7395H68.6196V75.9618C68.6201 76.3884 68.7898 76.7973 69.0915 77.099C69.3931 77.4007 69.8021 77.5706 70.2287 77.5711H78.5052C78.9318 77.5706 79.3409 77.401 79.6425 77.0993C79.9442 76.7976 80.1139 76.3885 80.1144 75.9618V67.7395H84.1358C84.3476 67.7388 84.5571 67.6962 84.7524 67.6145C84.9478 67.5328 85.1251 67.4134 85.2743 67.2631C85.4234 67.1128 85.5415 66.9345 85.6217 66.7386C85.702 66.5426 85.7428 66.3331 85.7419 66.1213V58.33C85.7414 57.9039 85.5721 57.4955 85.2711 57.1939C84.9701 56.8923 84.5619 56.7224 84.1358 56.7211H63.9091V53.1072H60.6907V56.7211H42.9002H25.1187V53.1072H21.9003ZM3.29478 59.9361H42.9001H82.5146V64.512H42.9001H3.29478V59.9361ZM8.9222 67.7395H13.9625V74.3437H8.9222V67.7395ZM40.3831 67.7395H42.9001H45.4233V74.3437H40.3831V67.7395ZM71.8469 67.7395H76.8871V74.3437H71.8469V67.7395Z" fill="#2F2F2F"/>
    <path d="M51.1761 0.193604C48.4699 0.193604 46.2407 2.42318 46.2407 5.12943V6.52601L49.462 6.52283V5.12943C49.462 4.15235 50.1991 3.41821 51.1761 3.41821H60.6661C61.6431 3.41821 62.3771 4.15235 62.3771 5.12943V6.52283H65.6014V5.12943C65.6014 2.42318 63.3722 0.193604 60.6661 0.193604H51.1761Z" fill="black"/>
    <path d="M26.4993 7.40955V53.1085H29.7271V45.6786H38.4931V53.1085H41.7095V7.40955H38.4931V14.8395H29.7271V7.40955H26.4993ZM29.7271 18.0559H38.4931V24.0471H29.7271V18.0559ZM29.7271 27.264H38.4931V33.2552H29.7271V27.264ZM29.7271 36.4716H38.4931V42.4629H29.7271V36.4716Z" fill="black"/>
    <path d="M24.7322 5.80151C11.2087 5.80151 0.269043 16.7412 0.269043 30.2644C0.269043 43.788 11.2087 54.7162 24.7322 54.7162H61.076C74.5995 54.7162 85.5392 43.788 85.5392 30.2644C85.5392 16.7412 74.5995 5.80151 61.076 5.80151H24.7322ZM24.7322 9.01797H61.076C72.8703 9.01797 82.3114 18.4704 82.3114 30.2644C82.3114 42.0589 72.8703 51.5005 61.076 51.5005H24.7322C12.9379 51.5005 3.49683 42.0589 3.49683 30.2644C3.49683 18.4704 12.9379 9.01797 24.7322 9.01797Z" fill="#C79217"/>
</svg>
