<svg width="87" height="76" viewBox="0 0 87 76" fill="none" xmlns="http://www.w3.org/2000/svg">
    <path d="M33.8319 0.263755C28.1413 0.263755 22.9898 0.803348 19.1509 1.71952C17.2314 2.17757 15.6431 2.7236 14.4043 3.42241C13.1655 4.12129 12.0133 5.11585 12.0133 6.67793C12.0133 8.06595 12.9326 8.99198 14.0043 9.6747V13.6187C11.4655 13.8687 9.16008 14.2368 7.20203 14.7038C5.28254 15.1619 3.69389 15.7049 2.45537 16.4037C1.21658 17.1026 0.0644531 18.0971 0.0644531 19.6592C0.0644531 21.0468 0.983818 21.973 2.05544 22.656L2.03788 43.1044C1.65011 43.3528 1.29244 43.6218 0.987992 43.9424C0.470959 44.4881 0.0645694 45.2454 0.0645694 46.0981C0.0650572 47.4896 0.988954 48.415 2.0644 49.0979L2.04381 66.0699C1.65375 66.3184 1.29391 66.5882 0.987992 66.9111C0.470959 67.456 0.0645694 68.2141 0.0645694 69.0668C0.0646304 70.6287 1.21674 71.6265 2.45555 72.3252C3.6943 73.0241 5.28267 73.5555 7.20215 74.0134C11.0411 74.9295 16.1926 75.4809 21.8831 75.4809C27.5736 75.4809 32.7163 74.9291 36.5553 74.0134C38.4748 73.5553 40.0631 73.024 41.3019 72.3252C42.5407 71.6264 43.7046 70.6287 43.7046 69.0668C43.7046 68.2128 43.2877 67.4569 42.7694 66.9111C42.4648 66.5902 42.1035 66.3211 41.7136 66.0699V62.0909C42.896 61.9675 44.0436 61.8257 45.1339 61.6558V63.3321C44.7417 63.5852 44.3765 63.858 44.0693 64.182C43.5522 64.7277 43.137 65.4849 43.137 66.3376C43.1375 67.8996 44.2862 68.8974 45.525 69.5962C46.7638 70.2943 48.3522 70.8264 50.2717 71.2843C54.1106 72.2002 59.2653 72.7401 64.9556 72.7401C70.6458 72.7401 75.7888 72.2005 79.6277 71.2843C81.5472 70.8262 83.1355 70.2942 84.3743 69.5962C85.6132 68.8973 86.7736 67.8996 86.7741 66.3376C86.7745 65.4835 86.3602 64.7281 85.8419 64.182C85.5392 63.8634 85.1789 63.5936 84.792 63.3439L84.7857 46.363C85.854 45.6809 86.7733 44.7579 86.7737 43.375C86.774 42.5208 86.3598 41.7653 85.8415 41.2191C85.5329 40.8945 85.164 40.6201 84.768 40.3663L84.7856 19.921C85.854 19.2389 86.7736 18.3132 86.7736 16.9301C86.7736 15.3681 85.6127 14.3734 84.3739 13.6746C83.1353 12.9757 81.5469 12.4325 79.6274 11.9746C75.7885 11.0587 70.6459 10.5189 64.9553 10.5189C60.7987 10.5189 56.9428 10.8124 53.6622 11.3247V9.66017C54.7312 8.97805 55.6532 8.05522 55.6532 6.67223C55.6532 5.11015 54.4893 4.1154 53.2505 3.41659C52.0117 2.71771 50.4234 2.17183 48.5039 1.7137C44.6649 0.797838 39.5223 0.258057 33.8317 0.258057L33.8319 0.263755ZM33.8319 3.42822C39.3186 3.42822 44.286 3.97241 47.7718 4.80444C49.5147 5.22057 50.8972 5.71553 51.7067 6.17205C52.1087 6.39917 52.3008 6.58135 52.3948 6.68119C52.3007 6.77874 52.1085 6.95856 51.7067 7.18416C50.8972 7.64068 49.5147 8.13591 47.7718 8.55166C44.286 9.38338 39.3186 9.93102 33.8319 9.93102C28.3452 9.93102 23.369 9.38376 19.8832 8.55166C18.1403 8.13553 16.7694 7.64083 15.96 7.18416C15.5583 6.9578 15.3598 6.77874 15.263 6.68119C15.3598 6.58135 15.5581 6.39841 15.96 6.17205C16.7694 5.71553 18.1403 5.22034 19.8832 4.80444C23.369 3.97287 28.3452 3.42822 33.8319 3.42822ZM17.1599 11.057C17.7907 11.2567 18.424 11.4572 19.1509 11.6302C22.9898 12.5464 28.1413 13.0859 33.8319 13.0859C39.5225 13.0859 44.665 12.5464 48.504 11.6302C49.2309 11.4564 49.8641 11.2567 50.495 11.057V11.9422C50.4257 11.9574 50.3404 11.9727 50.2715 11.9879C48.352 12.4459 46.7637 12.989 45.5249 13.6878C44.2861 14.3867 43.1369 15.3813 43.1369 16.9434C43.1369 18.3326 44.0553 19.26 45.1279 19.9431L45.169 35.5006C44.0735 35.6851 42.8925 35.8374 41.6664 35.9708L41.6984 22.6661C42.7735 21.9832 43.7041 21.0554 43.7041 19.6664C43.7041 18.1043 42.5402 17.1094 41.3014 16.4108C40.0626 15.7119 38.4743 15.1688 36.5548 14.7109C32.7158 13.795 27.5732 13.2552 21.8826 13.2552C20.2519 13.2552 18.6838 13.3085 17.1595 13.3931L17.1599 11.057ZM64.9554 13.6863C70.4421 13.6863 75.4066 14.2335 78.8924 15.0655C80.6353 15.4816 82.0178 15.9765 82.8273 16.433C83.2266 16.6586 83.4207 16.8385 83.5155 16.9391C83.4211 17.0367 83.2278 17.2165 82.8273 17.4421C82.7648 17.4726 82.6467 17.5183 82.5773 17.5503C82.5667 17.5503 82.556 17.5656 82.5446 17.5656C81.7159 17.987 80.4825 18.4303 78.8919 18.8096C75.4061 19.6413 70.4417 20.1888 64.955 20.1888C59.4683 20.1888 54.4922 19.6408 51.0064 18.8096C49.3863 18.4232 48.1322 17.971 47.3067 17.542C47.2442 17.5115 47.1373 17.4734 47.0803 17.4422C46.6797 17.2166 46.4864 17.0367 46.3892 16.9391C46.4866 16.8385 46.6809 16.6572 47.0803 16.4331C47.8898 15.9766 49.2635 15.4814 51.0064 15.0655C54.4922 14.2338 59.4684 13.6863 64.9551 13.6863H64.9554ZM21.883 16.4212C27.3697 16.4212 32.3371 16.957 35.8229 17.7887C37.5658 18.2049 38.9366 18.7085 39.746 19.1652C40.1426 19.3862 40.336 19.5668 40.4342 19.6651C40.3364 19.7635 40.144 19.9449 39.746 20.1682C38.9366 20.6248 37.5658 21.1287 35.8229 21.5444C32.3371 22.3763 27.3697 22.9119 21.883 22.9119C16.3963 22.9119 11.4201 22.3762 7.93427 21.5444C6.19136 21.1283 4.82056 20.6248 4.01114 20.1682C3.61323 19.9442 3.41787 19.7627 3.32001 19.6651C3.41817 19.5676 3.61437 19.3855 4.01114 19.1652C4.82056 18.7087 6.19136 18.2046 7.93427 17.7887C11.4201 16.957 16.3963 16.4212 21.883 16.4212ZM81.6156 21.3208L81.6127 41.0749C81.6125 41.0749 81.6128 41.0746 81.6127 41.0902C81.5237 41.7715 81.885 42.4324 82.5067 42.7252C83.0295 42.9867 83.3594 43.2413 83.5125 43.396C83.4171 43.4936 83.2237 43.6704 82.8272 43.893C82.0177 44.3495 80.6352 44.8447 78.8923 45.2604C75.4065 46.092 70.4418 46.6368 64.9554 46.6368C59.469 46.6368 54.4925 46.0919 51.0067 45.2604C49.2638 44.8443 47.8901 44.3496 47.0805 43.893C46.6826 43.6689 46.4903 43.4874 46.3924 43.3899C46.5471 43.2359 46.8764 42.9836 47.3923 42.7252C48.0337 42.4524 48.4208 41.7919 48.3452 41.099C48.3452 41.099 48.3452 41.0838 48.3452 41.0838L48.2896 21.3236C48.918 21.5225 49.5482 21.7183 50.2717 21.8914C54.1107 22.8073 59.2651 23.3473 64.9557 23.3471C70.6462 23.3471 75.7889 22.8075 79.6278 21.8914C80.3537 21.7183 80.9857 21.5203 81.6159 21.3206L81.6156 21.3208ZM5.21099 24.041C5.84188 24.2407 6.47521 24.4382 7.20203 24.6119C11.041 25.5281 16.1924 26.0677 21.883 26.0677C27.5736 26.0677 32.7162 25.5281 36.5552 24.6119C37.2797 24.4389 37.911 24.2431 38.5402 24.0442L38.4785 43.8748C38.4328 44.5455 38.8162 45.1721 39.4344 45.4365C39.9548 45.6964 40.286 45.9471 40.4401 46.101C40.3433 46.1986 40.1481 46.3785 39.746 46.6041C38.9365 47.0606 37.5658 47.5645 35.8229 47.9804C32.3371 48.8121 27.3694 49.3481 21.883 49.3481C16.3966 49.3481 11.4201 48.8122 7.93433 47.9804C6.19143 47.5643 4.8207 47.0607 4.01114 46.6041C3.6117 46.3793 3.41452 46.1986 3.31704 46.101C3.47061 45.9471 3.80445 45.6956 4.32286 45.4365C4.8187 45.1926 5.07271 44.7795 5.15807 44.3395C5.16258 44.3243 5.16724 44.309 5.17028 44.2861C5.184 44.2061 5.19313 44.1292 5.19389 44.0476C5.1969 44.0095 5.2061 43.9714 5.2061 43.9303L5.21099 24.041ZM45.1779 38.6987L45.1839 40.3575C44.7721 40.6159 44.3891 40.8932 44.0693 41.2308C43.5523 41.7765 43.1371 42.5339 43.1371 43.3866C43.1375 44.7796 44.0605 45.7061 45.1369 46.3893L45.1339 58.4648C44.0626 58.6424 42.9097 58.7934 41.7136 58.9237V49.0981C42.7824 48.416 43.7041 47.493 43.7046 46.1101C43.7049 45.2559 43.2877 44.5004 42.7693 43.9544C42.4486 43.6167 42.0638 43.3393 41.6489 43.081L41.658 39.1461C42.878 39.0196 44.0585 38.8748 45.1783 38.6987H45.1779ZM81.6274 47.7567L81.6337 64.1407C81.6332 64.156 81.634 64.156 81.6337 64.1636C81.6263 64.2719 81.6307 64.3801 81.6459 64.4875C81.6533 64.5485 81.668 64.6018 81.6809 64.6582C81.6839 64.6735 81.6883 64.6887 81.6931 64.7039C81.7722 65.0103 81.9308 65.2482 82.1401 65.4273C82.2497 65.5317 82.3735 65.6178 82.5078 65.6864C83.0352 65.9501 83.3683 66.1947 83.5194 66.3479C83.4253 66.4454 83.2303 66.6254 82.8283 66.851C82.0188 67.3075 80.6363 67.8027 78.8934 68.2184C75.4076 69.0501 70.4429 69.5977 64.9565 69.5977C59.4701 69.5977 54.4936 69.0497 51.0077 68.2184C49.2648 67.8023 47.8912 67.3076 47.0816 66.851C46.6823 66.6254 46.4881 66.4484 46.3905 66.3509C46.5441 66.1969 46.8751 65.9455 47.3934 65.6864C48.0028 65.3998 48.364 64.7589 48.2933 64.0893C48.2929 64.0893 48.2937 64.0742 48.2933 64.0665V60.1462C48.3436 59.9206 48.3436 59.6865 48.2933 59.461V47.7648C48.9209 47.9638 49.5502 48.1604 50.2725 48.3319C54.1115 49.2479 59.2662 49.7876 64.9565 49.7876C70.6467 49.7876 75.7897 49.2481 79.6286 48.3319C80.3587 48.1581 80.9951 47.9569 81.6284 47.7556L81.6274 47.7567ZM38.5579 50.4831V60.3498V60.9854V66.9378V66.9911C38.5564 67.0216 38.5609 67.0445 38.5609 67.0773C38.5609 67.0849 38.5609 67.0925 38.5609 67.1002C38.5503 67.992 39.1264 68.4824 39.7902 68.6148C40.0922 68.7946 40.3253 68.9593 40.4372 69.0705C40.3401 69.1681 40.1467 69.348 39.7461 69.5736C38.9366 70.0301 37.5659 70.537 35.8229 70.9529C32.3371 71.7846 27.3697 72.3204 21.8831 72.3204C16.3964 72.3204 11.4202 71.7846 7.93439 70.9529C6.19147 70.5367 4.82064 70.0301 4.01119 69.5736C3.61184 69.348 3.41465 69.1712 3.3171 69.0737C3.47075 68.9197 3.80451 68.6682 4.32292 68.409C4.46991 68.3371 4.60486 68.2427 4.72291 68.1294C4.75415 68.0989 4.78231 68.0683 4.81111 68.0378C4.81412 68.0378 4.81864 68.0226 4.82332 68.0226C4.82847 68.015 4.83354 68.0075 4.83856 67.9998C4.90105 67.9312 4.95818 67.8527 5.00619 67.7673C5.00722 67.7623 5.00818 67.7572 5.00916 67.7521C5.05184 67.6751 5.09188 67.5965 5.12092 67.5081C5.15128 67.4211 5.17395 67.3316 5.18872 67.2407C5.21225 67.1027 5.21743 66.9623 5.20401 66.823L5.22151 50.4803C5.84989 50.6815 6.48018 50.8811 7.20366 51.0534C11.0426 51.9693 16.1944 52.5092 21.8847 52.5092C27.5749 52.5092 32.7179 51.9696 36.5568 51.0534C37.2878 50.8796 37.9257 50.6776 38.5596 50.4741L38.5579 50.4831Z" fill="#2D2D2D"/>
    <path d="M21.0766 31.3499C20.1661 32.8541 18.3441 35.8646 17.797 38.4005C17.2501 40.9365 17.9785 42.9955 19.3263 44.0973C20.6743 45.1991 22.6381 45.3413 24.0873 44.4448C25.5365 43.549 26.4719 41.6146 26.0364 39.0104C25.6011 36.4062 23.7934 33.1242 21.9871 29.8445C21.9871 29.8445 21.9871 29.8439 21.0766 31.3486V31.3499Z" fill="black"/>
    <path d="M64.1506 28.6231C63.2401 30.1272 61.418 33.1378 60.871 35.6737C60.324 38.2096 61.0525 40.2686 62.4003 41.3704C63.7483 42.4721 65.7121 42.6144 67.1612 41.7172C68.6105 40.8214 69.5459 38.887 69.1104 36.2827C68.6751 33.6785 66.8674 30.3965 65.0611 27.1168C65.0611 27.1168 65.0611 27.1162 64.1506 28.621V28.6231Z" fill="black"/>
</svg>
